<?xml version="1.0" encoding="UTF-8" standalone="no"?>
<svg
   id="Capa_1"
   data-name="Capa 1"
   viewBox="0 0 299.92 245.45"
   version="1.1"
   sodipodi:docname="lemurlab.svg"
   inkscape:version="1.2.1 (9c6d41e4, 2022-07-14)"
   xmlns:inkscape="http://www.inkscape.org/namespaces/inkscape"
   xmlns:sodipodi="http://sodipodi.sourceforge.net/DTD/sodipodi-0.dtd"
   xmlns="http://www.w3.org/2000/svg"
   xmlns:svg="http://www.w3.org/2000/svg">
  <sodipodi:namedview
     id="namedview509"
     pagecolor="#ffffff"
     bordercolor="#000000"
     borderopacity="0.25"
     inkscape:showpageshadow="2"
     inkscape:pageopacity="0.0"
     inkscape:pagecheckerboard="0"
     inkscape:deskcolor="#d1d1d1"
     showgrid="false"
     inkscape:zoom="0.9614993"
     inkscape:cx="124.80508"
     inkscape:cy="122.725"
     inkscape:window-width="1367"
     inkscape:window-height="456"
     inkscape:window-x="0"
     inkscape:window-y="25"
     inkscape:window-maximized="0"
     inkscape:current-layer="Capa_1" />
  <defs
     id="defs4">
    <style
       id="style2">
      .cls-1 {
        fill: #420add;
      }

      .cls-2 {
        fill: #573c8f;
      }

      .cls-3 {
        fill: #fff;
      }
    </style>
  </defs>
  <g
     id="g190"
     transform="matrix(0.58385858,0,0,0.58385858,56.162287,47.019665)">
    <g
       id="g88">
      <g
         id="g50">
        <path
           class="cls-2"
           d="m 215.55,234.31 6.38,9.48 h 0.03 c 0,0 -6.41,-9.48 -6.41,-9.48 z m 9.92,-30.54 v 0.03 c 0.37,0.24 0.75,0.49 1.13,0.75 -0.38,-0.29 -0.76,-0.55 -1.13,-0.78 z"
           id="path6" />
        <path
           class="cls-2"
           d="m 236.36,214.51 c -0.24,-0.31 -0.49,-0.61 -0.73,-0.91 -0.46,-0.57 -0.91,-1.12 -1.36,-1.66 0.45,0.54 0.94,1.09 1.39,1.66 0.24,0.3 0.48,0.61 0.7,0.91 z"
           id="path8" />
        <path
           class="cls-2"
           d="m 245.35,189.42 c -0.19,0.34 -0.39,0.64 -0.62,0.95 -0.45,0.64 -0.9,1.24 -1.42,1.85 0.49,-0.61 0.94,-1.25 1.39,-1.87 0.23,-0.32 0.46,-0.63 0.65,-0.93 z"
           id="path10" />
        <path
           class="cls-2"
           d="m 251.87,168.81 c -0.03,0.63 -0.09,1.29 -0.18,1.89 0.03,-0.32 0.05,-0.64 0.07,-0.96 0.02,-0.32 0.04,-0.64 0.05,-0.96 h 0.01 z"
           id="path12" />
        <g
           id="g20">
          <path
             class="cls-2"
             d="m 251.81,168.78 c -0.01,0.32 -0.03,0.64 -0.05,0.96 0.02,-0.32 0.04,-0.64 0.06,-0.96 z m -1.12,-15.48 c -0.38,-1.77 -0.86,-3.45 -1.45,-5.04 0.53,1.95 1.02,3.65 1.45,5.04 z M 54.3,112.91 54.28,126.6 H 83.9 l 0.08,-13.48 v -0.24 H 54.3 Z"
             id="path14" />
          <path
             class="cls-2"
             d="m 251.81,168.78 c -0.01,0.32 -0.03,0.64 -0.05,0.96 0.02,-0.32 0.04,-0.64 0.06,-0.96 z m -1.12,-15.48 c -0.38,-1.77 -0.86,-3.45 -1.45,-5.04 0.53,1.95 1.02,3.65 1.45,5.04 z M 54.3,112.91 54.28,126.6 H 83.9 l 0.08,-13.48 v -0.24 H 54.3 Z"
             id="path16" />
          <path
             class="cls-2"
             d="m 251.81,168.78 c -0.01,0.32 -0.03,0.64 -0.05,0.96 0.02,-0.32 0.04,-0.64 0.06,-0.96 z m -1.12,-15.48 c -0.38,-1.77 -0.86,-3.45 -1.45,-5.04 0.53,1.95 1.02,3.65 1.45,5.04 z M 54.3,112.91 54.28,126.6 H 83.9 l 0.08,-13.48 v -0.24 H 54.3 Z"
             id="path18" />
        </g>
        <g
           id="g46">
          <g
             id="g28">
            <path
               class="cls-2"
               d="m 263.61,117.49 c -0.5,5.68 -14.73,9.37 -12.73,-2.4 2,-11.77 3.51,-13.27 3.51,-13.27 0,0 9.78,9.42 9.22,15.67 z"
               id="path22" />
            <circle
               class="cls-2"
               cx="276.54999"
               cy="132.89"
               r="8.8900003"
               id="circle24" />
            <path
               class="cls-2"
               d="m 293.23,143.25 6.31,10.8 c 0.86,1.47 0.16,3.37 -1.46,3.92 l -7.65,2.61 c -0.64,0.22 -1.33,0.19 -1.95,-0.08 l -18.02,-7.85 c -1.91,-0.83 -2.2,-3.42 -0.52,-4.65 v 0 c 0.53,-0.39 1.19,-0.57 1.85,-0.51 l 8.59,0.81 c 0.67,0.06 1.34,-0.13 1.88,-0.53 l 7.01,-5.3 c 1.29,-0.98 3.14,-0.61 3.96,0.79 z"
               id="path26" />
          </g>
          <g
             id="g36">
            <path
               class="cls-2"
               d="m 263.61,117.49 c -0.5,5.68 -14.73,9.37 -12.73,-2.4 2,-11.77 3.51,-13.27 3.51,-13.27 0,0 9.78,9.42 9.22,15.67 z"
               id="path30" />
            <circle
               class="cls-2"
               cx="276.54999"
               cy="132.89"
               r="8.8900003"
               id="circle32" />
            <path
               class="cls-2"
               d="m 293.23,143.25 6.31,10.8 c 0.86,1.47 0.16,3.37 -1.46,3.92 l -7.65,2.61 c -0.64,0.22 -1.33,0.19 -1.95,-0.08 l -18.02,-7.85 c -1.91,-0.83 -2.2,-3.42 -0.52,-4.65 v 0 c 0.53,-0.39 1.19,-0.57 1.85,-0.51 l 8.59,0.81 c 0.67,0.06 1.34,-0.13 1.88,-0.53 l 7.01,-5.3 c 1.29,-0.98 3.14,-0.61 3.96,0.79 z"
               id="path34" />
          </g>
          <g
             id="g44">
            <path
               class="cls-2"
               d="m 263.61,117.49 c -0.5,5.68 -14.73,9.37 -12.73,-2.4 2,-11.77 3.51,-13.27 3.51,-13.27 0,0 9.78,9.42 9.22,15.67 z"
               id="path38" />
            <circle
               class="cls-2"
               cx="276.54999"
               cy="132.89"
               r="8.8900003"
               id="circle40" />
            <path
               class="cls-2"
               d="m 293.23,143.25 6.31,10.8 c 0.86,1.47 0.16,3.37 -1.46,3.92 l -7.65,2.61 c -0.64,0.22 -1.33,0.19 -1.95,-0.08 l -18.02,-7.85 c -1.91,-0.83 -2.2,-3.42 -0.52,-4.65 v 0 c 0.53,-0.39 1.19,-0.57 1.85,-0.51 l 8.59,0.81 c 0.67,0.06 1.34,-0.13 1.88,-0.53 l 7.01,-5.3 c 1.29,-0.98 3.14,-0.61 3.96,0.79 z"
               id="path42" />
          </g>
        </g>
        <path
           class="cls-2"
           d="m 290.45,122.38 c 0,0 -4.75,-6.53 -9.53,-6.78 -4.54,-0.27 -11.28,3.94 -11.89,4.3 0.31,-0.49 3.78,-6.38 -0.03,-15.34 -4.02,-9.34 -12.01,-29.21 -24.28,-2.75 -4.14,8.94 0.95,33.19 4.52,46.45 0.53,1.95 1.02,3.65 1.45,5.04 v 0 c 0.83,3.73 1.24,7.84 1.24,12.33 0,1.05 -0.03,2.12 -0.11,3.15 h -0.01 c -0.01,0.32 -0.03,0.64 -0.05,0.96 -0.02,0.32 -0.04,0.64 -0.07,0.96 v 0.02 c -0.03,0.62 -0.12,1.23 -0.21,1.87 -0.04,0.54 -0.13,1.09 -0.25,1.6 -0.09,0.42 -0.15,0.85 -0.24,1.27 -0.06,0.45 -0.15,0.9 -0.3,1.36 -0.09,0.52 -0.21,1 -0.36,1.49 -0.09,0.47 -0.25,0.93 -0.4,1.41 -0.02,0.1 -0.02,0.15 -0.09,0.25 -0.08,0.3 -0.21,0.6 -0.3,0.9 0,0.1 -0.03,0.19 -0.08,0.27 -0.19,0.62 -0.43,1.19 -0.68,1.76 -0.02,0.09 -0.06,0.22 -0.11,0.3 -0.25,0.58 -0.49,1.15 -0.79,1.73 -0.03,0.12 -0.1,0.21 -0.15,0.32 -0.1,0.19 -0.18,0.4 -0.31,0.59 -0.02,0.11 -0.09,0.21 -0.15,0.32 -0.24,0.49 -0.51,0.98 -0.79,1.43 -0.02,0.06 -0.06,0.12 -0.11,0.21 -0.21,0.36 -0.42,0.7 -0.67,1.06 -0.05,0.18 -0.18,0.33 -0.3,0.49 -0.02,0.02 -0.03,0.05 -0.05,0.07 -0.19,0.3 -0.42,0.61 -0.65,0.93 -0.45,0.62 -0.9,1.26 -1.39,1.87 -0.48,0.57 -0.97,1.15 -1.48,1.72 -0.22,0.28 -0.48,0.54 -0.75,0.82 -0.25,0.23 -0.53,0.51 -0.79,0.76 -0.04,0.05 -0.06,0.09 -0.1,0.09 -0.51,0.51 -0.99,0.96 -1.54,1.38 -0.61,0.49 -1.21,0.98 -1.84,1.4 -0.24,0.18 -0.49,0.33 -0.73,0.51 -0.72,0.45 -1.45,0.9 -2.21,1.3 -0.81,0.45 -1.69,0.88 -2.6,1.24 -0.66,0.31 -1.33,0.55 -2.02,0.78 -0.12,0.04 -0.27,0.1 -0.4,0.13 -0.27,0.09 -0.51,0.15 -0.79,0.24 -0.06,0.03 -0.11,0.06 -0.17,0.06 -0.73,0.21 -1.49,0.42 -2.25,0.57 l -0.17,0.55 v 0.03 c 0.37,0.24 0.75,0.49 1.13,0.75 0.01,0.01 0.03,0.02 0.04,0.03 0.4,0.32 0.79,0.62 1.19,0.94 0.42,0.34 0.81,0.67 1.23,1.04 1.67,1.47 3.39,3.26 5.21,5.38 0.45,0.54 0.9,1.09 1.36,1.66 0.24,0.3 0.49,0.6 0.73,0.91 1.38,1.72 2.78,3.47 4.14,5.32 0.66,0.9 1.36,1.85 2.05,2.81 1.4,1.88 2.76,3.85 4.12,5.87 1.6,2.36 3.11,4.66 4.53,6.87 0.64,0.94 1.24,1.87 1.82,2.81 0.61,0.94 1.18,1.85 1.72,2.75 0.55,0.91 1.1,1.78 1.64,2.67 v 0.17 h -34.42 l -6.41,-9.47 -1.18,-1.74 -12.43,-18.39 c -1.73,-2.6 -3.12,-4.45 -4.15,-5.57 -0.27,-0.28 -0.55,-0.54 -0.82,-0.75 q 0,0 -0.03,-0.04 c -0.57,-0.41 -1.17,-0.75 -1.84,-1 -0.33,-0.11 -0.67,-0.2 -1.03,-0.26 -1.42,-0.25 -3.66,-0.37 -6.74,-0.37 h -2.91 v 37.59 h -30.64 v -27.09 c -0.61,2.93 -1.42,5.63 -2.36,8.04 -2.89,7.29 -7.95,12.55 -15.09,15.82 -7.17,3.26 -17.3,4.9 -30.4,4.9 -13.1,0 -24.1,-1.64 -31.57,-4.9 -7.47,-3.27 -12.67,-8.53 -15.64,-15.82 -2.97,-7.28 -4.44,-17 -4.44,-29.1 V 126.6 H 83.9 l 0.08,-13.48 -0.07,13.44 v 68.53 c 0,6.3 0.61,11.22 1.85,14.83 1.24,3.56 3.45,6.07 6.66,7.49 3.23,1.42 7.7,2.12 13.51,2.12 5.45,0 9.63,-0.7 12.53,-2.12 2.89,-1.42 4.89,-3.93 6.02,-7.49 1.08,-3.61 1.66,-8.53 1.66,-14.83 v -35.53 c 0,-18.23 14.77,-33 33.01,-33 h 35.15 c 0,0 -0.1,-0.01 -0.15,-0.01 36.07,-2.69 51.84,-39.56 56.55,-41.01 5.02,-1.57 14.1,2.39 14.1,2.39 l 1.93,-2.54 c 1.73,-2.3 5.3,-1.73 6.23,1 l 3.6,10.43 c 0,0 7.63,3 11.38,11.25 3.75,8.26 2.51,14.31 2.51,14.31 z"
           id="path48" />
      </g>
      <g
         id="g86">
        <path
           class="cls-3"
           d="m 215.55,234.31 6.38,9.48 h 0.03 c 0,0 -6.41,-9.48 -6.41,-9.48 z m 9.92,-30.54 v 0.03 c 0.37,0.24 0.75,0.49 1.13,0.75 -0.38,-0.29 -0.76,-0.55 -1.13,-0.78 z"
           id="path52" />
        <path
           class="cls-3"
           d="m 236.36,214.51 c -0.24,-0.31 -0.49,-0.61 -0.73,-0.91 -0.46,-0.57 -0.91,-1.12 -1.36,-1.66 0.45,0.54 0.94,1.09 1.39,1.66 0.24,0.3 0.48,0.61 0.7,0.91 z"
           id="path54" />
        <path
           class="cls-3"
           d="m 245.35,189.42 c -0.19,0.34 -0.39,0.64 -0.62,0.95 -0.45,0.64 -0.9,1.24 -1.42,1.85 0.49,-0.61 0.94,-1.25 1.39,-1.87 0.23,-0.32 0.46,-0.63 0.65,-0.93 z"
           id="path56" />
        <path
           class="cls-3"
           d="m 251.87,168.81 c -0.03,0.63 -0.09,1.29 -0.18,1.89 0.03,-0.32 0.05,-0.64 0.07,-0.96 0.02,-0.32 0.04,-0.64 0.05,-0.96 h 0.01 z"
           id="path58" />
        <g
           id="g64">
          <path
             class="cls-2"
             d="m 251.81,168.78 c -0.01,0.32 -0.03,0.64 -0.05,0.96 0.02,-0.32 0.04,-0.64 0.06,-0.96 z m -1.12,-15.48 c -0.38,-1.77 -0.86,-3.45 -1.45,-5.04 0.53,1.95 1.02,3.65 1.45,5.04 z M 54.3,112.91 54.28,126.6 H 83.9 l 0.08,-13.48 v -0.24 H 54.3 Z"
             id="path60" />
          <path
             class="cls-2"
             d="m 251.81,168.78 c -0.01,0.32 -0.03,0.64 -0.05,0.96 0.02,-0.32 0.04,-0.64 0.06,-0.96 z m -1.12,-15.48 c -0.38,-1.77 -0.86,-3.45 -1.45,-5.04 0.53,1.95 1.02,3.65 1.45,5.04 z M 54.3,112.91 54.28,126.6 H 83.9 l 0.08,-13.48 v -0.24 H 54.3 Z"
             id="path62" />
        </g>
        <g
           id="g82">
          <g
             id="g72">
            <path
               class="cls-2"
               d="m 263.61,117.49 c -0.5,5.68 -14.73,9.37 -12.73,-2.4 2,-11.77 3.51,-13.27 3.51,-13.27 0,0 9.78,9.42 9.22,15.67 z"
               id="path66" />
            <circle
               class="cls-2"
               cx="276.54999"
               cy="132.89"
               r="8.8900003"
               id="circle68" />
            <path
               class="cls-2"
               d="m 293.23,143.25 6.31,10.8 c 0.86,1.47 0.16,3.37 -1.46,3.92 l -7.65,2.61 c -0.64,0.22 -1.33,0.19 -1.95,-0.08 l -18.02,-7.85 c -1.91,-0.83 -2.2,-3.42 -0.52,-4.65 v 0 c 0.53,-0.39 1.19,-0.57 1.85,-0.51 l 8.59,0.81 c 0.67,0.06 1.34,-0.13 1.88,-0.53 l 7.01,-5.3 c 1.29,-0.98 3.14,-0.61 3.96,0.79 z"
               id="path70" />
          </g>
          <g
             id="g80">
            <path
               class="cls-2"
               d="m 263.61,117.49 c -0.5,5.68 -14.73,9.37 -12.73,-2.4 2,-11.77 3.51,-13.27 3.51,-13.27 0,0 9.78,9.42 9.22,15.67 z"
               id="path74" />
            <circle
               class="cls-2"
               cx="276.54999"
               cy="132.89"
               r="8.8900003"
               id="circle76" />
            <path
               class="cls-2"
               d="m 293.23,143.25 6.31,10.8 c 0.86,1.47 0.16,3.37 -1.46,3.92 l -7.65,2.61 c -0.64,0.22 -1.33,0.19 -1.95,-0.08 l -18.02,-7.85 c -1.91,-0.83 -2.2,-3.42 -0.52,-4.65 v 0 c 0.53,-0.39 1.19,-0.57 1.85,-0.51 l 8.59,0.81 c 0.67,0.06 1.34,-0.13 1.88,-0.53 l 7.01,-5.3 c 1.29,-0.98 3.14,-0.61 3.96,0.79 z"
               id="path78" />
          </g>
        </g>
        <path
           class="cls-1"
           d="m 290.45,122.38 c 0,0 -4.75,-6.53 -9.53,-6.78 -4.54,-0.27 -11.28,3.94 -11.89,4.3 0.31,-0.49 3.78,-6.38 -0.03,-15.34 -4.02,-9.34 -12.01,-29.21 -24.28,-2.75 -4.14,8.94 0.95,33.19 4.52,46.45 0.53,1.95 1.02,3.65 1.45,5.04 v 0 c 0.83,3.73 1.24,7.84 1.24,12.33 0,1.05 -0.03,2.12 -0.11,3.15 h -0.01 c -0.01,0.32 -0.03,0.64 -0.05,0.96 -0.02,0.32 -0.04,0.64 -0.07,0.96 v 0.02 c -0.03,0.62 -0.12,1.23 -0.21,1.87 -0.04,0.54 -0.13,1.09 -0.25,1.6 -0.09,0.42 -0.15,0.85 -0.24,1.27 -0.06,0.45 -0.15,0.9 -0.3,1.36 -0.09,0.52 -0.21,1 -0.36,1.49 -0.09,0.47 -0.25,0.93 -0.4,1.41 -0.02,0.1 -0.02,0.15 -0.09,0.25 -0.08,0.3 -0.21,0.6 -0.3,0.9 0,0.1 -0.03,0.19 -0.08,0.27 -0.19,0.62 -0.43,1.19 -0.68,1.76 -0.02,0.09 -0.06,0.22 -0.11,0.3 -0.25,0.58 -0.49,1.15 -0.79,1.73 -0.03,0.12 -0.1,0.21 -0.15,0.32 -0.1,0.19 -0.18,0.4 -0.31,0.59 -0.02,0.11 -0.09,0.21 -0.15,0.32 -0.24,0.49 -0.51,0.98 -0.79,1.43 -0.02,0.06 -0.06,0.12 -0.11,0.21 -0.21,0.36 -0.42,0.7 -0.67,1.06 -0.05,0.18 -0.18,0.33 -0.3,0.49 -0.02,0.02 -0.03,0.05 -0.05,0.07 -0.19,0.3 -0.42,0.61 -0.65,0.93 -0.45,0.62 -0.9,1.26 -1.39,1.87 -0.48,0.57 -0.97,1.15 -1.48,1.72 -0.22,0.28 -0.48,0.54 -0.75,0.82 -0.25,0.23 -0.53,0.51 -0.79,0.76 -0.04,0.05 -0.06,0.09 -0.1,0.09 -0.51,0.51 -0.99,0.96 -1.54,1.38 -0.61,0.49 -1.21,0.98 -1.84,1.4 -0.24,0.18 -0.49,0.33 -0.73,0.51 -0.72,0.45 -1.45,0.9 -2.21,1.3 -0.81,0.45 -1.69,0.88 -2.6,1.24 -0.66,0.31 -1.33,0.55 -2.02,0.78 -0.12,0.04 -0.27,0.1 -0.4,0.13 -0.27,0.09 -0.51,0.15 -0.79,0.24 -0.06,0.03 -0.11,0.06 -0.17,0.06 -0.73,0.21 -1.49,0.42 -2.25,0.57 l -0.17,0.55 v 0.03 c 0.37,0.24 0.75,0.49 1.13,0.75 0.01,0.01 0.03,0.02 0.04,0.03 0.4,0.32 0.79,0.62 1.19,0.94 0.42,0.34 0.81,0.67 1.23,1.04 1.67,1.47 3.39,3.26 5.21,5.38 0.45,0.54 0.9,1.09 1.36,1.66 0.24,0.3 0.49,0.6 0.73,0.91 1.38,1.72 2.78,3.47 4.14,5.32 0.66,0.9 1.36,1.85 2.05,2.81 1.4,1.88 2.76,3.85 4.12,5.87 1.6,2.36 3.11,4.66 4.53,6.87 0.64,0.94 1.24,1.87 1.82,2.81 0.61,0.94 1.18,1.85 1.72,2.75 0.55,0.91 1.1,1.78 1.64,2.67 v 0.17 h -34.42 l -6.41,-9.47 -1.18,-1.74 -12.43,-18.39 c -1.73,-2.6 -3.12,-4.45 -4.15,-5.57 -0.27,-0.28 -0.55,-0.54 -0.82,-0.75 q 0,0 -0.03,-0.04 c -0.57,-0.41 -1.17,-0.75 -1.84,-1 -0.33,-0.11 -0.67,-0.2 -1.03,-0.26 -1.42,-0.25 -3.66,-0.37 -6.74,-0.37 h -2.91 v 37.59 h -30.64 v -27.09 c -0.61,2.93 -1.42,5.63 -2.36,8.04 -2.89,7.29 -7.95,12.55 -15.09,15.82 -7.17,3.26 -17.3,4.9 -30.4,4.9 -13.1,0 -24.1,-1.64 -31.57,-4.9 -7.47,-3.27 -12.67,-8.53 -15.64,-15.82 -2.97,-7.28 -4.44,-17 -4.44,-29.1 V 126.6 H 83.9 l 0.08,-13.48 -0.07,13.44 v 68.53 c 0,6.3 0.61,11.22 1.85,14.83 1.24,3.56 3.45,6.07 6.66,7.49 3.23,1.42 7.7,2.12 13.51,2.12 5.45,0 9.63,-0.7 12.53,-2.12 2.89,-1.42 4.89,-3.93 6.02,-7.49 1.08,-3.61 1.66,-8.53 1.66,-14.83 v -35.53 c 0,-18.23 14.77,-33 33.01,-33 h 35.15 c 0,0 -0.1,-0.01 -0.15,-0.01 36.07,-2.69 51.84,-39.56 56.55,-41.01 5.02,-1.57 14.1,2.39 14.1,2.39 l 1.93,-2.54 c 1.73,-2.3 5.3,-1.73 6.23,1 l 3.6,10.43 c 0,0 7.63,3 11.38,11.25 3.75,8.26 2.51,14.31 2.51,14.31 z"
           id="path84" />
      </g>
    </g>
    <g
       id="g188">
      <g
         id="g184">
        <g
           id="g144">
          <g
             id="g106">
            <rect
               class="cls-2"
               y="55.080002"
               width="29.950001"
               height="17.379999"
               id="rect90"
               x="0" />
            <path
               class="cls-2"
               d="m 3.77,24.52 26.37,15.24 c -0.13,0.7 -0.19,1.4 -0.19,2.14 v 1.65 H 0 V 41.9 C 0,35.71 1.34,29.82 3.77,24.52 Z"
               id="path92" />
            <path
               class="cls-2"
               d="M 37.16,0 V 31.12 L 9.6,15.19 C 16.43,7.09 26.15,1.48 37.16,0 Z"
               id="path94" />
            <path
               class="cls-2"
               d="M 75.31,15.88 48.94,31.12 V 0.67 c 10.53,1.42 19.82,7.48 26.37,15.21 z"
               id="path96" />
            <polygon
               class="cls-2"
               points="83.9,126.6 54.28,126.6 54.3,112.91 83.98,112.91 83.98,113.12 "
               id="polygon98" />
            <polygon
               class="cls-2"
               points="84.03,101.36 54.31,101.36 54.33,84 84.13,84 "
               id="polygon100" />
            <polygon
               class="cls-2"
               points="54.35,72.45 54.37,55.08 84.26,55.08 84.18,72.45 "
               id="polygon102" />
            <path
               class="cls-2"
               d="m 84.34,41.9 v 1.65 H 54.39 V 41.9 c 0,-0.8 -0.08,-1.57 -0.23,-2.31 l 26.35,-15.2 c 2.46,5.34 3.82,11.26 3.82,17.51 z"
               id="path104" />
          </g>
          <g
             id="g124">
            <rect
               class="cls-2"
               y="55.080002"
               width="29.950001"
               height="17.379999"
               id="rect108"
               x="0" />
            <path
               class="cls-2"
               d="m 3.77,24.52 26.37,15.24 c -0.13,0.7 -0.19,1.4 -0.19,2.14 v 1.65 H 0 V 41.9 C 0,35.71 1.34,29.82 3.77,24.52 Z"
               id="path110" />
            <path
               class="cls-2"
               d="M 37.16,0 V 31.12 L 9.6,15.19 C 16.43,7.09 26.15,1.48 37.16,0 Z"
               id="path112" />
            <path
               class="cls-2"
               d="M 75.31,15.88 48.94,31.12 V 0.67 c 10.53,1.42 19.82,7.48 26.37,15.21 z"
               id="path114" />
            <polygon
               class="cls-2"
               points="83.9,126.6 54.28,126.6 54.3,112.91 83.98,112.91 83.98,113.12 "
               id="polygon116" />
            <polygon
               class="cls-2"
               points="84.03,101.36 54.31,101.36 54.33,84 84.13,84 "
               id="polygon118" />
            <polygon
               class="cls-2"
               points="54.35,72.45 54.37,55.08 84.26,55.08 84.18,72.45 "
               id="polygon120" />
            <path
               class="cls-2"
               d="m 84.34,41.9 v 1.65 H 54.39 V 41.9 c 0,-0.8 -0.08,-1.57 -0.23,-2.31 l 26.35,-15.2 c 2.46,5.34 3.82,11.26 3.82,17.51 z"
               id="path122" />
          </g>
          <g
             id="g142">
            <rect
               class="cls-2"
               y="55.080002"
               width="29.950001"
               height="17.379999"
               id="rect126"
               x="0" />
            <path
               class="cls-2"
               d="m 3.77,24.52 26.37,15.24 c -0.13,0.7 -0.19,1.4 -0.19,2.14 v 1.65 H 0 V 41.9 C 0,35.71 1.34,29.82 3.77,24.52 Z"
               id="path128" />
            <path
               class="cls-2"
               d="M 37.16,0 V 31.12 L 9.6,15.19 C 16.43,7.09 26.15,1.48 37.16,0 Z"
               id="path130" />
            <path
               class="cls-2"
               d="M 75.31,15.88 48.94,31.12 V 0.67 c 10.53,1.42 19.82,7.48 26.37,15.21 z"
               id="path132" />
            <polygon
               class="cls-2"
               points="83.9,126.6 54.28,126.6 54.3,112.91 83.98,112.91 83.98,113.12 "
               id="polygon134" />
            <polygon
               class="cls-2"
               points="84.03,101.36 54.31,101.36 54.33,84 84.13,84 "
               id="polygon136" />
            <polygon
               class="cls-2"
               points="54.35,72.45 54.37,55.08 84.26,55.08 84.18,72.45 "
               id="polygon138" />
            <path
               class="cls-2"
               d="m 84.34,41.9 v 1.65 H 54.39 V 41.9 c 0,-0.8 -0.08,-1.57 -0.23,-2.31 l 26.35,-15.2 c 2.46,5.34 3.82,11.26 3.82,17.51 z"
               id="path140" />
          </g>
        </g>
        <g
           id="g182">
          <g
             id="g162">
            <rect
               class="cls-2"
               y="55.080002"
               width="29.950001"
               height="17.379999"
               id="rect146"
               x="0" />
            <path
               class="cls-2"
               d="m 3.77,24.52 26.37,15.24 c -0.13,0.7 -0.19,1.4 -0.19,2.14 v 1.65 H 0 V 41.9 C 0,35.71 1.34,29.82 3.77,24.52 Z"
               id="path148" />
            <path
               class="cls-2"
               d="M 37.16,0 V 31.12 L 9.6,15.19 C 16.43,7.09 26.15,1.48 37.16,0 Z"
               id="path150" />
            <path
               class="cls-2"
               d="M 75.31,15.88 48.94,31.12 V 0.67 c 10.53,1.42 19.82,7.48 26.37,15.21 z"
               id="path152" />
            <polygon
               class="cls-2"
               points="83.9,126.6 54.28,126.6 54.3,112.91 83.98,112.91 83.98,113.12 "
               id="polygon154" />
            <polygon
               class="cls-2"
               points="84.03,101.36 54.31,101.36 54.33,84 84.13,84 "
               id="polygon156" />
            <polygon
               class="cls-2"
               points="54.35,72.45 54.37,55.08 84.26,55.08 84.18,72.45 "
               id="polygon158" />
            <path
               class="cls-2"
               d="m 84.34,41.9 v 1.65 H 54.39 V 41.9 c 0,-0.8 -0.08,-1.57 -0.23,-2.31 l 26.35,-15.2 c 2.46,5.34 3.82,11.26 3.82,17.51 z"
               id="path160" />
          </g>
          <g
             id="g180">
            <rect
               class="cls-2"
               y="55.080002"
               width="29.950001"
               height="17.379999"
               id="rect164"
               x="0" />
            <path
               class="cls-2"
               d="m 3.77,24.52 26.37,15.24 c -0.13,0.7 -0.19,1.4 -0.19,2.14 v 1.65 H 0 V 41.9 C 0,35.71 1.34,29.82 3.77,24.52 Z"
               id="path166" />
            <path
               class="cls-2"
               d="M 37.16,0 V 31.12 L 9.6,15.19 C 16.43,7.09 26.15,1.48 37.16,0 Z"
               id="path168" />
            <path
               class="cls-2"
               d="M 75.31,15.88 48.94,31.12 V 0.67 c 10.53,1.42 19.82,7.48 26.37,15.21 z"
               id="path170" />
            <polygon
               class="cls-2"
               points="83.9,126.6 54.28,126.6 54.3,112.91 83.98,112.91 83.98,113.12 "
               id="polygon172" />
            <polygon
               class="cls-2"
               points="84.03,101.36 54.31,101.36 54.33,84 84.13,84 "
               id="polygon174" />
            <polygon
               class="cls-2"
               points="54.35,72.45 54.37,55.08 84.26,55.08 84.18,72.45 "
               id="polygon176" />
            <path
               class="cls-2"
               d="m 84.34,41.9 v 1.65 H 54.39 V 41.9 c 0,-0.8 -0.08,-1.57 -0.23,-2.31 l 26.35,-15.2 c 2.46,5.34 3.82,11.26 3.82,17.51 z"
               id="path178" />
          </g>
        </g>
      </g>
      <circle
         class="cls-2"
         cx="42.580002"
         cy="41.650002"
         r="4"
         id="circle186" />
    </g>
  </g>
  <g
     id="g506"
     transform="matrix(0.58385858,0,0,0.58385858,56.162287,47.019665)">
    <g
       id="g330">
      <g
         id="g236">
        <path
           class="cls-1"
           d="m 215.55,234.31 6.38,9.48 h 0.03 c 0,0 -6.41,-9.48 -6.41,-9.48 z m 9.92,-30.54 v 0.03 c 0.37,0.24 0.75,0.49 1.13,0.75 -0.38,-0.29 -0.76,-0.55 -1.13,-0.78 z"
           id="path192" />
        <path
           class="cls-1"
           d="m 236.36,214.51 c -0.24,-0.31 -0.49,-0.61 -0.73,-0.91 -0.46,-0.57 -0.91,-1.12 -1.36,-1.66 0.45,0.54 0.94,1.09 1.39,1.66 0.24,0.3 0.48,0.61 0.7,0.91 z"
           id="path194" />
        <path
           class="cls-1"
           d="m 245.35,189.42 c -0.19,0.34 -0.39,0.64 -0.62,0.95 -0.45,0.64 -0.9,1.24 -1.42,1.85 0.49,-0.61 0.94,-1.25 1.39,-1.87 0.23,-0.32 0.46,-0.63 0.65,-0.93 z"
           id="path196" />
        <path
           class="cls-1"
           d="m 251.87,168.81 c -0.03,0.63 -0.09,1.29 -0.18,1.89 0.03,-0.32 0.05,-0.64 0.07,-0.96 0.02,-0.32 0.04,-0.64 0.05,-0.96 h 0.01 z"
           id="path198" />
        <g
           id="g206">
          <path
             class="cls-1"
             d="m 251.81,168.78 c -0.01,0.32 -0.03,0.64 -0.05,0.96 0.02,-0.32 0.04,-0.64 0.06,-0.96 z m -1.12,-15.48 c -0.38,-1.77 -0.86,-3.45 -1.45,-5.04 0.53,1.95 1.02,3.65 1.45,5.04 z M 54.3,112.91 54.28,126.6 H 83.9 l 0.08,-13.48 v -0.24 H 54.3 Z"
             id="path200" />
          <path
             class="cls-1"
             d="m 251.81,168.78 c -0.01,0.32 -0.03,0.64 -0.05,0.96 0.02,-0.32 0.04,-0.64 0.06,-0.96 z m -1.12,-15.48 c -0.38,-1.77 -0.86,-3.45 -1.45,-5.04 0.53,1.95 1.02,3.65 1.45,5.04 z M 54.3,112.91 54.28,126.6 H 83.9 l 0.08,-13.48 v -0.24 H 54.3 Z"
             id="path202" />
          <path
             class="cls-1"
             d="m 251.81,168.78 c -0.01,0.32 -0.03,0.64 -0.05,0.96 0.02,-0.32 0.04,-0.64 0.06,-0.96 z m -1.12,-15.48 c -0.38,-1.77 -0.86,-3.45 -1.45,-5.04 0.53,1.95 1.02,3.65 1.45,5.04 z M 54.3,112.91 54.28,126.6 H 83.9 l 0.08,-13.48 v -0.24 H 54.3 Z"
             id="path204" />
        </g>
        <g
           id="g232">
          <g
             id="g214">
            <path
               class="cls-1"
               d="m 263.61,117.49 c -0.5,5.68 -14.73,9.37 -12.73,-2.4 2,-11.77 3.51,-13.27 3.51,-13.27 0,0 9.78,9.42 9.22,15.67 z"
               id="path208" />
            <circle
               class="cls-1"
               cx="276.54999"
               cy="132.89"
               r="8.8900003"
               id="circle210" />
            <path
               class="cls-1"
               d="m 293.23,143.25 6.31,10.8 c 0.86,1.47 0.16,3.37 -1.46,3.92 l -7.65,2.61 c -0.64,0.22 -1.33,0.19 -1.95,-0.08 l -18.02,-7.85 c -1.91,-0.83 -2.2,-3.42 -0.52,-4.65 v 0 c 0.53,-0.39 1.19,-0.57 1.85,-0.51 l 8.59,0.81 c 0.67,0.06 1.34,-0.13 1.88,-0.53 l 7.01,-5.3 c 1.29,-0.98 3.14,-0.61 3.96,0.79 z"
               id="path212" />
          </g>
          <g
             id="g222">
            <path
               class="cls-1"
               d="m 263.61,117.49 c -0.5,5.68 -14.73,9.37 -12.73,-2.4 2,-11.77 3.51,-13.27 3.51,-13.27 0,0 9.78,9.42 9.22,15.67 z"
               id="path216" />
            <circle
               class="cls-1"
               cx="276.54999"
               cy="132.89"
               r="8.8900003"
               id="circle218" />
            <path
               class="cls-1"
               d="m 293.23,143.25 6.31,10.8 c 0.86,1.47 0.16,3.37 -1.46,3.92 l -7.65,2.61 c -0.64,0.22 -1.33,0.19 -1.95,-0.08 l -18.02,-7.85 c -1.91,-0.83 -2.2,-3.42 -0.52,-4.65 v 0 c 0.53,-0.39 1.19,-0.57 1.85,-0.51 l 8.59,0.81 c 0.67,0.06 1.34,-0.13 1.88,-0.53 l 7.01,-5.3 c 1.29,-0.98 3.14,-0.61 3.96,0.79 z"
               id="path220" />
          </g>
          <g
             id="g230">
            <path
               class="cls-1"
               d="m 263.61,117.49 c -0.5,5.68 -14.73,9.37 -12.73,-2.4 2,-11.77 3.51,-13.27 3.51,-13.27 0,0 9.78,9.42 9.22,15.67 z"
               id="path224" />
            <circle
               class="cls-1"
               cx="276.54999"
               cy="132.89"
               r="8.8900003"
               id="circle226" />
            <path
               class="cls-1"
               d="m 293.23,143.25 6.31,10.8 c 0.86,1.47 0.16,3.37 -1.46,3.92 l -7.65,2.61 c -0.64,0.22 -1.33,0.19 -1.95,-0.08 l -18.02,-7.85 c -1.91,-0.83 -2.2,-3.42 -0.52,-4.65 v 0 c 0.53,-0.39 1.19,-0.57 1.85,-0.51 l 8.59,0.81 c 0.67,0.06 1.34,-0.13 1.88,-0.53 l 7.01,-5.3 c 1.29,-0.98 3.14,-0.61 3.96,0.79 z"
               id="path228" />
          </g>
        </g>
        <path
           class="cls-1"
           d="m 290.45,122.38 c 0,0 -4.75,-6.53 -9.53,-6.78 -4.54,-0.27 -11.28,3.94 -11.89,4.3 0.31,-0.49 3.78,-6.38 -0.03,-15.34 -4.02,-9.34 -12.01,-29.21 -24.28,-2.75 -4.14,8.94 0.95,33.19 4.52,46.45 0.53,1.95 1.02,3.65 1.45,5.04 v 0 c 0.83,3.73 1.24,7.84 1.24,12.33 0,1.05 -0.03,2.12 -0.11,3.15 h -0.01 c -0.01,0.32 -0.03,0.64 -0.05,0.96 -0.02,0.32 -0.04,0.64 -0.07,0.96 v 0.02 c -0.03,0.62 -0.12,1.23 -0.21,1.87 -0.04,0.54 -0.13,1.09 -0.25,1.6 -0.09,0.42 -0.15,0.85 -0.24,1.27 -0.06,0.45 -0.15,0.9 -0.3,1.36 -0.09,0.52 -0.21,1 -0.36,1.49 -0.09,0.47 -0.25,0.93 -0.4,1.41 -0.02,0.1 -0.02,0.15 -0.09,0.25 -0.08,0.3 -0.21,0.6 -0.3,0.9 0,0.1 -0.03,0.19 -0.08,0.27 -0.19,0.62 -0.43,1.19 -0.68,1.76 -0.02,0.09 -0.06,0.22 -0.11,0.3 -0.25,0.58 -0.49,1.15 -0.79,1.73 -0.03,0.12 -0.1,0.21 -0.15,0.32 -0.1,0.19 -0.18,0.4 -0.31,0.59 -0.02,0.11 -0.09,0.21 -0.15,0.32 -0.24,0.49 -0.51,0.98 -0.79,1.43 -0.02,0.06 -0.06,0.12 -0.11,0.21 -0.21,0.36 -0.42,0.7 -0.67,1.06 -0.05,0.18 -0.18,0.33 -0.3,0.49 -0.02,0.02 -0.03,0.05 -0.05,0.07 -0.19,0.3 -0.42,0.61 -0.65,0.93 -0.45,0.62 -0.9,1.26 -1.39,1.87 -0.48,0.57 -0.97,1.15 -1.48,1.72 -0.22,0.28 -0.48,0.54 -0.75,0.82 -0.25,0.23 -0.53,0.51 -0.79,0.76 -0.04,0.05 -0.06,0.09 -0.1,0.09 -0.51,0.51 -0.99,0.96 -1.54,1.38 -0.61,0.49 -1.21,0.98 -1.84,1.4 -0.24,0.18 -0.49,0.33 -0.73,0.51 -0.72,0.45 -1.45,0.9 -2.21,1.3 -0.81,0.45 -1.69,0.88 -2.6,1.24 -0.66,0.31 -1.33,0.55 -2.02,0.78 -0.12,0.04 -0.27,0.1 -0.4,0.13 -0.27,0.09 -0.51,0.15 -0.79,0.24 -0.06,0.03 -0.11,0.06 -0.17,0.06 -0.73,0.21 -1.49,0.42 -2.25,0.57 l -0.17,0.55 v 0.03 c 0.37,0.24 0.75,0.49 1.13,0.75 0.01,0.01 0.03,0.02 0.04,0.03 0.4,0.32 0.79,0.62 1.19,0.94 0.42,0.34 0.81,0.67 1.23,1.04 1.67,1.47 3.39,3.26 5.21,5.38 0.45,0.54 0.9,1.09 1.36,1.66 0.24,0.3 0.49,0.6 0.73,0.91 1.38,1.72 2.78,3.47 4.14,5.32 0.66,0.9 1.36,1.85 2.05,2.81 1.4,1.88 2.76,3.85 4.12,5.87 1.6,2.36 3.11,4.66 4.53,6.87 0.64,0.94 1.24,1.87 1.82,2.81 0.61,0.94 1.18,1.85 1.72,2.75 0.55,0.91 1.1,1.78 1.64,2.67 v 0.17 h -34.42 l -6.41,-9.47 -1.18,-1.74 -12.43,-18.39 c -1.73,-2.6 -3.12,-4.45 -4.15,-5.57 -0.27,-0.28 -0.55,-0.54 -0.82,-0.75 q 0,0 -0.03,-0.04 c -0.57,-0.41 -1.17,-0.75 -1.84,-1 -0.33,-0.11 -0.67,-0.2 -1.03,-0.26 -1.42,-0.25 -3.66,-0.37 -6.74,-0.37 h -2.91 v 37.59 h -30.64 v -27.09 c -0.61,2.93 -1.42,5.63 -2.36,8.04 -2.89,7.29 -7.95,12.55 -15.09,15.82 -7.17,3.26 -17.3,4.9 -30.4,4.9 -13.1,0 -24.1,-1.64 -31.57,-4.9 -7.47,-3.27 -12.67,-8.53 -15.64,-15.82 -2.97,-7.28 -4.44,-17 -4.44,-29.1 V 126.6 H 83.9 l 0.08,-13.48 -0.07,13.44 v 68.53 c 0,6.3 0.61,11.22 1.85,14.83 1.24,3.56 3.45,6.07 6.66,7.49 3.23,1.42 7.7,2.12 13.51,2.12 5.45,0 9.63,-0.7 12.53,-2.12 2.89,-1.42 4.89,-3.93 6.02,-7.49 1.08,-3.61 1.66,-8.53 1.66,-14.83 v -35.53 c 0,-18.23 14.77,-33 33.01,-33 h 35.15 c 0,0 -0.1,-0.01 -0.15,-0.01 36.07,-2.69 51.84,-39.56 56.55,-41.01 5.02,-1.57 14.1,2.39 14.1,2.39 l 1.93,-2.54 c 1.73,-2.3 5.3,-1.73 6.23,1 l 3.6,10.43 c 0,0 7.63,3 11.38,11.25 3.75,8.26 2.51,14.31 2.51,14.31 z"
           id="path234" />
      </g>
      <g
         id="g282">
        <path
           class="cls-1"
           d="m 215.55,234.31 6.38,9.48 h 0.03 c 0,0 -6.41,-9.48 -6.41,-9.48 z m 9.92,-30.54 v 0.03 c 0.37,0.24 0.75,0.49 1.13,0.75 -0.38,-0.29 -0.76,-0.55 -1.13,-0.78 z"
           id="path238" />
        <path
           class="cls-1"
           d="m 236.36,214.51 c -0.24,-0.31 -0.49,-0.61 -0.73,-0.91 -0.46,-0.57 -0.91,-1.12 -1.36,-1.66 0.45,0.54 0.94,1.09 1.39,1.66 0.24,0.3 0.48,0.61 0.7,0.91 z"
           id="path240" />
        <path
           class="cls-1"
           d="m 245.35,189.42 c -0.19,0.34 -0.39,0.64 -0.62,0.95 -0.45,0.64 -0.9,1.24 -1.42,1.85 0.49,-0.61 0.94,-1.25 1.39,-1.87 0.23,-0.32 0.46,-0.63 0.65,-0.93 z"
           id="path242" />
        <path
           class="cls-1"
           d="m 251.87,168.81 c -0.03,0.63 -0.09,1.29 -0.18,1.89 0.03,-0.32 0.05,-0.64 0.07,-0.96 0.02,-0.32 0.04,-0.64 0.05,-0.96 h 0.01 z"
           id="path244" />
        <g
           id="g252">
          <path
             class="cls-1"
             d="m 251.81,168.78 c -0.01,0.32 -0.03,0.64 -0.05,0.96 0.02,-0.32 0.04,-0.64 0.06,-0.96 z m -1.12,-15.48 c -0.38,-1.77 -0.86,-3.45 -1.45,-5.04 0.53,1.95 1.02,3.65 1.45,5.04 z M 54.3,112.91 54.28,126.6 H 83.9 l 0.08,-13.48 v -0.24 H 54.3 Z"
             id="path246" />
          <path
             class="cls-1"
             d="m 251.81,168.78 c -0.01,0.32 -0.03,0.64 -0.05,0.96 0.02,-0.32 0.04,-0.64 0.06,-0.96 z m -1.12,-15.48 c -0.38,-1.77 -0.86,-3.45 -1.45,-5.04 0.53,1.95 1.02,3.65 1.45,5.04 z M 54.3,112.91 54.28,126.6 H 83.9 l 0.08,-13.48 v -0.24 H 54.3 Z"
             id="path248" />
          <path
             class="cls-1"
             d="m 251.81,168.78 c -0.01,0.32 -0.03,0.64 -0.05,0.96 0.02,-0.32 0.04,-0.64 0.06,-0.96 z m -1.12,-15.48 c -0.38,-1.77 -0.86,-3.45 -1.45,-5.04 0.53,1.95 1.02,3.65 1.45,5.04 z M 54.3,112.91 54.28,126.6 H 83.9 l 0.08,-13.48 v -0.24 H 54.3 Z"
             id="path250" />
        </g>
        <g
           id="g278">
          <g
             id="g260">
            <path
               class="cls-1"
               d="m 263.61,117.49 c -0.5,5.68 -14.73,9.37 -12.73,-2.4 2,-11.77 3.51,-13.27 3.51,-13.27 0,0 9.78,9.42 9.22,15.67 z"
               id="path254" />
            <circle
               class="cls-1"
               cx="276.54999"
               cy="132.89"
               r="8.8900003"
               id="circle256" />
            <path
               class="cls-1"
               d="m 293.23,143.25 6.31,10.8 c 0.86,1.47 0.16,3.37 -1.46,3.92 l -7.65,2.61 c -0.64,0.22 -1.33,0.19 -1.95,-0.08 l -18.02,-7.85 c -1.91,-0.83 -2.2,-3.42 -0.52,-4.65 v 0 c 0.53,-0.39 1.19,-0.57 1.85,-0.51 l 8.59,0.81 c 0.67,0.06 1.34,-0.13 1.88,-0.53 l 7.01,-5.3 c 1.29,-0.98 3.14,-0.61 3.96,0.79 z"
               id="path258" />
          </g>
          <g
             id="g268">
            <path
               class="cls-1"
               d="m 263.61,117.49 c -0.5,5.68 -14.73,9.37 -12.73,-2.4 2,-11.77 3.51,-13.27 3.51,-13.27 0,0 9.78,9.42 9.22,15.67 z"
               id="path262" />
            <circle
               class="cls-1"
               cx="276.54999"
               cy="132.89"
               r="8.8900003"
               id="circle264" />
            <path
               class="cls-1"
               d="m 293.23,143.25 6.31,10.8 c 0.86,1.47 0.16,3.37 -1.46,3.92 l -7.65,2.61 c -0.64,0.22 -1.33,0.19 -1.95,-0.08 l -18.02,-7.85 c -1.91,-0.83 -2.2,-3.42 -0.52,-4.65 v 0 c 0.53,-0.39 1.19,-0.57 1.85,-0.51 l 8.59,0.81 c 0.67,0.06 1.34,-0.13 1.88,-0.53 l 7.01,-5.3 c 1.29,-0.98 3.14,-0.61 3.96,0.79 z"
               id="path266" />
          </g>
          <g
             id="g276">
            <path
               class="cls-1"
               d="m 263.61,117.49 c -0.5,5.68 -14.73,9.37 -12.73,-2.4 2,-11.77 3.51,-13.27 3.51,-13.27 0,0 9.78,9.42 9.22,15.67 z"
               id="path270" />
            <circle
               class="cls-1"
               cx="276.54999"
               cy="132.89"
               r="8.8900003"
               id="circle272" />
            <path
               class="cls-1"
               d="m 293.23,143.25 6.31,10.8 c 0.86,1.47 0.16,3.37 -1.46,3.92 l -7.65,2.61 c -0.64,0.22 -1.33,0.19 -1.95,-0.08 l -18.02,-7.85 c -1.91,-0.83 -2.2,-3.42 -0.52,-4.65 v 0 c 0.53,-0.39 1.19,-0.57 1.85,-0.51 l 8.59,0.81 c 0.67,0.06 1.34,-0.13 1.88,-0.53 l 7.01,-5.3 c 1.29,-0.98 3.14,-0.61 3.96,0.79 z"
               id="path274" />
          </g>
        </g>
        <path
           class="cls-1"
           d="m 290.45,122.38 c 0,0 -4.75,-6.53 -9.53,-6.78 -4.54,-0.27 -11.28,3.94 -11.89,4.3 0.31,-0.49 3.78,-6.38 -0.03,-15.34 -4.02,-9.34 -12.01,-29.21 -24.28,-2.75 -4.14,8.94 0.95,33.19 4.52,46.45 0.53,1.95 1.02,3.65 1.45,5.04 v 0 c 0.83,3.73 1.24,7.84 1.24,12.33 0,1.05 -0.03,2.12 -0.11,3.15 h -0.01 c -0.01,0.32 -0.03,0.64 -0.05,0.96 -0.02,0.32 -0.04,0.64 -0.07,0.96 v 0.02 c -0.03,0.62 -0.12,1.23 -0.21,1.87 -0.04,0.54 -0.13,1.09 -0.25,1.6 -0.09,0.42 -0.15,0.85 -0.24,1.27 -0.06,0.45 -0.15,0.9 -0.3,1.36 -0.09,0.52 -0.21,1 -0.36,1.49 -0.09,0.47 -0.25,0.93 -0.4,1.41 -0.02,0.1 -0.02,0.15 -0.09,0.25 -0.08,0.3 -0.21,0.6 -0.3,0.9 0,0.1 -0.03,0.19 -0.08,0.27 -0.19,0.62 -0.43,1.19 -0.68,1.76 -0.02,0.09 -0.06,0.22 -0.11,0.3 -0.25,0.58 -0.49,1.15 -0.79,1.73 -0.03,0.12 -0.1,0.21 -0.15,0.32 -0.1,0.19 -0.18,0.4 -0.31,0.59 -0.02,0.11 -0.09,0.21 -0.15,0.32 -0.24,0.49 -0.51,0.98 -0.79,1.43 -0.02,0.06 -0.06,0.12 -0.11,0.21 -0.21,0.36 -0.42,0.7 -0.67,1.06 -0.05,0.18 -0.18,0.33 -0.3,0.49 -0.02,0.02 -0.03,0.05 -0.05,0.07 -0.19,0.3 -0.42,0.61 -0.65,0.93 -0.45,0.62 -0.9,1.26 -1.39,1.87 -0.48,0.57 -0.97,1.15 -1.48,1.72 -0.22,0.28 -0.48,0.54 -0.75,0.82 -0.25,0.23 -0.53,0.51 -0.79,0.76 -0.04,0.05 -0.06,0.09 -0.1,0.09 -0.51,0.51 -0.99,0.96 -1.54,1.38 -0.61,0.49 -1.21,0.98 -1.84,1.4 -0.24,0.18 -0.49,0.33 -0.73,0.51 -0.72,0.45 -1.45,0.9 -2.21,1.3 -0.81,0.45 -1.69,0.88 -2.6,1.24 -0.66,0.31 -1.33,0.55 -2.02,0.78 -0.12,0.04 -0.27,0.1 -0.4,0.13 -0.27,0.09 -0.51,0.15 -0.79,0.24 -0.06,0.03 -0.11,0.06 -0.17,0.06 -0.73,0.21 -1.49,0.42 -2.25,0.57 l -0.17,0.55 v 0.03 c 0.37,0.24 0.75,0.49 1.13,0.75 0.01,0.01 0.03,0.02 0.04,0.03 0.4,0.32 0.79,0.62 1.19,0.94 0.42,0.34 0.81,0.67 1.23,1.04 1.67,1.47 3.39,3.26 5.21,5.38 0.45,0.54 0.9,1.09 1.36,1.66 0.24,0.3 0.49,0.6 0.73,0.91 1.38,1.72 2.78,3.47 4.14,5.32 0.66,0.9 1.36,1.85 2.05,2.81 1.4,1.88 2.76,3.85 4.12,5.87 1.6,2.36 3.11,4.66 4.53,6.87 0.64,0.94 1.24,1.87 1.82,2.81 0.61,0.94 1.18,1.85 1.72,2.75 0.55,0.91 1.1,1.78 1.64,2.67 v 0.17 h -34.42 l -6.41,-9.47 -1.18,-1.74 -12.43,-18.39 c -1.73,-2.6 -3.12,-4.45 -4.15,-5.57 -0.27,-0.28 -0.55,-0.54 -0.82,-0.75 q 0,0 -0.03,-0.04 c -0.57,-0.41 -1.17,-0.75 -1.84,-1 -0.33,-0.11 -0.67,-0.2 -1.03,-0.26 -1.42,-0.25 -3.66,-0.37 -6.74,-0.37 h -2.91 v 37.59 h -30.64 v -27.09 c -0.61,2.93 -1.42,5.63 -2.36,8.04 -2.89,7.29 -7.95,12.55 -15.09,15.82 -7.17,3.26 -17.3,4.9 -30.4,4.9 -13.1,0 -24.1,-1.64 -31.57,-4.9 -7.47,-3.27 -12.67,-8.53 -15.64,-15.82 -2.97,-7.28 -4.44,-17 -4.44,-29.1 V 126.6 H 83.9 l 0.08,-13.48 -0.07,13.44 v 68.53 c 0,6.3 0.61,11.22 1.85,14.83 1.24,3.56 3.45,6.07 6.66,7.49 3.23,1.42 7.7,2.12 13.51,2.12 5.45,0 9.63,-0.7 12.53,-2.12 2.89,-1.42 4.89,-3.93 6.02,-7.49 1.08,-3.61 1.66,-8.53 1.66,-14.83 v -35.53 c 0,-18.23 14.77,-33 33.01,-33 h 35.15 c 0,0 -0.1,-0.01 -0.15,-0.01 36.07,-2.69 51.84,-39.56 56.55,-41.01 5.02,-1.57 14.1,2.39 14.1,2.39 l 1.93,-2.54 c 1.73,-2.3 5.3,-1.73 6.23,1 l 3.6,10.43 c 0,0 7.63,3 11.38,11.25 3.75,8.26 2.51,14.31 2.51,14.31 z"
           id="path280" />
      </g>
      <g
         id="g328">
        <path
           class="cls-1"
           d="m 215.55,234.31 6.38,9.48 h 0.03 c 0,0 -6.41,-9.48 -6.41,-9.48 z m 9.92,-30.54 v 0.03 c 0.37,0.24 0.75,0.49 1.13,0.75 -0.38,-0.29 -0.76,-0.55 -1.13,-0.78 z"
           id="path284" />
        <path
           class="cls-1"
           d="m 236.36,214.51 c -0.24,-0.31 -0.49,-0.61 -0.73,-0.91 -0.46,-0.57 -0.91,-1.12 -1.36,-1.66 0.45,0.54 0.94,1.09 1.39,1.66 0.24,0.3 0.48,0.61 0.7,0.91 z"
           id="path286" />
        <path
           class="cls-1"
           d="m 245.35,189.42 c -0.19,0.34 -0.39,0.64 -0.62,0.95 -0.45,0.64 -0.9,1.24 -1.42,1.85 0.49,-0.61 0.94,-1.25 1.39,-1.87 0.23,-0.32 0.46,-0.63 0.65,-0.93 z"
           id="path288" />
        <path
           class="cls-1"
           d="m 251.87,168.81 c -0.03,0.63 -0.09,1.29 -0.18,1.89 0.03,-0.32 0.05,-0.64 0.07,-0.96 0.02,-0.32 0.04,-0.64 0.05,-0.96 h 0.01 z"
           id="path290" />
        <g
           id="g298">
          <path
             class="cls-1"
             d="m 251.81,168.78 c -0.01,0.32 -0.03,0.64 -0.05,0.96 0.02,-0.32 0.04,-0.64 0.06,-0.96 z m -1.12,-15.48 c -0.38,-1.77 -0.86,-3.45 -1.45,-5.04 0.53,1.95 1.02,3.65 1.45,5.04 z M 54.3,112.91 54.28,126.6 H 83.9 l 0.08,-13.48 v -0.24 H 54.3 Z"
             id="path292" />
          <path
             class="cls-1"
             d="m 251.81,168.78 c -0.01,0.32 -0.03,0.64 -0.05,0.96 0.02,-0.32 0.04,-0.64 0.06,-0.96 z m -1.12,-15.48 c -0.38,-1.77 -0.86,-3.45 -1.45,-5.04 0.53,1.95 1.02,3.65 1.45,5.04 z M 54.3,112.91 54.28,126.6 H 83.9 l 0.08,-13.48 v -0.24 H 54.3 Z"
             id="path294" />
          <path
             class="cls-1"
             d="m 251.81,168.78 c -0.01,0.32 -0.03,0.64 -0.05,0.96 0.02,-0.32 0.04,-0.64 0.06,-0.96 z m -1.12,-15.48 c -0.38,-1.77 -0.86,-3.45 -1.45,-5.04 0.53,1.95 1.02,3.65 1.45,5.04 z M 54.3,112.91 54.28,126.6 H 83.9 l 0.08,-13.48 v -0.24 H 54.3 Z"
             id="path296" />
        </g>
        <g
           id="g324">
          <g
             id="g306">
            <path
               class="cls-1"
               d="m 263.61,117.49 c -0.5,5.68 -14.73,9.37 -12.73,-2.4 2,-11.77 3.51,-13.27 3.51,-13.27 0,0 9.78,9.42 9.22,15.67 z"
               id="path300" />
            <circle
               class="cls-1"
               cx="276.54999"
               cy="132.89"
               r="8.8900003"
               id="circle302" />
            <path
               class="cls-1"
               d="m 293.23,143.25 6.31,10.8 c 0.86,1.47 0.16,3.37 -1.46,3.92 l -7.65,2.61 c -0.64,0.22 -1.33,0.19 -1.95,-0.08 l -18.02,-7.85 c -1.91,-0.83 -2.2,-3.42 -0.52,-4.65 v 0 c 0.53,-0.39 1.19,-0.57 1.85,-0.51 l 8.59,0.81 c 0.67,0.06 1.34,-0.13 1.88,-0.53 l 7.01,-5.3 c 1.29,-0.98 3.14,-0.61 3.96,0.79 z"
               id="path304" />
          </g>
          <g
             id="g314">
            <path
               class="cls-1"
               d="m 263.61,117.49 c -0.5,5.68 -14.73,9.37 -12.73,-2.4 2,-11.77 3.51,-13.27 3.51,-13.27 0,0 9.78,9.42 9.22,15.67 z"
               id="path308" />
            <circle
               class="cls-1"
               cx="276.54999"
               cy="132.89"
               r="8.8900003"
               id="circle310" />
            <path
               class="cls-1"
               d="m 293.23,143.25 6.31,10.8 c 0.86,1.47 0.16,3.37 -1.46,3.92 l -7.65,2.61 c -0.64,0.22 -1.33,0.19 -1.95,-0.08 l -18.02,-7.85 c -1.91,-0.83 -2.2,-3.42 -0.52,-4.65 v 0 c 0.53,-0.39 1.19,-0.57 1.85,-0.51 l 8.59,0.81 c 0.67,0.06 1.34,-0.13 1.88,-0.53 l 7.01,-5.3 c 1.29,-0.98 3.14,-0.61 3.96,0.79 z"
               id="path312" />
          </g>
          <g
             id="g322">
            <path
               class="cls-1"
               d="m 263.61,117.49 c -0.5,5.68 -14.73,9.37 -12.73,-2.4 2,-11.77 3.51,-13.27 3.51,-13.27 0,0 9.78,9.42 9.22,15.67 z"
               id="path316" />
            <circle
               class="cls-1"
               cx="276.54999"
               cy="132.89"
               r="8.8900003"
               id="circle318" />
            <path
               class="cls-1"
               d="m 293.23,143.25 6.31,10.8 c 0.86,1.47 0.16,3.37 -1.46,3.92 l -7.65,2.61 c -0.64,0.22 -1.33,0.19 -1.95,-0.08 l -18.02,-7.85 c -1.91,-0.83 -2.2,-3.42 -0.52,-4.65 v 0 c 0.53,-0.39 1.19,-0.57 1.85,-0.51 l 8.59,0.81 c 0.67,0.06 1.34,-0.13 1.88,-0.53 l 7.01,-5.3 c 1.29,-0.98 3.14,-0.61 3.96,0.79 z"
               id="path320" />
          </g>
        </g>
        <path
           class="cls-1"
           d="m 290.45,122.38 c 0,0 -4.75,-6.53 -9.53,-6.78 -4.54,-0.27 -11.28,3.94 -11.89,4.3 0.31,-0.49 3.78,-6.38 -0.03,-15.34 -4.02,-9.34 -12.01,-29.21 -24.28,-2.75 -4.14,8.94 0.95,33.19 4.52,46.45 0.53,1.95 1.02,3.65 1.45,5.04 v 0 c 0.83,3.73 1.24,7.84 1.24,12.33 0,1.05 -0.03,2.12 -0.11,3.15 h -0.01 c -0.01,0.32 -0.03,0.64 -0.05,0.96 -0.02,0.32 -0.04,0.64 -0.07,0.96 v 0.02 c -0.03,0.62 -0.12,1.23 -0.21,1.87 -0.04,0.54 -0.13,1.09 -0.25,1.6 -0.09,0.42 -0.15,0.85 -0.24,1.27 -0.06,0.45 -0.15,0.9 -0.3,1.36 -0.09,0.52 -0.21,1 -0.36,1.49 -0.09,0.47 -0.25,0.93 -0.4,1.41 -0.02,0.1 -0.02,0.15 -0.09,0.25 -0.08,0.3 -0.21,0.6 -0.3,0.9 0,0.1 -0.03,0.19 -0.08,0.27 -0.19,0.62 -0.43,1.19 -0.68,1.76 -0.02,0.09 -0.06,0.22 -0.11,0.3 -0.25,0.58 -0.49,1.15 -0.79,1.73 -0.03,0.12 -0.1,0.21 -0.15,0.32 -0.1,0.19 -0.18,0.4 -0.31,0.59 -0.02,0.11 -0.09,0.21 -0.15,0.32 -0.24,0.49 -0.51,0.98 -0.79,1.43 -0.02,0.06 -0.06,0.12 -0.11,0.21 -0.21,0.36 -0.42,0.7 -0.67,1.06 -0.05,0.18 -0.18,0.33 -0.3,0.49 -0.02,0.02 -0.03,0.05 -0.05,0.07 -0.19,0.3 -0.42,0.61 -0.65,0.93 -0.45,0.62 -0.9,1.26 -1.39,1.87 -0.48,0.57 -0.97,1.15 -1.48,1.72 -0.22,0.28 -0.48,0.54 -0.75,0.82 -0.25,0.23 -0.53,0.51 -0.79,0.76 -0.04,0.05 -0.06,0.09 -0.1,0.09 -0.51,0.51 -0.99,0.96 -1.54,1.38 -0.61,0.49 -1.21,0.98 -1.84,1.4 -0.24,0.18 -0.49,0.33 -0.73,0.51 -0.72,0.45 -1.45,0.9 -2.21,1.3 -0.81,0.45 -1.69,0.88 -2.6,1.24 -0.66,0.31 -1.33,0.55 -2.02,0.78 -0.12,0.04 -0.27,0.1 -0.4,0.13 -0.27,0.09 -0.51,0.15 -0.79,0.24 -0.06,0.03 -0.11,0.06 -0.17,0.06 -0.73,0.21 -1.49,0.42 -2.25,0.57 l -0.17,0.55 v 0.03 c 0.37,0.24 0.75,0.49 1.13,0.75 0.01,0.01 0.03,0.02 0.04,0.03 0.4,0.32 0.79,0.62 1.19,0.94 0.42,0.34 0.81,0.67 1.23,1.04 1.67,1.47 3.39,3.26 5.21,5.38 0.45,0.54 0.9,1.09 1.36,1.66 0.24,0.3 0.49,0.6 0.73,0.91 1.38,1.72 2.78,3.47 4.14,5.32 0.66,0.9 1.36,1.85 2.05,2.81 1.4,1.88 2.76,3.85 4.12,5.87 1.6,2.36 3.11,4.66 4.53,6.87 0.64,0.94 1.24,1.87 1.82,2.81 0.61,0.94 1.18,1.85 1.72,2.75 0.55,0.91 1.1,1.78 1.64,2.67 v 0.17 h -34.42 l -6.41,-9.47 -1.18,-1.74 -12.43,-18.39 c -1.73,-2.6 -3.12,-4.45 -4.15,-5.57 -0.27,-0.28 -0.55,-0.54 -0.82,-0.75 q 0,0 -0.03,-0.04 c -0.57,-0.41 -1.17,-0.75 -1.84,-1 -0.33,-0.11 -0.67,-0.2 -1.03,-0.26 -1.42,-0.25 -3.66,-0.37 -6.74,-0.37 h -2.91 v 37.59 h -30.64 v -27.09 c -0.61,2.93 -1.42,5.63 -2.36,8.04 -2.89,7.29 -7.95,12.55 -15.09,15.82 -7.17,3.26 -17.3,4.9 -30.4,4.9 -13.1,0 -24.1,-1.64 -31.57,-4.9 -7.47,-3.27 -12.67,-8.53 -15.64,-15.82 -2.97,-7.28 -4.44,-17 -4.44,-29.1 V 126.6 H 83.9 l 0.08,-13.48 -0.07,13.44 v 68.53 c 0,6.3 0.61,11.22 1.85,14.83 1.24,3.56 3.45,6.07 6.66,7.49 3.23,1.42 7.7,2.12 13.51,2.12 5.45,0 9.63,-0.7 12.53,-2.12 2.89,-1.42 4.89,-3.93 6.02,-7.49 1.08,-3.61 1.66,-8.53 1.66,-14.83 v -35.53 c 0,-18.23 14.77,-33 33.01,-33 h 35.15 c 0,0 -0.1,-0.01 -0.15,-0.01 36.07,-2.69 51.84,-39.56 56.55,-41.01 5.02,-1.57 14.1,2.39 14.1,2.39 l 1.93,-2.54 c 1.73,-2.3 5.3,-1.73 6.23,1 l 3.6,10.43 c 0,0 7.63,3 11.38,11.25 3.75,8.26 2.51,14.31 2.51,14.31 z"
           id="path326" />
      </g>
    </g>
    <g
       id="g504">
      <g
         id="g500">
        <g
           id="g386">
          <g
             id="g348">
            <rect
               class="cls-1"
               y="55.080002"
               width="29.950001"
               height="17.379999"
               id="rect332"
               x="0" />
            <path
               class="cls-1"
               d="m 3.77,24.52 26.37,15.24 c -0.13,0.7 -0.19,1.4 -0.19,2.14 v 1.65 H 0 V 41.9 C 0,35.71 1.34,29.82 3.77,24.52 Z"
               id="path334" />
            <path
               class="cls-1"
               d="M 37.16,0 V 31.12 L 9.6,15.19 C 16.43,7.09 26.15,1.48 37.16,0 Z"
               id="path336" />
            <path
               class="cls-1"
               d="M 75.31,15.88 48.94,31.12 V 0.67 c 10.53,1.42 19.82,7.48 26.37,15.21 z"
               id="path338" />
            <polygon
               class="cls-1"
               points="83.9,126.6 54.28,126.6 54.3,112.91 83.98,112.91 83.98,113.12 "
               id="polygon340" />
            <polygon
               class="cls-1"
               points="84.03,101.36 54.31,101.36 54.33,84 84.13,84 "
               id="polygon342" />
            <polygon
               class="cls-1"
               points="54.35,72.45 54.37,55.08 84.26,55.08 84.18,72.45 "
               id="polygon344" />
            <path
               class="cls-1"
               d="m 84.34,41.9 v 1.65 H 54.39 V 41.9 c 0,-0.8 -0.08,-1.57 -0.23,-2.31 l 26.35,-15.2 c 2.46,5.34 3.82,11.26 3.82,17.51 z"
               id="path346" />
          </g>
          <g
             id="g366">
            <rect
               class="cls-1"
               y="55.080002"
               width="29.950001"
               height="17.379999"
               id="rect350"
               x="0" />
            <path
               class="cls-1"
               d="m 3.77,24.52 26.37,15.24 c -0.13,0.7 -0.19,1.4 -0.19,2.14 v 1.65 H 0 V 41.9 C 0,35.71 1.34,29.82 3.77,24.52 Z"
               id="path352" />
            <path
               class="cls-1"
               d="M 37.16,0 V 31.12 L 9.6,15.19 C 16.43,7.09 26.15,1.48 37.16,0 Z"
               id="path354" />
            <path
               class="cls-1"
               d="M 75.31,15.88 48.94,31.12 V 0.67 c 10.53,1.42 19.82,7.48 26.37,15.21 z"
               id="path356" />
            <polygon
               class="cls-1"
               points="83.9,126.6 54.28,126.6 54.3,112.91 83.98,112.91 83.98,113.12 "
               id="polygon358" />
            <polygon
               class="cls-1"
               points="84.03,101.36 54.31,101.36 54.33,84 84.13,84 "
               id="polygon360" />
            <polygon
               class="cls-1"
               points="54.35,72.45 54.37,55.08 84.26,55.08 84.18,72.45 "
               id="polygon362" />
            <path
               class="cls-1"
               d="m 84.34,41.9 v 1.65 H 54.39 V 41.9 c 0,-0.8 -0.08,-1.57 -0.23,-2.31 l 26.35,-15.2 c 2.46,5.34 3.82,11.26 3.82,17.51 z"
               id="path364" />
          </g>
          <g
             id="g384">
            <rect
               class="cls-1"
               y="55.080002"
               width="29.950001"
               height="17.379999"
               id="rect368"
               x="0" />
            <path
               class="cls-1"
               d="m 3.77,24.52 26.37,15.24 c -0.13,0.7 -0.19,1.4 -0.19,2.14 v 1.65 H 0 V 41.9 C 0,35.71 1.34,29.82 3.77,24.52 Z"
               id="path370" />
            <path
               class="cls-1"
               d="M 37.16,0 V 31.12 L 9.6,15.19 C 16.43,7.09 26.15,1.48 37.16,0 Z"
               id="path372" />
            <path
               class="cls-1"
               d="M 75.31,15.88 48.94,31.12 V 0.67 c 10.53,1.42 19.82,7.48 26.37,15.21 z"
               id="path374" />
            <polygon
               class="cls-1"
               points="83.9,126.6 54.28,126.6 54.3,112.91 83.98,112.91 83.98,113.12 "
               id="polygon376" />
            <polygon
               class="cls-1"
               points="84.03,101.36 54.31,101.36 54.33,84 84.13,84 "
               id="polygon378" />
            <polygon
               class="cls-1"
               points="54.35,72.45 54.37,55.08 84.26,55.08 84.18,72.45 "
               id="polygon380" />
            <path
               class="cls-1"
               d="m 84.34,41.9 v 1.65 H 54.39 V 41.9 c 0,-0.8 -0.08,-1.57 -0.23,-2.31 l 26.35,-15.2 c 2.46,5.34 3.82,11.26 3.82,17.51 z"
               id="path382" />
          </g>
        </g>
        <g
           id="g442">
          <g
             id="g404">
            <rect
               class="cls-1"
               y="55.080002"
               width="29.950001"
               height="17.379999"
               id="rect388"
               x="0" />
            <path
               class="cls-1"
               d="m 3.77,24.52 26.37,15.24 c -0.13,0.7 -0.19,1.4 -0.19,2.14 v 1.65 H 0 V 41.9 C 0,35.71 1.34,29.82 3.77,24.52 Z"
               id="path390" />
            <path
               class="cls-1"
               d="M 37.16,0 V 31.12 L 9.6,15.19 C 16.43,7.09 26.15,1.48 37.16,0 Z"
               id="path392" />
            <path
               class="cls-1"
               d="M 75.31,15.88 48.94,31.12 V 0.67 c 10.53,1.42 19.82,7.48 26.37,15.21 z"
               id="path394" />
            <polygon
               class="cls-1"
               points="83.9,126.6 54.28,126.6 54.3,112.91 83.98,112.91 83.98,113.12 "
               id="polygon396" />
            <polygon
               class="cls-1"
               points="84.03,101.36 54.31,101.36 54.33,84 84.13,84 "
               id="polygon398" />
            <polygon
               class="cls-1"
               points="54.35,72.45 54.37,55.08 84.26,55.08 84.18,72.45 "
               id="polygon400" />
            <path
               class="cls-1"
               d="m 84.34,41.9 v 1.65 H 54.39 V 41.9 c 0,-0.8 -0.08,-1.57 -0.23,-2.31 l 26.35,-15.2 c 2.46,5.34 3.82,11.26 3.82,17.51 z"
               id="path402" />
          </g>
          <g
             id="g422">
            <rect
               class="cls-1"
               y="55.080002"
               width="29.950001"
               height="17.379999"
               id="rect406"
               x="0" />
            <path
               class="cls-1"
               d="m 3.77,24.52 26.37,15.24 c -0.13,0.7 -0.19,1.4 -0.19,2.14 v 1.65 H 0 V 41.9 C 0,35.71 1.34,29.82 3.77,24.52 Z"
               id="path408" />
            <path
               class="cls-1"
               d="M 37.16,0 V 31.12 L 9.6,15.19 C 16.43,7.09 26.15,1.48 37.16,0 Z"
               id="path410" />
            <path
               class="cls-1"
               d="M 75.31,15.88 48.94,31.12 V 0.67 c 10.53,1.42 19.82,7.48 26.37,15.21 z"
               id="path412" />
            <polygon
               class="cls-1"
               points="83.9,126.6 54.28,126.6 54.3,112.91 83.98,112.91 83.98,113.12 "
               id="polygon414" />
            <polygon
               class="cls-1"
               points="84.03,101.36 54.31,101.36 54.33,84 84.13,84 "
               id="polygon416" />
            <polygon
               class="cls-1"
               points="54.35,72.45 54.37,55.08 84.26,55.08 84.18,72.45 "
               id="polygon418" />
            <path
               class="cls-1"
               d="m 84.34,41.9 v 1.65 H 54.39 V 41.9 c 0,-0.8 -0.08,-1.57 -0.23,-2.31 l 26.35,-15.2 c 2.46,5.34 3.82,11.26 3.82,17.51 z"
               id="path420" />
          </g>
          <g
             id="g440">
            <rect
               class="cls-1"
               y="55.080002"
               width="29.950001"
               height="17.379999"
               id="rect424"
               x="0" />
            <path
               class="cls-1"
               d="m 3.77,24.52 26.37,15.24 c -0.13,0.7 -0.19,1.4 -0.19,2.14 v 1.65 H 0 V 41.9 C 0,35.71 1.34,29.82 3.77,24.52 Z"
               id="path426" />
            <path
               class="cls-1"
               d="M 37.16,0 V 31.12 L 9.6,15.19 C 16.43,7.09 26.15,1.48 37.16,0 Z"
               id="path428" />
            <path
               class="cls-1"
               d="M 75.31,15.88 48.94,31.12 V 0.67 c 10.53,1.42 19.82,7.48 26.37,15.21 z"
               id="path430" />
            <polygon
               class="cls-1"
               points="83.9,126.6 54.28,126.6 54.3,112.91 83.98,112.91 83.98,113.12 "
               id="polygon432" />
            <polygon
               class="cls-1"
               points="84.03,101.36 54.31,101.36 54.33,84 84.13,84 "
               id="polygon434" />
            <polygon
               class="cls-1"
               points="54.35,72.45 54.37,55.08 84.26,55.08 84.18,72.45 "
               id="polygon436" />
            <path
               class="cls-1"
               d="m 84.34,41.9 v 1.65 H 54.39 V 41.9 c 0,-0.8 -0.08,-1.57 -0.23,-2.31 l 26.35,-15.2 c 2.46,5.34 3.82,11.26 3.82,17.51 z"
               id="path438" />
          </g>
        </g>
        <g
           id="g498">
          <g
             id="g460">
            <rect
               class="cls-1"
               y="55.080002"
               width="29.950001"
               height="17.379999"
               id="rect444"
               x="0" />
            <path
               class="cls-1"
               d="m 3.77,24.52 26.37,15.24 c -0.13,0.7 -0.19,1.4 -0.19,2.14 v 1.65 H 0 V 41.9 C 0,35.71 1.34,29.82 3.77,24.52 Z"
               id="path446" />
            <path
               class="cls-1"
               d="M 37.16,0 V 31.12 L 9.6,15.19 C 16.43,7.09 26.15,1.48 37.16,0 Z"
               id="path448" />
            <path
               class="cls-1"
               d="M 75.31,15.88 48.94,31.12 V 0.67 c 10.53,1.42 19.82,7.48 26.37,15.21 z"
               id="path450" />
            <polygon
               class="cls-1"
               points="83.9,126.6 54.28,126.6 54.3,112.91 83.98,112.91 83.98,113.12 "
               id="polygon452" />
            <polygon
               class="cls-1"
               points="84.03,101.36 54.31,101.36 54.33,84 84.13,84 "
               id="polygon454" />
            <polygon
               class="cls-1"
               points="54.35,72.45 54.37,55.08 84.26,55.08 84.18,72.45 "
               id="polygon456" />
            <path
               class="cls-1"
               d="m 84.34,41.9 v 1.65 H 54.39 V 41.9 c 0,-0.8 -0.08,-1.57 -0.23,-2.31 l 26.35,-15.2 c 2.46,5.34 3.82,11.26 3.82,17.51 z"
               id="path458" />
          </g>
          <g
             id="g478">
            <rect
               class="cls-1"
               y="55.080002"
               width="29.950001"
               height="17.379999"
               id="rect462"
               x="0" />
            <path
               class="cls-1"
               d="m 3.77,24.52 26.37,15.24 c -0.13,0.7 -0.19,1.4 -0.19,2.14 v 1.65 H 0 V 41.9 C 0,35.71 1.34,29.82 3.77,24.52 Z"
               id="path464" />
            <path
               class="cls-1"
               d="M 37.16,0 V 31.12 L 9.6,15.19 C 16.43,7.09 26.15,1.48 37.16,0 Z"
               id="path466" />
            <path
               class="cls-1"
               d="M 75.31,15.88 48.94,31.12 V 0.67 c 10.53,1.42 19.82,7.48 26.37,15.21 z"
               id="path468" />
            <polygon
               class="cls-1"
               points="83.9,126.6 54.28,126.6 54.3,112.91 83.98,112.91 83.98,113.12 "
               id="polygon470" />
            <polygon
               class="cls-1"
               points="84.03,101.36 54.31,101.36 54.33,84 84.13,84 "
               id="polygon472" />
            <polygon
               class="cls-1"
               points="54.35,72.45 54.37,55.08 84.26,55.08 84.18,72.45 "
               id="polygon474" />
            <path
               class="cls-1"
               d="m 84.34,41.9 v 1.65 H 54.39 V 41.9 c 0,-0.8 -0.08,-1.57 -0.23,-2.31 l 26.35,-15.2 c 2.46,5.34 3.82,11.26 3.82,17.51 z"
               id="path476" />
          </g>
          <g
             id="g496">
            <rect
               class="cls-1"
               y="55.080002"
               width="29.950001"
               height="17.379999"
               id="rect480"
               x="0" />
            <path
               class="cls-1"
               d="m 3.77,24.52 26.37,15.24 c -0.13,0.7 -0.19,1.4 -0.19,2.14 v 1.65 H 0 V 41.9 C 0,35.71 1.34,29.82 3.77,24.52 Z"
               id="path482" />
            <path
               class="cls-1"
               d="M 37.16,0 V 31.12 L 9.6,15.19 C 16.43,7.09 26.15,1.48 37.16,0 Z"
               id="path484" />
            <path
               class="cls-1"
               d="M 75.31,15.88 48.94,31.12 V 0.67 c 10.53,1.42 19.82,7.48 26.37,15.21 z"
               id="path486" />
            <polygon
               class="cls-1"
               points="83.9,126.6 54.28,126.6 54.3,112.91 83.98,112.91 83.98,113.12 "
               id="polygon488" />
            <polygon
               class="cls-1"
               points="84.03,101.36 54.31,101.36 54.33,84 84.13,84 "
               id="polygon490" />
            <polygon
               class="cls-1"
               points="54.35,72.45 54.37,55.08 84.26,55.08 84.18,72.45 "
               id="polygon492" />
            <path
               class="cls-1"
               d="m 84.34,41.9 v 1.65 H 54.39 V 41.9 c 0,-0.8 -0.08,-1.57 -0.23,-2.31 l 26.35,-15.2 c 2.46,5.34 3.82,11.26 3.82,17.51 z"
               id="path494" />
          </g>
        </g>
      </g>
      <circle
         class="cls-1"
         cx="42.580002"
         cy="41.650002"
         r="4"
         id="circle502" />
    </g>
  </g>
</svg>
