<?xml version="1.0" encoding="UTF-8" standalone="no"?>
<svg
   id="Capa_1"
   version="1.1"
   viewBox="0 0 302.54 101.64"
   sodipodi:docname="logo.svg"
   inkscape:version="1.2.1 (9c6d41e4, 2022-07-14)"
   xmlns:inkscape="http://www.inkscape.org/namespaces/inkscape"
   xmlns:sodipodi="http://sodipodi.sourceforge.net/DTD/sodipodi-0.dtd"
   xmlns="http://www.w3.org/2000/svg"
   xmlns:svg="http://www.w3.org/2000/svg">
  <sodipodi:namedview
     id="namedview257"
     pagecolor="#ffffff"
     bordercolor="#000000"
     borderopacity="0.25"
     inkscape:showpageshadow="2"
     inkscape:pageopacity="0.0"
     inkscape:pagecheckerboard="0"
     inkscape:deskcolor="#d1d1d1"
     showgrid="false"
     inkscape:zoom="2.3219205"
     inkscape:cx="130.49542"
     inkscape:cy="46.51322"
     inkscape:window-width="1367"
     inkscape:window-height="456"
     inkscape:window-x="0"
     inkscape:window-y="25"
     inkscape:window-maximized="0"
     inkscape:current-layer="Capa_1" />
  <!-- Generator: Adobe Illustrator 29.4.0, SVG Export Plug-In . SVG Version: 2.1.0 Build 152)  -->
  <defs
     id="defs4">
    <style
       id="style2">
      .st0 {
        fill: #420add;
      }

      .st1 {
        isolation: isolate;
      }
    </style>
  </defs>
  <polygon
     class="st0"
     points="1.36,71.81 1.36,6.69 17.81,6.69 17.81,57.83 49.18,57.83 49.18,71.81 "
     id="polygon6"
     transform="matrix(1.0203623,0,0,1.0829024,-0.88904867,11.628305)" />
  <g
     id="g18"
     transform="matrix(1.0203623,0,0,1.0829024,-0.88904867,11.628305)">
    <path
       class="st0"
       d="m 151.86,6.69 c -0.89,3.65 -1.88,7.46 -2.97,11.48 -1.09,4.02 -2.17,8.01 -3.19,11.98 -1.02,3.98 -1.93,7.73 -2.72,11.22 -0.79,3.49 -1.36,6.55 -1.7,9.16 h -0.2 c -0.35,-2.6 -0.94,-5.68 -1.76,-9.21 -0.82,-3.53 -1.76,-7.28 -2.82,-11.22 -1.06,-3.93 -2.12,-7.91 -3.19,-11.93 -1.06,-4.02 -2.07,-7.83 -3.02,-11.48 H 55.44 v 65.12 h 62.98 V 35.4 c 0,-1.85 -0.03,-3.9 -0.1,-6.13 -0.07,-2.22 -0.17,-4.35 -0.3,-6.37 -0.13,-2.03 -0.3,-3.66 -0.52,-4.89 l 0.42,-0.1 c 0.27,1.09 0.76,2.94 1.44,5.54 0.67,2.62 1.5,5.7 2.47,9.27 0.96,3.56 2.02,7.39 3.18,11.51 1.18,4.12 2.35,8.27 3.56,12.45 1.19,4.18 2.37,8.13 3.55,11.83 h 17.69 c 1.09,-3.7 2.25,-7.63 3.44,-11.78 1.21,-4.15 2.39,-8.28 3.55,-12.4 1.18,-4.1 2.25,-7.96 3.24,-11.56 0.99,-3.61 1.83,-6.7 2.52,-9.33 0.69,-2.6 1.18,-4.45 1.44,-5.54 l 0.4,0.1 c -0.13,1.23 -0.29,2.86 -0.45,4.89 -0.17,2.02 -0.3,4.15 -0.37,6.37 -0.07,2.23 -0.1,4.28 -0.1,6.13 V 71.8 h 15.54 V 6.69 h -27.17 v 0 z M 72.33,58.44 V 45.79 H 96.35 V 32.42 H 72.33 V 20.07 h 30.36 V 58.45 H 72.33 Z"
       id="path8" />
    <g
       id="g16">
      <path
         class="st0"
         d="m 296.57,70.23 c -0.3,-0.5 -0.62,-1.01 -0.96,-1.53 -0.32,-0.52 -0.66,-1.04 -1.01,-1.56 -0.79,-1.23 -1.63,-2.5 -2.52,-3.81 -0.76,-1.13 -1.51,-2.22 -2.29,-3.26 -0.39,-0.54 -0.77,-1.06 -1.14,-1.56 -0.76,-1.02 -1.53,-2 -2.3,-2.96 -0.13,-0.17 -0.27,-0.34 -0.4,-0.5 -0.25,-0.32 -0.5,-0.62 -0.76,-0.92 -1.01,-1.18 -1.97,-2.17 -2.89,-2.99 -0.24,-0.2 -0.45,-0.39 -0.69,-0.57 -0.22,-0.18 -0.44,-0.35 -0.66,-0.52 -0.22,-0.15 -0.44,-0.3 -0.66,-0.44 v -0.02 l 0.1,-0.3 c 0.42,-0.08 0.84,-0.2 1.24,-0.32 0.03,0 0.07,-0.02 0.1,-0.03 0.15,-0.05 0.29,-0.08 0.44,-0.13 0.07,-0.02 0.15,-0.05 0.22,-0.07 0.39,-0.13 0.76,-0.27 1.13,-0.44 0.5,-0.2 0.99,-0.44 1.44,-0.69 0.42,-0.22 0.82,-0.47 1.23,-0.72 0.13,-0.1 0.27,-0.18 0.4,-0.29 0.35,-0.24 0.69,-0.5 1.02,-0.77 0.3,-0.24 0.57,-0.49 0.86,-0.77 0.02,0 0.03,-0.02 0.05,-0.05 0.15,-0.13 0.3,-0.29 0.44,-0.42 0.15,-0.15 0.3,-0.3 0.42,-0.45 0.29,-0.32 0.55,-0.64 0.82,-0.96 0.27,-0.34 0.52,-0.69 0.77,-1.04 0.13,-0.18 0.27,-0.37 0.39,-0.55 0.07,-0.08 0.13,-0.17 0.17,-0.27 0.13,-0.2 0.25,-0.39 0.37,-0.59 0.03,-0.05 0.05,-0.08 0.07,-0.12 0.15,-0.25 0.3,-0.52 0.44,-0.79 0.03,-0.07 0.07,-0.12 0.08,-0.18 0.07,-0.1 0.12,-0.22 0.17,-0.32 0.03,-0.07 0.07,-0.12 0.08,-0.18 0.17,-0.32 0.3,-0.64 0.44,-0.96 0.03,-0.05 0.05,-0.12 0.07,-0.17 0.13,-0.32 0.27,-0.64 0.37,-0.97 0.03,-0.05 0.05,-0.1 0.05,-0.15 0.05,-0.17 0.12,-0.34 0.17,-0.5 0.03,-0.05 0.03,-0.08 0.05,-0.13 0.08,-0.27 0.17,-0.52 0.22,-0.79 0.08,-0.27 0.15,-0.54 0.2,-0.82 0.08,-0.25 0.13,-0.5 0.17,-0.76 0.05,-0.24 0.08,-0.47 0.13,-0.71 0.07,-0.29 0.12,-0.59 0.13,-0.89 0.05,-0.35 0.1,-0.69 0.12,-1.04 0.03,-0.35 0.05,-0.72 0.07,-1.08 0.05,-0.57 0.07,-1.16 0.07,-1.75 0,-7.14 -1.87,-12.53 -5.6,-16.21 -0.13,-0.13 -0.27,-0.25 -0.4,-0.37 -3.44,-3.14 -8.62,-4.82 -15.53,-5.09 -0.62,-0.02 -1.28,-0.03 -1.93,-0.03 h -31.35 c -8.33,0 -15.08,6.75 -15.08,15.08 v 22.99 c 0,3.49 -0.32,6.23 -0.92,8.23 -0.62,1.98 -1.73,3.38 -3.34,4.17 -1.61,0.79 -3.93,1.18 -6.96,1.18 -3.23,0 -5.71,-0.39 -7.51,-1.18 -1.78,-0.79 -3.01,-2.18 -3.7,-4.17 -0.69,-2 -1.02,-4.74 -1.02,-8.23 V 0 h -16.47 v 45.06 c 0,6.72 0.82,12.11 2.47,16.16 1.65,4.05 4.54,6.97 8.69,8.79 4.15,1.81 10,2.72 17.54,2.72 7.54,0 12.9,-0.91 16.89,-2.72 3.97,-1.81 6.77,-4.74 8.38,-8.79 0.52,-1.34 0.97,-2.84 1.31,-4.47 V 71.8 h 16.47 V 50.92 h 2.17 c 1.71,0 2.96,0.07 3.75,0.2 0.2,0.03 0.39,0.08 0.57,0.15 0.37,0.13 0.71,0.32 1.02,0.55 0.21,0.15 0.21,0.16 0.02,0.02 0.15,0.12 0.3,0.27 0.45,0.42 0.57,0.62 1.34,1.65 2.3,3.09 l 6.91,10.22 4.22,6.23 h 19.12 v -0.1 c -0.3,-0.49 -0.6,-0.97 -0.91,-1.48 v 0 z M 276.04,35.48 c -1.34,1.38 -3.73,2.07 -7.16,2.07 H 256.95 V 20.06 h 11.93 c 3.43,0 5.81,0.69 7.16,2.05 1.33,1.38 2,3.61 2,6.69 0,3.08 -0.67,5.33 -2,6.69 v 0 z"
         id="path10" />
      <path
         class="st0"
         d="m 296.57,70.23 c -0.3,-0.5 -0.62,-1.01 -0.96,-1.53 -0.32,-0.52 -0.66,-1.04 -1.01,-1.56 -0.79,-1.23 -1.63,-2.5 -2.52,-3.81 -0.76,-1.13 -1.51,-2.22 -2.29,-3.26 -0.39,-0.54 -0.77,-1.06 -1.14,-1.56 -0.76,-1.02 -1.53,-2 -2.3,-2.96 -0.13,-0.17 -0.27,-0.34 -0.4,-0.5 -0.25,-0.32 -0.5,-0.62 -0.76,-0.92 -1.01,-1.18 -1.97,-2.17 -2.89,-2.99 -0.24,-0.2 -0.45,-0.39 -0.69,-0.57 -0.22,-0.18 -0.44,-0.35 -0.66,-0.52 -0.22,-0.15 -0.44,-0.3 -0.66,-0.44 v -0.02 l 0.1,-0.3 c 0.42,-0.08 0.84,-0.2 1.24,-0.32 0.03,0 0.07,-0.02 0.1,-0.03 0.15,-0.05 0.29,-0.08 0.44,-0.13 0.07,-0.02 0.15,-0.05 0.22,-0.07 0.39,-0.13 0.76,-0.27 1.13,-0.44 0.5,-0.2 0.99,-0.44 1.44,-0.69 0.42,-0.22 0.82,-0.47 1.23,-0.72 0.13,-0.1 0.27,-0.18 0.4,-0.29 0.35,-0.24 0.69,-0.5 1.02,-0.77 0.3,-0.24 0.57,-0.49 0.86,-0.77 0.02,0 0.03,-0.02 0.05,-0.05 0.15,-0.13 0.3,-0.29 0.44,-0.42 0.15,-0.15 0.3,-0.3 0.42,-0.45 0.29,-0.32 0.55,-0.64 0.82,-0.96 0.27,-0.34 0.52,-0.69 0.77,-1.04 0.13,-0.18 0.27,-0.37 0.39,-0.55 0.07,-0.08 0.13,-0.17 0.17,-0.27 0.13,-0.2 0.25,-0.39 0.37,-0.59 0.03,-0.05 0.05,-0.08 0.07,-0.12 0.15,-0.25 0.3,-0.52 0.44,-0.79 0.03,-0.07 0.07,-0.12 0.08,-0.18 0.07,-0.1 0.12,-0.22 0.17,-0.32 0.03,-0.07 0.07,-0.12 0.08,-0.18 0.17,-0.32 0.3,-0.64 0.44,-0.96 0.03,-0.05 0.05,-0.12 0.07,-0.17 0.13,-0.32 0.27,-0.64 0.37,-0.97 0.03,-0.05 0.05,-0.1 0.05,-0.15 0.05,-0.17 0.12,-0.34 0.17,-0.5 0.03,-0.05 0.03,-0.08 0.05,-0.13 0.08,-0.27 0.17,-0.52 0.22,-0.79 0.08,-0.27 0.15,-0.54 0.2,-0.82 0.08,-0.25 0.13,-0.5 0.17,-0.76 0.05,-0.24 0.08,-0.47 0.13,-0.71 0.07,-0.29 0.12,-0.59 0.13,-0.89 0.05,-0.35 0.1,-0.69 0.12,-1.04 0.03,-0.35 0.05,-0.72 0.07,-1.08 0.05,-0.57 0.07,-1.16 0.07,-1.75 0,-7.14 -1.87,-12.53 -5.6,-16.21 -0.13,-0.13 -0.27,-0.25 -0.4,-0.37 -3.44,-3.14 -8.62,-4.82 -15.53,-5.09 -0.62,-0.02 -1.28,-0.03 -1.93,-0.03 h -31.35 c -8.33,0 -15.08,6.75 -15.08,15.08 v 22.99 c 0,3.49 -0.32,6.23 -0.92,8.23 -0.62,1.98 -1.73,3.38 -3.34,4.17 -1.61,0.79 -3.93,1.18 -6.96,1.18 -3.23,0 -5.71,-0.39 -7.51,-1.18 -1.78,-0.79 -3.01,-2.18 -3.7,-4.17 -0.69,-2 -1.02,-4.74 -1.02,-8.23 V 0 h -16.47 v 45.06 c 0,6.72 0.82,12.11 2.47,16.16 1.65,4.05 4.54,6.97 8.69,8.79 4.15,1.81 10,2.72 17.54,2.72 7.54,0 12.9,-0.91 16.89,-2.72 3.97,-1.81 6.77,-4.74 8.38,-8.79 0.52,-1.34 0.97,-2.84 1.31,-4.47 V 71.8 h 16.47 V 50.92 h 2.17 c 1.71,0 2.96,0.07 3.75,0.2 0.2,0.03 0.39,0.08 0.57,0.15 0.37,0.13 0.71,0.32 1.02,0.55 0.21,0.15 0.21,0.16 0.02,0.02 0.15,0.12 0.3,0.27 0.45,0.42 0.57,0.62 1.34,1.65 2.3,3.09 l 6.91,10.22 4.22,6.23 h 19.12 v -0.1 c -0.3,-0.49 -0.6,-0.97 -0.91,-1.48 v 0 z M 276.04,35.48 c -1.34,1.38 -3.73,2.07 -7.16,2.07 H 256.95 V 20.06 h 11.93 c 3.43,0 5.81,0.69 7.16,2.05 1.33,1.38 2,3.61 2,6.69 0,3.08 -0.67,5.33 -2,6.69 v 0 z"
         id="path12" />
      <path
         class="st0"
         d="m 296.57,70.23 c -0.3,-0.5 -0.62,-1.01 -0.96,-1.53 -0.32,-0.52 -0.66,-1.04 -1.01,-1.56 -0.79,-1.23 -1.63,-2.5 -2.52,-3.81 -0.76,-1.13 -1.51,-2.22 -2.29,-3.26 -0.39,-0.54 -0.77,-1.06 -1.14,-1.56 -0.76,-1.02 -1.53,-2 -2.3,-2.96 -0.13,-0.17 -0.27,-0.34 -0.4,-0.5 -0.25,-0.32 -0.5,-0.62 -0.76,-0.92 -1.01,-1.18 -1.97,-2.17 -2.89,-2.99 -0.24,-0.2 -0.45,-0.39 -0.69,-0.57 -0.22,-0.18 -0.44,-0.35 -0.66,-0.52 -0.22,-0.15 -0.44,-0.3 -0.66,-0.44 v -0.02 l 0.1,-0.3 c 0.42,-0.08 0.84,-0.2 1.24,-0.32 0.03,0 0.07,-0.02 0.1,-0.03 0.15,-0.05 0.29,-0.08 0.44,-0.13 0.07,-0.02 0.15,-0.05 0.22,-0.07 0.39,-0.13 0.76,-0.27 1.13,-0.44 0.5,-0.2 0.99,-0.44 1.44,-0.69 0.42,-0.22 0.82,-0.47 1.23,-0.72 0.13,-0.1 0.27,-0.18 0.4,-0.29 0.35,-0.24 0.69,-0.5 1.02,-0.77 0.3,-0.24 0.57,-0.49 0.86,-0.77 0.02,0 0.03,-0.02 0.05,-0.05 0.15,-0.13 0.3,-0.29 0.44,-0.42 0.15,-0.15 0.3,-0.3 0.42,-0.45 0.29,-0.32 0.55,-0.64 0.82,-0.96 0.27,-0.34 0.52,-0.69 0.77,-1.04 0.13,-0.18 0.27,-0.37 0.39,-0.55 0.07,-0.08 0.13,-0.17 0.17,-0.27 0.13,-0.2 0.25,-0.39 0.37,-0.59 0.03,-0.05 0.05,-0.08 0.07,-0.12 0.15,-0.25 0.3,-0.52 0.44,-0.79 0.03,-0.07 0.07,-0.12 0.08,-0.18 0.07,-0.1 0.12,-0.22 0.17,-0.32 0.03,-0.07 0.07,-0.12 0.08,-0.18 0.17,-0.32 0.3,-0.64 0.44,-0.96 0.03,-0.05 0.05,-0.12 0.07,-0.17 0.13,-0.32 0.27,-0.64 0.37,-0.97 0.03,-0.05 0.05,-0.1 0.05,-0.15 0.05,-0.17 0.12,-0.34 0.17,-0.5 0.03,-0.05 0.03,-0.08 0.05,-0.13 0.08,-0.27 0.17,-0.52 0.22,-0.79 0.08,-0.27 0.15,-0.54 0.2,-0.82 0.08,-0.25 0.13,-0.5 0.17,-0.76 0.05,-0.24 0.08,-0.47 0.13,-0.71 0.07,-0.29 0.12,-0.59 0.13,-0.89 0.05,-0.35 0.1,-0.69 0.12,-1.04 0.03,-0.35 0.05,-0.72 0.07,-1.08 0.05,-0.57 0.07,-1.16 0.07,-1.75 0,-7.14 -1.87,-12.53 -5.6,-16.21 -0.13,-0.13 -0.27,-0.25 -0.4,-0.37 -3.44,-3.14 -8.62,-4.82 -15.53,-5.09 -0.62,-0.02 -1.28,-0.03 -1.93,-0.03 h -31.35 c -8.33,0 -15.08,6.75 -15.08,15.08 v 22.99 c 0,3.49 -0.32,6.23 -0.92,8.23 -0.62,1.98 -1.73,3.38 -3.34,4.17 -1.61,0.79 -3.93,1.18 -6.96,1.18 -3.23,0 -5.71,-0.39 -7.51,-1.18 -1.78,-0.79 -3.01,-2.18 -3.7,-4.17 -0.69,-2 -1.02,-4.74 -1.02,-8.23 V 0 h -16.47 v 45.06 c 0,6.72 0.82,12.11 2.47,16.16 1.65,4.05 4.54,6.97 8.69,8.79 4.15,1.81 10,2.72 17.54,2.72 7.54,0 12.9,-0.91 16.89,-2.72 3.97,-1.81 6.77,-4.74 8.38,-8.79 0.52,-1.34 0.97,-2.84 1.31,-4.47 V 71.8 h 16.47 V 50.92 h 2.17 c 1.71,0 2.96,0.07 3.75,0.2 0.2,0.03 0.39,0.08 0.57,0.15 0.37,0.13 0.71,0.32 1.02,0.55 0.21,0.15 0.21,0.16 0.02,0.02 0.15,0.12 0.3,0.27 0.45,0.42 0.57,0.62 1.34,1.65 2.3,3.09 l 6.91,10.22 4.22,6.23 h 19.12 v -0.1 c -0.3,-0.49 -0.6,-0.97 -0.91,-1.48 v 0 z M 276.04,35.48 c -1.34,1.38 -3.73,2.07 -7.16,2.07 H 256.95 V 20.06 h 11.93 c 3.43,0 5.81,0.69 7.16,2.05 1.33,1.38 2,3.61 2,6.69 0,3.08 -0.67,5.33 -2,6.69 v 0 z"
         id="path14" />
    </g>
  </g>
</svg>
