<?xml version="1.0" encoding="UTF-8" standalone="no"?>
<svg
   id="Capa_1"
   data-name="Capa 1"
   viewBox="0 0 299.92 245.45"
   version="1.1"
   sodipodi:docname="logo-mobile.svg"
   inkscape:version="1.2.1 (9c6d41e4, 2022-07-14)"
   xmlns:inkscape="http://www.inkscape.org/namespaces/inkscape"
   xmlns:sodipodi="http://sodipodi.sourceforge.net/DTD/sodipodi-0.dtd"
   xmlns="http://www.w3.org/2000/svg"
   xmlns:svg="http://www.w3.org/2000/svg">
  <sodipodi:namedview
     id="namedview509"
     pagecolor="#ffffff"
     bordercolor="#000000"
     borderopacity="0.25"
     inkscape:showpageshadow="2"
     inkscape:pageopacity="0.0"
     inkscape:pagecheckerboard="0"
     inkscape:deskcolor="#d1d1d1"
     showgrid="false"
     inkscape:zoom="0.9614993"
     inkscape:cx="81.643325"
     inkscape:cy="125.3251"
     inkscape:window-width="1367"
     inkscape:window-height="667"
     inkscape:window-x="0"
     inkscape:window-y="25"
     inkscape:window-maximized="0"
     inkscape:current-layer="Capa_1" />
  <defs
     id="defs4">
    <style
       id="style2">
      .cls-1 {
        fill: #420add;
      }

      .cls-2 {
        fill: #573c8f;
      }

      .cls-3 {
        fill: #fff;
      }
    </style>
  </defs>
  <g
     id="g190">
    <g
       id="g88">
      <g
         id="g50">
        <path
           class="cls-2"
           d="M215.55,234.31l6.38,9.48h.03s-6.41-9.48-6.41-9.48ZM225.47,203.77v.03c.37.24.75.49,1.13.75-.38-.29-.76-.55-1.13-.78Z"
           id="path6" />
        <path
           class="cls-2"
           d="M236.36,214.51c-.24-.31-.49-.61-.73-.91-.46-.57-.91-1.12-1.36-1.66.45.54.94,1.09,1.39,1.66.24.3.48.61.7.91Z"
           id="path8" />
        <path
           class="cls-2"
           d="M245.35,189.42c-.19.34-.39.64-.62.95-.45.64-.9,1.24-1.42,1.85.49-.61.94-1.25,1.39-1.87.23-.32.46-.63.65-.93Z"
           id="path10" />
        <path
           class="cls-2"
           d="M251.87,168.81c-.03.63-.09,1.29-.18,1.89.03-.32.05-.64.07-.96.02-.32.04-.64.05-.96h.01l.05.03Z"
           id="path12" />
        <g
           id="g20">
          <path
             class="cls-2"
             d="M251.81,168.78c-.01.32-.03.64-.05.96.02-.32.04-.64.06-.96h-.01ZM250.69,153.3c-.38-1.77-.86-3.45-1.45-5.04.53,1.95,1.02,3.65,1.45,5.04ZM54.3,112.91l-.02,13.69h29.62l.08-13.48v-.24h-29.68v.03Z"
             id="path14" />
          <path
             class="cls-2"
             d="M251.81,168.78c-.01.32-.03.64-.05.96.02-.32.04-.64.06-.96h-.01ZM250.69,153.3c-.38-1.77-.86-3.45-1.45-5.04.53,1.95,1.02,3.65,1.45,5.04ZM54.3,112.91l-.02,13.69h29.62l.08-13.48v-.24h-29.68v.03Z"
             id="path16" />
          <path
             class="cls-2"
             d="M251.81,168.78c-.01.32-.03.64-.05.96.02-.32.04-.64.06-.96h-.01ZM250.69,153.3c-.38-1.77-.86-3.45-1.45-5.04.53,1.95,1.02,3.65,1.45,5.04ZM54.3,112.91l-.02,13.69h29.62l.08-13.48v-.24h-29.68v.03Z"
             id="path18" />
        </g>
        <g
           id="g46">
          <g
             id="g28">
            <path
               class="cls-2"
               d="M263.61,117.49c-.5,5.68-14.73,9.37-12.73-2.4,2-11.77,3.51-13.27,3.51-13.27,0,0,9.78,9.42,9.22,15.67Z"
               id="path22" />
            <circle
               class="cls-2"
               cx="276.55"
               cy="132.89"
               r="8.89"
               id="circle24" />
            <path
               class="cls-2"
               d="M293.23,143.25l6.31,10.8c.86,1.47.16,3.37-1.46,3.92l-7.65,2.61c-.64.22-1.33.19-1.95-.08l-18.02-7.85c-1.91-.83-2.2-3.42-.52-4.65h0c.53-.39,1.19-.57,1.85-.51l8.59.81c.67.06,1.34-.13,1.88-.53l7.01-5.3c1.29-.98,3.14-.61,3.96.79Z"
               id="path26" />
          </g>
          <g
             id="g36">
            <path
               class="cls-2"
               d="M263.61,117.49c-.5,5.68-14.73,9.37-12.73-2.4,2-11.77,3.51-13.27,3.51-13.27,0,0,9.78,9.42,9.22,15.67Z"
               id="path30" />
            <circle
               class="cls-2"
               cx="276.55"
               cy="132.89"
               r="8.89"
               id="circle32" />
            <path
               class="cls-2"
               d="M293.23,143.25l6.31,10.8c.86,1.47.16,3.37-1.46,3.92l-7.65,2.61c-.64.22-1.33.19-1.95-.08l-18.02-7.85c-1.91-.83-2.2-3.42-.52-4.65h0c.53-.39,1.19-.57,1.85-.51l8.59.81c.67.06,1.34-.13,1.88-.53l7.01-5.3c1.29-.98,3.14-.61,3.96.79Z"
               id="path34" />
          </g>
          <g
             id="g44">
            <path
               class="cls-2"
               d="M263.61,117.49c-.5,5.68-14.73,9.37-12.73-2.4,2-11.77,3.51-13.27,3.51-13.27,0,0,9.78,9.42,9.22,15.67Z"
               id="path38" />
            <circle
               class="cls-2"
               cx="276.55"
               cy="132.89"
               r="8.89"
               id="circle40" />
            <path
               class="cls-2"
               d="M293.23,143.25l6.31,10.8c.86,1.47.16,3.37-1.46,3.92l-7.65,2.61c-.64.22-1.33.19-1.95-.08l-18.02-7.85c-1.91-.83-2.2-3.42-.52-4.65h0c.53-.39,1.19-.57,1.85-.51l8.59.81c.67.06,1.34-.13,1.88-.53l7.01-5.3c1.29-.98,3.14-.61,3.96.79Z"
               id="path42" />
          </g>
        </g>
        <path
           class="cls-2"
           d="M290.45,122.38s-4.75-6.53-9.53-6.78c-4.54-.27-11.28,3.94-11.89,4.3.31-.49,3.78-6.38-.03-15.34-4.02-9.34-12.01-29.21-24.28-2.75-4.14,8.94.95,33.19,4.52,46.45.53,1.95,1.02,3.65,1.45,5.04h0c.83,3.73,1.24,7.84,1.24,12.33,0,1.05-.03,2.12-.11,3.15h-.01c-.01.32-.03.64-.05.96-.02.32-.04.64-.07.96v.02c-.03.62-.12,1.23-.21,1.87-.04.54-.13,1.09-.25,1.6-.09.42-.15.85-.24,1.27-.06.45-.15.9-.3,1.36-.09.52-.21,1-.36,1.49-.09.47-.25.93-.4,1.41-.02.1-.02.15-.09.25-.08.3-.21.6-.3.9,0,.1-.03.19-.08.27-.19.62-.43,1.19-.68,1.76-.02.09-.06.22-.11.3-.25.58-.49,1.15-.79,1.73-.03.12-.1.21-.15.32-.1.19-.18.4-.31.59-.02.11-.09.21-.15.32-.24.49-.51.98-.79,1.43-.02.06-.06.12-.11.21-.21.36-.42.7-.67,1.06-.05.18-.18.33-.3.49-.02.02-.03.05-.05.07-.19.3-.42.61-.65.93-.45.62-.9,1.26-1.39,1.87-.48.57-.97,1.15-1.48,1.72-.22.28-.48.54-.75.82-.25.23-.53.51-.79.76-.04.05-.06.09-.1.09-.51.51-.99.96-1.54,1.38-.61.49-1.21.98-1.84,1.4-.24.18-.49.33-.73.51-.72.45-1.45.9-2.21,1.3-.81.45-1.69.88-2.6,1.24-.66.31-1.33.55-2.02.78-.12.04-.27.1-.4.13-.27.09-.51.15-.79.24-.06.03-.11.06-.17.06-.73.21-1.49.42-2.25.57l-.17.55v.03c.37.24.75.49,1.13.75.01.01.03.02.04.03.4.32.79.62,1.19.94.42.34.81.67,1.23,1.04,1.67,1.47,3.39,3.26,5.21,5.38.45.54.9,1.09,1.36,1.66.24.3.49.6.73.91,1.38,1.72,2.78,3.47,4.14,5.32.66.9,1.36,1.85,2.05,2.81,1.4,1.88,2.76,3.85,4.12,5.87,1.6,2.36,3.11,4.66,4.53,6.87.64.94,1.24,1.87,1.82,2.81.61.94,1.18,1.85,1.72,2.75.55.91,1.1,1.78,1.64,2.67v.17h-34.42l-6.41-9.47-1.18-1.74-12.43-18.39c-1.73-2.6-3.12-4.45-4.15-5.57-.27-.28-.55-.54-.82-.75t-.03-.04c-.57-.41-1.17-.75-1.84-1-.33-.11-.67-.2-1.03-.26-1.42-.25-3.66-.37-6.74-.37h-2.91v37.59h-30.64v-27.09c-.61,2.93-1.42,5.63-2.36,8.04-2.89,7.29-7.95,12.55-15.09,15.82-7.17,3.26-17.3,4.9-30.4,4.9s-24.1-1.64-31.57-4.9c-7.47-3.27-12.67-8.53-15.64-15.82-2.97-7.28-4.44-17-4.44-29.1v-69.03h29.62l.08-13.48-.07,13.44v68.53c0,6.3.61,11.22,1.85,14.83,1.24,3.56,3.45,6.07,6.66,7.49,3.23,1.42,7.7,2.12,13.51,2.12,5.45,0,9.63-.7,12.53-2.12,2.89-1.42,4.89-3.93,6.02-7.49,1.08-3.61,1.66-8.53,1.66-14.83v-35.53c0-18.23,14.77-33,33.01-33h35.15s-.1-.01-.15-.01c36.07-2.69,51.84-39.56,56.55-41.01,5.02-1.57,14.1,2.39,14.1,2.39l1.93-2.54c1.73-2.3,5.3-1.73,6.23,1l3.6,10.43s7.63,3,11.38,11.25c3.75,8.26,2.51,14.31,2.51,14.31Z"
           id="path48" />
      </g>
      <g
         id="g86">
        <path
           class="cls-3"
           d="M215.55,234.31l6.38,9.48h.03s-6.41-9.48-6.41-9.48ZM225.47,203.77v.03c.37.24.75.49,1.13.75-.38-.29-.76-.55-1.13-.78Z"
           id="path52" />
        <path
           class="cls-3"
           d="M236.36,214.51c-.24-.31-.49-.61-.73-.91-.46-.57-.91-1.12-1.36-1.66.45.54.94,1.09,1.39,1.66.24.3.48.61.7.91Z"
           id="path54" />
        <path
           class="cls-3"
           d="M245.35,189.42c-.19.34-.39.64-.62.95-.45.64-.9,1.24-1.42,1.85.49-.61.94-1.25,1.39-1.87.23-.32.46-.63.65-.93Z"
           id="path56" />
        <path
           class="cls-3"
           d="M251.87,168.81c-.03.63-.09,1.29-.18,1.89.03-.32.05-.64.07-.96.02-.32.04-.64.05-.96h.01l.05.03Z"
           id="path58" />
        <g
           id="g64">
          <path
             class="cls-2"
             d="M251.81,168.78c-.01.32-.03.64-.05.96.02-.32.04-.64.06-.96h-.01ZM250.69,153.3c-.38-1.77-.86-3.45-1.45-5.04.53,1.95,1.02,3.65,1.45,5.04ZM54.3,112.91l-.02,13.69h29.62l.08-13.48v-.24h-29.68v.03Z"
             id="path60" />
          <path
             class="cls-2"
             d="M251.81,168.78c-.01.32-.03.64-.05.96.02-.32.04-.64.06-.96h-.01ZM250.69,153.3c-.38-1.77-.86-3.45-1.45-5.04.53,1.95,1.02,3.65,1.45,5.04ZM54.3,112.91l-.02,13.69h29.62l.08-13.48v-.24h-29.68v.03Z"
             id="path62" />
        </g>
        <g
           id="g82">
          <g
             id="g72">
            <path
               class="cls-2"
               d="M263.61,117.49c-.5,5.68-14.73,9.37-12.73-2.4,2-11.77,3.51-13.27,3.51-13.27,0,0,9.78,9.42,9.22,15.67Z"
               id="path66" />
            <circle
               class="cls-2"
               cx="276.55"
               cy="132.89"
               r="8.89"
               id="circle68" />
            <path
               class="cls-2"
               d="M293.23,143.25l6.31,10.8c.86,1.47.16,3.37-1.46,3.92l-7.65,2.61c-.64.22-1.33.19-1.95-.08l-18.02-7.85c-1.91-.83-2.2-3.42-.52-4.65h0c.53-.39,1.19-.57,1.85-.51l8.59.81c.67.06,1.34-.13,1.88-.53l7.01-5.3c1.29-.98,3.14-.61,3.96.79Z"
               id="path70" />
          </g>
          <g
             id="g80">
            <path
               class="cls-2"
               d="M263.61,117.49c-.5,5.68-14.73,9.37-12.73-2.4,2-11.77,3.51-13.27,3.51-13.27,0,0,9.78,9.42,9.22,15.67Z"
               id="path74" />
            <circle
               class="cls-2"
               cx="276.55"
               cy="132.89"
               r="8.89"
               id="circle76" />
            <path
               class="cls-2"
               d="M293.23,143.25l6.31,10.8c.86,1.47.16,3.37-1.46,3.92l-7.65,2.61c-.64.22-1.33.19-1.95-.08l-18.02-7.85c-1.91-.83-2.2-3.42-.52-4.65h0c.53-.39,1.19-.57,1.85-.51l8.59.81c.67.06,1.34-.13,1.88-.53l7.01-5.3c1.29-.98,3.14-.61,3.96.79Z"
               id="path78" />
          </g>
        </g>
        <path
           class="cls-1"
           d="M290.45,122.38s-4.75-6.53-9.53-6.78c-4.54-.27-11.28,3.94-11.89,4.3.31-.49,3.78-6.38-.03-15.34-4.02-9.34-12.01-29.21-24.28-2.75-4.14,8.94.95,33.19,4.52,46.45.53,1.95,1.02,3.65,1.45,5.04h0c.83,3.73,1.24,7.84,1.24,12.33,0,1.05-.03,2.12-.11,3.15h-.01c-.01.32-.03.64-.05.96-.02.32-.04.64-.07.96v.02c-.03.62-.12,1.23-.21,1.87-.04.54-.13,1.09-.25,1.6-.09.42-.15.85-.24,1.27-.06.45-.15.9-.3,1.36-.09.52-.21,1-.36,1.49-.09.47-.25.93-.4,1.41-.02.1-.02.15-.09.25-.08.3-.21.6-.3.9,0,.1-.03.19-.08.27-.19.62-.43,1.19-.68,1.76-.02.09-.06.22-.11.3-.25.58-.49,1.15-.79,1.73-.03.12-.1.21-.15.32-.1.19-.18.4-.31.59-.02.11-.09.21-.15.32-.24.49-.51.98-.79,1.43-.02.06-.06.12-.11.21-.21.36-.42.7-.67,1.06-.05.18-.18.33-.3.49-.02.02-.03.05-.05.07-.19.3-.42.61-.65.93-.45.62-.9,1.26-1.39,1.87-.48.57-.97,1.15-1.48,1.72-.22.28-.48.54-.75.82-.25.23-.53.51-.79.76-.04.05-.06.09-.1.09-.51.51-.99.96-1.54,1.38-.61.49-1.21.98-1.84,1.4-.24.18-.49.33-.73.51-.72.45-1.45.9-2.21,1.3-.81.45-1.69.88-2.6,1.24-.66.31-1.33.55-2.02.78-.12.04-.27.1-.4.13-.27.09-.51.15-.79.24-.06.03-.11.06-.17.06-.73.21-1.49.42-2.25.57l-.17.55v.03c.37.24.75.49,1.13.75.01.01.03.02.04.03.4.32.79.62,1.19.94.42.34.81.67,1.23,1.04,1.67,1.47,3.39,3.26,5.21,5.38.45.54.9,1.09,1.36,1.66.24.3.49.6.73.91,1.38,1.72,2.78,3.47,4.14,5.32.66.9,1.36,1.85,2.05,2.81,1.4,1.88,2.76,3.85,4.12,5.87,1.6,2.36,3.11,4.66,4.53,6.87.64.94,1.24,1.87,1.82,2.81.61.94,1.18,1.85,1.72,2.75.55.91,1.1,1.78,1.64,2.67v.17h-34.42l-6.41-9.47-1.18-1.74-12.43-18.39c-1.73-2.6-3.12-4.45-4.15-5.57-.27-.28-.55-.54-.82-.75t-.03-.04c-.57-.41-1.17-.75-1.84-1-.33-.11-.67-.2-1.03-.26-1.42-.25-3.66-.37-6.74-.37h-2.91v37.59h-30.64v-27.09c-.61,2.93-1.42,5.63-2.36,8.04-2.89,7.29-7.95,12.55-15.09,15.82-7.17,3.26-17.3,4.9-30.4,4.9s-24.1-1.64-31.57-4.9c-7.47-3.27-12.67-8.53-15.64-15.82-2.97-7.28-4.44-17-4.44-29.1v-69.03h29.62l.08-13.48-.07,13.44v68.53c0,6.3.61,11.22,1.85,14.83,1.24,3.56,3.45,6.07,6.66,7.49,3.23,1.42,7.7,2.12,13.51,2.12,5.45,0,9.63-.7,12.53-2.12,2.89-1.42,4.89-3.93,6.02-7.49,1.08-3.61,1.66-8.53,1.66-14.83v-35.53c0-18.23,14.77-33,33.01-33h35.15s-.1-.01-.15-.01c36.07-2.69,51.84-39.56,56.55-41.01,5.02-1.57,14.1,2.39,14.1,2.39l1.93-2.54c1.73-2.3,5.3-1.73,6.23,1l3.6,10.43s7.63,3,11.38,11.25c3.75,8.26,2.51,14.31,2.51,14.31Z"
           id="path84" />
      </g>
    </g>
    <g
       id="g188">
      <g
         id="g184">
        <g
           id="g144">
          <g
             id="g106">
            <rect
               class="cls-2"
               y="55.08"
               width="29.95"
               height="17.38"
               id="rect90" />
            <path
               class="cls-2"
               d="M3.77,24.52l26.37,15.24c-.13.7-.19,1.4-.19,2.14v1.65H0v-1.65c0-6.19,1.34-12.08,3.77-17.38Z"
               id="path92" />
            <path
               class="cls-2"
               d="M37.16,0v31.12L9.6,15.19C16.43,7.09,26.15,1.48,37.16,0Z"
               id="path94" />
            <path
               class="cls-2"
               d="M75.31,15.88l-26.37,15.24V.67c10.53,1.42,19.82,7.48,26.37,15.21Z"
               id="path96" />
            <polygon
               class="cls-2"
               points="83.98 112.91 83.98 113.12 83.9 126.6 54.28 126.6 54.3 112.91 83.98 112.91"
               id="polygon98" />
            <polygon
               class="cls-2"
               points="54.33 84 84.13 84 84.03 101.36 54.31 101.36 54.33 84"
               id="polygon100" />
            <polygon
               class="cls-2"
               points="84.26 55.08 84.18 72.45 54.35 72.45 54.37 55.08 84.26 55.08"
               id="polygon102" />
            <path
               class="cls-2"
               d="M84.34,41.9v1.65h-29.95v-1.65c0-.8-.08-1.57-.23-2.31l26.35-15.2c2.46,5.34,3.82,11.26,3.82,17.51Z"
               id="path104" />
          </g>
          <g
             id="g124">
            <rect
               class="cls-2"
               y="55.08"
               width="29.95"
               height="17.38"
               id="rect108" />
            <path
               class="cls-2"
               d="M3.77,24.52l26.37,15.24c-.13.7-.19,1.4-.19,2.14v1.65H0v-1.65c0-6.19,1.34-12.08,3.77-17.38Z"
               id="path110" />
            <path
               class="cls-2"
               d="M37.16,0v31.12L9.6,15.19C16.43,7.09,26.15,1.48,37.16,0Z"
               id="path112" />
            <path
               class="cls-2"
               d="M75.31,15.88l-26.37,15.24V.67c10.53,1.42,19.82,7.48,26.37,15.21Z"
               id="path114" />
            <polygon
               class="cls-2"
               points="83.98 112.91 83.98 113.12 83.9 126.6 54.28 126.6 54.3 112.91 83.98 112.91"
               id="polygon116" />
            <polygon
               class="cls-2"
               points="54.33 84 84.13 84 84.03 101.36 54.31 101.36 54.33 84"
               id="polygon118" />
            <polygon
               class="cls-2"
               points="84.26 55.08 84.18 72.45 54.35 72.45 54.37 55.08 84.26 55.08"
               id="polygon120" />
            <path
               class="cls-2"
               d="M84.34,41.9v1.65h-29.95v-1.65c0-.8-.08-1.57-.23-2.31l26.35-15.2c2.46,5.34,3.82,11.26,3.82,17.51Z"
               id="path122" />
          </g>
          <g
             id="g142">
            <rect
               class="cls-2"
               y="55.08"
               width="29.95"
               height="17.38"
               id="rect126" />
            <path
               class="cls-2"
               d="M3.77,24.52l26.37,15.24c-.13.7-.19,1.4-.19,2.14v1.65H0v-1.65c0-6.19,1.34-12.08,3.77-17.38Z"
               id="path128" />
            <path
               class="cls-2"
               d="M37.16,0v31.12L9.6,15.19C16.43,7.09,26.15,1.48,37.16,0Z"
               id="path130" />
            <path
               class="cls-2"
               d="M75.31,15.88l-26.37,15.24V.67c10.53,1.42,19.82,7.48,26.37,15.21Z"
               id="path132" />
            <polygon
               class="cls-2"
               points="83.98 112.91 83.98 113.12 83.9 126.6 54.28 126.6 54.3 112.91 83.98 112.91"
               id="polygon134" />
            <polygon
               class="cls-2"
               points="54.33 84 84.13 84 84.03 101.36 54.31 101.36 54.33 84"
               id="polygon136" />
            <polygon
               class="cls-2"
               points="84.26 55.08 84.18 72.45 54.35 72.45 54.37 55.08 84.26 55.08"
               id="polygon138" />
            <path
               class="cls-2"
               d="M84.34,41.9v1.65h-29.95v-1.65c0-.8-.08-1.57-.23-2.31l26.35-15.2c2.46,5.34,3.82,11.26,3.82,17.51Z"
               id="path140" />
          </g>
        </g>
        <g
           id="g182">
          <g
             id="g162">
            <rect
               class="cls-2"
               y="55.08"
               width="29.95"
               height="17.38"
               id="rect146" />
            <path
               class="cls-2"
               d="M3.77,24.52l26.37,15.24c-.13.7-.19,1.4-.19,2.14v1.65H0v-1.65c0-6.19,1.34-12.08,3.77-17.38Z"
               id="path148" />
            <path
               class="cls-2"
               d="M37.16,0v31.12L9.6,15.19C16.43,7.09,26.15,1.48,37.16,0Z"
               id="path150" />
            <path
               class="cls-2"
               d="M75.31,15.88l-26.37,15.24V.67c10.53,1.42,19.82,7.48,26.37,15.21Z"
               id="path152" />
            <polygon
               class="cls-2"
               points="83.98 112.91 83.98 113.12 83.9 126.6 54.28 126.6 54.3 112.91 83.98 112.91"
               id="polygon154" />
            <polygon
               class="cls-2"
               points="54.33 84 84.13 84 84.03 101.36 54.31 101.36 54.33 84"
               id="polygon156" />
            <polygon
               class="cls-2"
               points="84.26 55.08 84.18 72.45 54.35 72.45 54.37 55.08 84.26 55.08"
               id="polygon158" />
            <path
               class="cls-2"
               d="M84.34,41.9v1.65h-29.95v-1.65c0-.8-.08-1.57-.23-2.31l26.35-15.2c2.46,5.34,3.82,11.26,3.82,17.51Z"
               id="path160" />
          </g>
          <g
             id="g180">
            <rect
               class="cls-2"
               y="55.08"
               width="29.95"
               height="17.38"
               id="rect164" />
            <path
               class="cls-2"
               d="M3.77,24.52l26.37,15.24c-.13.7-.19,1.4-.19,2.14v1.65H0v-1.65c0-6.19,1.34-12.08,3.77-17.38Z"
               id="path166" />
            <path
               class="cls-2"
               d="M37.16,0v31.12L9.6,15.19C16.43,7.09,26.15,1.48,37.16,0Z"
               id="path168" />
            <path
               class="cls-2"
               d="M75.31,15.88l-26.37,15.24V.67c10.53,1.42,19.82,7.48,26.37,15.21Z"
               id="path170" />
            <polygon
               class="cls-2"
               points="83.98 112.91 83.98 113.12 83.9 126.6 54.28 126.6 54.3 112.91 83.98 112.91"
               id="polygon172" />
            <polygon
               class="cls-2"
               points="54.33 84 84.13 84 84.03 101.36 54.31 101.36 54.33 84"
               id="polygon174" />
            <polygon
               class="cls-2"
               points="84.26 55.08 84.18 72.45 54.35 72.45 54.37 55.08 84.26 55.08"
               id="polygon176" />
            <path
               class="cls-2"
               d="M84.34,41.9v1.65h-29.95v-1.65c0-.8-.08-1.57-.23-2.31l26.35-15.2c2.46,5.34,3.82,11.26,3.82,17.51Z"
               id="path178" />
          </g>
        </g>
      </g>
      <circle
         class="cls-2"
         cx="42.58"
         cy="41.65"
         r="4"
         id="circle186" />
    </g>
  </g>
  <g
     id="g506"
     style="fill:#ff9966;fill-opacity:1">
    <g
       id="g330"
       style="fill:#ff9966;fill-opacity:1">
      <g
         id="g236"
         style="fill:#ff9966;fill-opacity:1">
        <path
           class="cls-1"
           d="M215.55,234.31l6.38,9.48h.03s-6.41-9.48-6.41-9.48ZM225.47,203.77v.03c.37.24.75.49,1.13.75-.38-.29-.76-.55-1.13-.78Z"
           id="path192"
           style="fill:#ff9966;fill-opacity:1" />
        <path
           class="cls-1"
           d="M236.36,214.51c-.24-.31-.49-.61-.73-.91-.46-.57-.91-1.12-1.36-1.66.45.54.94,1.09,1.39,1.66.24.3.48.61.7.91Z"
           id="path194"
           style="fill:#ff9966;fill-opacity:1" />
        <path
           class="cls-1"
           d="M245.35,189.42c-.19.34-.39.64-.62.95-.45.64-.9,1.24-1.42,1.85.49-.61.94-1.25,1.39-1.87.23-.32.46-.63.65-.93Z"
           id="path196"
           style="fill:#ff9966;fill-opacity:1" />
        <path
           class="cls-1"
           d="M251.87,168.81c-.03.63-.09,1.29-.18,1.89.03-.32.05-.64.07-.96.02-.32.04-.64.05-.96h.01l.05.03Z"
           id="path198"
           style="fill:#ff9966;fill-opacity:1" />
        <g
           id="g206"
           style="fill:#ff9966;fill-opacity:1">
          <path
             class="cls-1"
             d="M251.81,168.78c-.01.32-.03.64-.05.96.02-.32.04-.64.06-.96h-.01ZM250.69,153.3c-.38-1.77-.86-3.45-1.45-5.04.53,1.95,1.02,3.65,1.45,5.04ZM54.3,112.91l-.02,13.69h29.62l.08-13.48v-.24h-29.68v.03Z"
             id="path200"
             style="fill:#ff9966;fill-opacity:1" />
          <path
             class="cls-1"
             d="M251.81,168.78c-.01.32-.03.64-.05.96.02-.32.04-.64.06-.96h-.01ZM250.69,153.3c-.38-1.77-.86-3.45-1.45-5.04.53,1.95,1.02,3.65,1.45,5.04ZM54.3,112.91l-.02,13.69h29.62l.08-13.48v-.24h-29.68v.03Z"
             id="path202"
             style="fill:#ff9966;fill-opacity:1" />
          <path
             class="cls-1"
             d="M251.81,168.78c-.01.32-.03.64-.05.96.02-.32.04-.64.06-.96h-.01ZM250.69,153.3c-.38-1.77-.86-3.45-1.45-5.04.53,1.95,1.02,3.65,1.45,5.04ZM54.3,112.91l-.02,13.69h29.62l.08-13.48v-.24h-29.68v.03Z"
             id="path204"
             style="fill:#ff9966;fill-opacity:1" />
        </g>
        <g
           id="g232"
           style="fill:#ff9966;fill-opacity:1">
          <g
             id="g214"
             style="fill:#ff9966;fill-opacity:1">
            <path
               class="cls-1"
               d="M263.61,117.49c-.5,5.68-14.73,9.37-12.73-2.4,2-11.77,3.51-13.27,3.51-13.27,0,0,9.78,9.42,9.22,15.67Z"
               id="path208"
               style="fill:#ff9966;fill-opacity:1" />
            <circle
               class="cls-1"
               cx="276.55"
               cy="132.89"
               r="8.89"
               id="circle210"
               style="fill:#ff9966;fill-opacity:1" />
            <path
               class="cls-1"
               d="M293.23,143.25l6.31,10.8c.86,1.47.16,3.37-1.46,3.92l-7.65,2.61c-.64.22-1.33.19-1.95-.08l-18.02-7.85c-1.91-.83-2.2-3.42-.52-4.65h0c.53-.39,1.19-.57,1.85-.51l8.59.81c.67.06,1.34-.13,1.88-.53l7.01-5.3c1.29-.98,3.14-.61,3.96.79Z"
               id="path212"
               style="fill:#ff9966;fill-opacity:1" />
          </g>
          <g
             id="g222"
             style="fill:#ff9966;fill-opacity:1">
            <path
               class="cls-1"
               d="M263.61,117.49c-.5,5.68-14.73,9.37-12.73-2.4,2-11.77,3.51-13.27,3.51-13.27,0,0,9.78,9.42,9.22,15.67Z"
               id="path216"
               style="fill:#ff9966;fill-opacity:1" />
            <circle
               class="cls-1"
               cx="276.55"
               cy="132.89"
               r="8.89"
               id="circle218"
               style="fill:#ff9966;fill-opacity:1" />
            <path
               class="cls-1"
               d="M293.23,143.25l6.31,10.8c.86,1.47.16,3.37-1.46,3.92l-7.65,2.61c-.64.22-1.33.19-1.95-.08l-18.02-7.85c-1.91-.83-2.2-3.42-.52-4.65h0c.53-.39,1.19-.57,1.85-.51l8.59.81c.67.06,1.34-.13,1.88-.53l7.01-5.3c1.29-.98,3.14-.61,3.96.79Z"
               id="path220"
               style="fill:#ff9966;fill-opacity:1" />
          </g>
          <g
             id="g230"
             style="fill:#ff9966;fill-opacity:1">
            <path
               class="cls-1"
               d="M263.61,117.49c-.5,5.68-14.73,9.37-12.73-2.4,2-11.77,3.51-13.27,3.51-13.27,0,0,9.78,9.42,9.22,15.67Z"
               id="path224"
               style="fill:#ff9966;fill-opacity:1" />
            <circle
               class="cls-1"
               cx="276.55"
               cy="132.89"
               r="8.89"
               id="circle226"
               style="fill:#ff9966;fill-opacity:1" />
            <path
               class="cls-1"
               d="M293.23,143.25l6.31,10.8c.86,1.47.16,3.37-1.46,3.92l-7.65,2.61c-.64.22-1.33.19-1.95-.08l-18.02-7.85c-1.91-.83-2.2-3.42-.52-4.65h0c.53-.39,1.19-.57,1.85-.51l8.59.81c.67.06,1.34-.13,1.88-.53l7.01-5.3c1.29-.98,3.14-.61,3.96.79Z"
               id="path228"
               style="fill:#ff9966;fill-opacity:1" />
          </g>
        </g>
        <path
           class="cls-1"
           d="M290.45,122.38s-4.75-6.53-9.53-6.78c-4.54-.27-11.28,3.94-11.89,4.3.31-.49,3.78-6.38-.03-15.34-4.02-9.34-12.01-29.21-24.28-2.75-4.14,8.94.95,33.19,4.52,46.45.53,1.95,1.02,3.65,1.45,5.04h0c.83,3.73,1.24,7.84,1.24,12.33,0,1.05-.03,2.12-.11,3.15h-.01c-.01.32-.03.64-.05.96-.02.32-.04.64-.07.96v.02c-.03.62-.12,1.23-.21,1.87-.04.54-.13,1.09-.25,1.6-.09.42-.15.85-.24,1.27-.06.45-.15.9-.3,1.36-.09.52-.21,1-.36,1.49-.09.47-.25.93-.4,1.41-.02.1-.02.15-.09.25-.08.3-.21.6-.3.9,0,.1-.03.19-.08.27-.19.62-.43,1.19-.68,1.76-.02.09-.06.22-.11.3-.25.58-.49,1.15-.79,1.73-.03.12-.1.21-.15.32-.1.19-.18.4-.31.59-.02.11-.09.21-.15.32-.24.49-.51.98-.79,1.43-.02.06-.06.12-.11.21-.21.36-.42.7-.67,1.06-.05.18-.18.33-.3.49-.02.02-.03.05-.05.07-.19.3-.42.61-.65.93-.45.62-.9,1.26-1.39,1.87-.48.57-.97,1.15-1.48,1.72-.22.28-.48.54-.75.82-.25.23-.53.51-.79.76-.04.05-.06.09-.1.09-.51.51-.99.96-1.54,1.38-.61.49-1.21.98-1.84,1.4-.24.18-.49.33-.73.51-.72.45-1.45.9-2.21,1.3-.81.45-1.69.88-2.6,1.24-.66.31-1.33.55-2.02.78-.12.04-.27.1-.4.13-.27.09-.51.15-.79.24-.06.03-.11.06-.17.06-.73.21-1.49.42-2.25.57l-.17.55v.03c.37.24.75.49,1.13.75.01.01.03.02.04.03.4.32.79.62,1.19.94.42.34.81.67,1.23,1.04,1.67,1.47,3.39,3.26,5.21,5.38.45.54.9,1.09,1.36,1.66.24.3.49.6.73.91,1.38,1.72,2.78,3.47,4.14,5.32.66.9,1.36,1.85,2.05,2.81,1.4,1.88,2.76,3.85,4.12,5.87,1.6,2.36,3.11,4.66,4.53,6.87.64.94,1.24,1.87,1.82,2.81.61.94,1.18,1.85,1.72,2.75.55.91,1.1,1.78,1.64,2.67v.17h-34.42l-6.41-9.47-1.18-1.74-12.43-18.39c-1.73-2.6-3.12-4.45-4.15-5.57-.27-.28-.55-.54-.82-.75t-.03-.04c-.57-.41-1.17-.75-1.84-1-.33-.11-.67-.2-1.03-.26-1.42-.25-3.66-.37-6.74-.37h-2.91v37.59h-30.64v-27.09c-.61,2.93-1.42,5.63-2.36,8.04-2.89,7.29-7.95,12.55-15.09,15.82-7.17,3.26-17.3,4.9-30.4,4.9s-24.1-1.64-31.57-4.9c-7.47-3.27-12.67-8.53-15.64-15.82-2.97-7.28-4.44-17-4.44-29.1v-69.03h29.62l.08-13.48-.07,13.44v68.53c0,6.3.61,11.22,1.85,14.83,1.24,3.56,3.45,6.07,6.66,7.49,3.23,1.42,7.7,2.12,13.51,2.12,5.45,0,9.63-.7,12.53-2.12,2.89-1.42,4.89-3.93,6.02-7.49,1.08-3.61,1.66-8.53,1.66-14.83v-35.53c0-18.23,14.77-33,33.01-33h35.15s-.1-.01-.15-.01c36.07-2.69,51.84-39.56,56.55-41.01,5.02-1.57,14.1,2.39,14.1,2.39l1.93-2.54c1.73-2.3,5.3-1.73,6.23,1l3.6,10.43s7.63,3,11.38,11.25c3.75,8.26,2.51,14.31,2.51,14.31Z"
           id="path234"
           style="fill:#ff9966;fill-opacity:1" />
      </g>
      <g
         id="g282"
         style="fill:#ff9966;fill-opacity:1">
        <path
           class="cls-1"
           d="M215.55,234.31l6.38,9.48h.03s-6.41-9.48-6.41-9.48ZM225.47,203.77v.03c.37.24.75.49,1.13.75-.38-.29-.76-.55-1.13-.78Z"
           id="path238"
           style="fill:#ff9966;fill-opacity:1" />
        <path
           class="cls-1"
           d="M236.36,214.51c-.24-.31-.49-.61-.73-.91-.46-.57-.91-1.12-1.36-1.66.45.54.94,1.09,1.39,1.66.24.3.48.61.7.91Z"
           id="path240"
           style="fill:#ff9966;fill-opacity:1" />
        <path
           class="cls-1"
           d="M245.35,189.42c-.19.34-.39.64-.62.95-.45.64-.9,1.24-1.42,1.85.49-.61.94-1.25,1.39-1.87.23-.32.46-.63.65-.93Z"
           id="path242"
           style="fill:#ff9966;fill-opacity:1" />
        <path
           class="cls-1"
           d="M251.87,168.81c-.03.63-.09,1.29-.18,1.89.03-.32.05-.64.07-.96.02-.32.04-.64.05-.96h.01l.05.03Z"
           id="path244"
           style="fill:#ff9966;fill-opacity:1" />
        <g
           id="g252"
           style="fill:#ff9966;fill-opacity:1">
          <path
             class="cls-1"
             d="M251.81,168.78c-.01.32-.03.64-.05.96.02-.32.04-.64.06-.96h-.01ZM250.69,153.3c-.38-1.77-.86-3.45-1.45-5.04.53,1.95,1.02,3.65,1.45,5.04ZM54.3,112.91l-.02,13.69h29.62l.08-13.48v-.24h-29.68v.03Z"
             id="path246"
             style="fill:#ff9966;fill-opacity:1" />
          <path
             class="cls-1"
             d="M251.81,168.78c-.01.32-.03.64-.05.96.02-.32.04-.64.06-.96h-.01ZM250.69,153.3c-.38-1.77-.86-3.45-1.45-5.04.53,1.95,1.02,3.65,1.45,5.04ZM54.3,112.91l-.02,13.69h29.62l.08-13.48v-.24h-29.68v.03Z"
             id="path248"
             style="fill:#ff9966;fill-opacity:1" />
          <path
             class="cls-1"
             d="M251.81,168.78c-.01.32-.03.64-.05.96.02-.32.04-.64.06-.96h-.01ZM250.69,153.3c-.38-1.77-.86-3.45-1.45-5.04.53,1.95,1.02,3.65,1.45,5.04ZM54.3,112.91l-.02,13.69h29.62l.08-13.48v-.24h-29.68v.03Z"
             id="path250"
             style="fill:#ff9966;fill-opacity:1" />
        </g>
        <g
           id="g278"
           style="fill:#ff9966;fill-opacity:1">
          <g
             id="g260"
             style="fill:#ff9966;fill-opacity:1">
            <path
               class="cls-1"
               d="M263.61,117.49c-.5,5.68-14.73,9.37-12.73-2.4,2-11.77,3.51-13.27,3.51-13.27,0,0,9.78,9.42,9.22,15.67Z"
               id="path254"
               style="fill:#ff9966;fill-opacity:1" />
            <circle
               class="cls-1"
               cx="276.55"
               cy="132.89"
               r="8.89"
               id="circle256"
               style="fill:#ff9966;fill-opacity:1" />
            <path
               class="cls-1"
               d="M293.23,143.25l6.31,10.8c.86,1.47.16,3.37-1.46,3.92l-7.65,2.61c-.64.22-1.33.19-1.95-.08l-18.02-7.85c-1.91-.83-2.2-3.42-.52-4.65h0c.53-.39,1.19-.57,1.85-.51l8.59.81c.67.06,1.34-.13,1.88-.53l7.01-5.3c1.29-.98,3.14-.61,3.96.79Z"
               id="path258"
               style="fill:#ff9966;fill-opacity:1" />
          </g>
          <g
             id="g268"
             style="fill:#ff9966;fill-opacity:1">
            <path
               class="cls-1"
               d="M263.61,117.49c-.5,5.68-14.73,9.37-12.73-2.4,2-11.77,3.51-13.27,3.51-13.27,0,0,9.78,9.42,9.22,15.67Z"
               id="path262"
               style="fill:#ff9966;fill-opacity:1" />
            <circle
               class="cls-1"
               cx="276.55"
               cy="132.89"
               r="8.89"
               id="circle264"
               style="fill:#ff9966;fill-opacity:1" />
            <path
               class="cls-1"
               d="M293.23,143.25l6.31,10.8c.86,1.47.16,3.37-1.46,3.92l-7.65,2.61c-.64.22-1.33.19-1.95-.08l-18.02-7.85c-1.91-.83-2.2-3.42-.52-4.65h0c.53-.39,1.19-.57,1.85-.51l8.59.81c.67.06,1.34-.13,1.88-.53l7.01-5.3c1.29-.98,3.14-.61,3.96.79Z"
               id="path266"
               style="fill:#ff9966;fill-opacity:1" />
          </g>
          <g
             id="g276"
             style="fill:#ff9966;fill-opacity:1">
            <path
               class="cls-1"
               d="M263.61,117.49c-.5,5.68-14.73,9.37-12.73-2.4,2-11.77,3.51-13.27,3.51-13.27,0,0,9.78,9.42,9.22,15.67Z"
               id="path270"
               style="fill:#ff9966;fill-opacity:1" />
            <circle
               class="cls-1"
               cx="276.55"
               cy="132.89"
               r="8.89"
               id="circle272"
               style="fill:#ff9966;fill-opacity:1" />
            <path
               class="cls-1"
               d="M293.23,143.25l6.31,10.8c.86,1.47.16,3.37-1.46,3.92l-7.65,2.61c-.64.22-1.33.19-1.95-.08l-18.02-7.85c-1.91-.83-2.2-3.42-.52-4.65h0c.53-.39,1.19-.57,1.85-.51l8.59.81c.67.06,1.34-.13,1.88-.53l7.01-5.3c1.29-.98,3.14-.61,3.96.79Z"
               id="path274"
               style="fill:#ff9966;fill-opacity:1" />
          </g>
        </g>
        <path
           class="cls-1"
           d="M290.45,122.38s-4.75-6.53-9.53-6.78c-4.54-.27-11.28,3.94-11.89,4.3.31-.49,3.78-6.38-.03-15.34-4.02-9.34-12.01-29.21-24.28-2.75-4.14,8.94.95,33.19,4.52,46.45.53,1.95,1.02,3.65,1.45,5.04h0c.83,3.73,1.24,7.84,1.24,12.33,0,1.05-.03,2.12-.11,3.15h-.01c-.01.32-.03.64-.05.96-.02.32-.04.64-.07.96v.02c-.03.62-.12,1.23-.21,1.87-.04.54-.13,1.09-.25,1.6-.09.42-.15.85-.24,1.27-.06.45-.15.9-.3,1.36-.09.52-.21,1-.36,1.49-.09.47-.25.93-.4,1.41-.02.1-.02.15-.09.25-.08.3-.21.6-.3.9,0,.1-.03.19-.08.27-.19.62-.43,1.19-.68,1.76-.02.09-.06.22-.11.3-.25.58-.49,1.15-.79,1.73-.03.12-.1.21-.15.32-.1.19-.18.4-.31.59-.02.11-.09.21-.15.32-.24.49-.51.98-.79,1.43-.02.06-.06.12-.11.21-.21.36-.42.7-.67,1.06-.05.18-.18.33-.3.49-.02.02-.03.05-.05.07-.19.3-.42.61-.65.93-.45.62-.9,1.26-1.39,1.87-.48.57-.97,1.15-1.48,1.72-.22.28-.48.54-.75.82-.25.23-.53.51-.79.76-.04.05-.06.09-.1.09-.51.51-.99.96-1.54,1.38-.61.49-1.21.98-1.84,1.4-.24.18-.49.33-.73.51-.72.45-1.45.9-2.21,1.3-.81.45-1.69.88-2.6,1.24-.66.31-1.33.55-2.02.78-.12.04-.27.1-.4.13-.27.09-.51.15-.79.24-.06.03-.11.06-.17.06-.73.21-1.49.42-2.25.57l-.17.55v.03c.37.24.75.49,1.13.75.01.01.03.02.04.03.4.32.79.62,1.19.94.42.34.81.67,1.23,1.04,1.67,1.47,3.39,3.26,5.21,5.38.45.54.9,1.09,1.36,1.66.24.3.49.6.73.91,1.38,1.72,2.78,3.47,4.14,5.32.66.9,1.36,1.85,2.05,2.81,1.4,1.88,2.76,3.85,4.12,5.87,1.6,2.36,3.11,4.66,4.53,6.87.64.94,1.24,1.87,1.82,2.81.61.94,1.18,1.85,1.72,2.75.55.91,1.1,1.78,1.64,2.67v.17h-34.42l-6.41-9.47-1.18-1.74-12.43-18.39c-1.73-2.6-3.12-4.45-4.15-5.57-.27-.28-.55-.54-.82-.75t-.03-.04c-.57-.41-1.17-.75-1.84-1-.33-.11-.67-.2-1.03-.26-1.42-.25-3.66-.37-6.74-.37h-2.91v37.59h-30.64v-27.09c-.61,2.93-1.42,5.63-2.36,8.04-2.89,7.29-7.95,12.55-15.09,15.82-7.17,3.26-17.3,4.9-30.4,4.9s-24.1-1.64-31.57-4.9c-7.47-3.27-12.67-8.53-15.64-15.82-2.97-7.28-4.44-17-4.44-29.1v-69.03h29.62l.08-13.48-.07,13.44v68.53c0,6.3.61,11.22,1.85,14.83,1.24,3.56,3.45,6.07,6.66,7.49,3.23,1.42,7.7,2.12,13.51,2.12,5.45,0,9.63-.7,12.53-2.12,2.89-1.42,4.89-3.93,6.02-7.49,1.08-3.61,1.66-8.53,1.66-14.83v-35.53c0-18.23,14.77-33,33.01-33h35.15s-.1-.01-.15-.01c36.07-2.69,51.84-39.56,56.55-41.01,5.02-1.57,14.1,2.39,14.1,2.39l1.93-2.54c1.73-2.3,5.3-1.73,6.23,1l3.6,10.43s7.63,3,11.38,11.25c3.75,8.26,2.51,14.31,2.51,14.31Z"
           id="path280"
           style="fill:#ff9966;fill-opacity:1" />
      </g>
      <g
         id="g328"
         style="fill:#ff9966;fill-opacity:1">
        <path
           class="cls-1"
           d="M215.55,234.31l6.38,9.48h.03s-6.41-9.48-6.41-9.48ZM225.47,203.77v.03c.37.24.75.49,1.13.75-.38-.29-.76-.55-1.13-.78Z"
           id="path284"
           style="fill:#ff9966;fill-opacity:1" />
        <path
           class="cls-1"
           d="M236.36,214.51c-.24-.31-.49-.61-.73-.91-.46-.57-.91-1.12-1.36-1.66.45.54.94,1.09,1.39,1.66.24.3.48.61.7.91Z"
           id="path286"
           style="fill:#ff9966;fill-opacity:1" />
        <path
           class="cls-1"
           d="M245.35,189.42c-.19.34-.39.64-.62.95-.45.64-.9,1.24-1.42,1.85.49-.61.94-1.25,1.39-1.87.23-.32.46-.63.65-.93Z"
           id="path288"
           style="fill:#ff9966;fill-opacity:1" />
        <path
           class="cls-1"
           d="M251.87,168.81c-.03.63-.09,1.29-.18,1.89.03-.32.05-.64.07-.96.02-.32.04-.64.05-.96h.01l.05.03Z"
           id="path290"
           style="fill:#ff9966;fill-opacity:1" />
        <g
           id="g298"
           style="fill:#ff9966;fill-opacity:1">
          <path
             class="cls-1"
             d="M251.81,168.78c-.01.32-.03.64-.05.96.02-.32.04-.64.06-.96h-.01ZM250.69,153.3c-.38-1.77-.86-3.45-1.45-5.04.53,1.95,1.02,3.65,1.45,5.04ZM54.3,112.91l-.02,13.69h29.62l.08-13.48v-.24h-29.68v.03Z"
             id="path292"
             style="fill:#ff9966;fill-opacity:1" />
          <path
             class="cls-1"
             d="M251.81,168.78c-.01.32-.03.64-.05.96.02-.32.04-.64.06-.96h-.01ZM250.69,153.3c-.38-1.77-.86-3.45-1.45-5.04.53,1.95,1.02,3.65,1.45,5.04ZM54.3,112.91l-.02,13.69h29.62l.08-13.48v-.24h-29.68v.03Z"
             id="path294"
             style="fill:#ff9966;fill-opacity:1" />
          <path
             class="cls-1"
             d="M251.81,168.78c-.01.32-.03.64-.05.96.02-.32.04-.64.06-.96h-.01ZM250.69,153.3c-.38-1.77-.86-3.45-1.45-5.04.53,1.95,1.02,3.65,1.45,5.04ZM54.3,112.91l-.02,13.69h29.62l.08-13.48v-.24h-29.68v.03Z"
             id="path296"
             style="fill:#ff9966;fill-opacity:1" />
        </g>
        <g
           id="g324"
           style="fill:#ff9966;fill-opacity:1">
          <g
             id="g306"
             style="fill:#ff9966;fill-opacity:1">
            <path
               class="cls-1"
               d="M263.61,117.49c-.5,5.68-14.73,9.37-12.73-2.4,2-11.77,3.51-13.27,3.51-13.27,0,0,9.78,9.42,9.22,15.67Z"
               id="path300"
               style="fill:#ff9966;fill-opacity:1" />
            <circle
               class="cls-1"
               cx="276.55"
               cy="132.89"
               r="8.89"
               id="circle302"
               style="fill:#ff9966;fill-opacity:1" />
            <path
               class="cls-1"
               d="M293.23,143.25l6.31,10.8c.86,1.47.16,3.37-1.46,3.92l-7.65,2.61c-.64.22-1.33.19-1.95-.08l-18.02-7.85c-1.91-.83-2.2-3.42-.52-4.65h0c.53-.39,1.19-.57,1.85-.51l8.59.81c.67.06,1.34-.13,1.88-.53l7.01-5.3c1.29-.98,3.14-.61,3.96.79Z"
               id="path304"
               style="fill:#ff9966;fill-opacity:1" />
          </g>
          <g
             id="g314"
             style="fill:#ff9966;fill-opacity:1">
            <path
               class="cls-1"
               d="M263.61,117.49c-.5,5.68-14.73,9.37-12.73-2.4,2-11.77,3.51-13.27,3.51-13.27,0,0,9.78,9.42,9.22,15.67Z"
               id="path308"
               style="fill:#ff9966;fill-opacity:1" />
            <circle
               class="cls-1"
               cx="276.55"
               cy="132.89"
               r="8.89"
               id="circle310"
               style="fill:#ff9966;fill-opacity:1" />
            <path
               class="cls-1"
               d="M293.23,143.25l6.31,10.8c.86,1.47.16,3.37-1.46,3.92l-7.65,2.61c-.64.22-1.33.19-1.95-.08l-18.02-7.85c-1.91-.83-2.2-3.42-.52-4.65h0c.53-.39,1.19-.57,1.85-.51l8.59.81c.67.06,1.34-.13,1.88-.53l7.01-5.3c1.29-.98,3.14-.61,3.96.79Z"
               id="path312"
               style="fill:#ff9966;fill-opacity:1" />
          </g>
          <g
             id="g322"
             style="fill:#ff9966;fill-opacity:1">
            <path
               class="cls-1"
               d="M263.61,117.49c-.5,5.68-14.73,9.37-12.73-2.4,2-11.77,3.51-13.27,3.51-13.27,0,0,9.78,9.42,9.22,15.67Z"
               id="path316"
               style="fill:#ff9966;fill-opacity:1" />
            <circle
               class="cls-1"
               cx="276.55"
               cy="132.89"
               r="8.89"
               id="circle318"
               style="fill:#ff9966;fill-opacity:1" />
            <path
               class="cls-1"
               d="M293.23,143.25l6.31,10.8c.86,1.47.16,3.37-1.46,3.92l-7.65,2.61c-.64.22-1.33.19-1.95-.08l-18.02-7.85c-1.91-.83-2.2-3.42-.52-4.65h0c.53-.39,1.19-.57,1.85-.51l8.59.81c.67.06,1.34-.13,1.88-.53l7.01-5.3c1.29-.98,3.14-.61,3.96.79Z"
               id="path320"
               style="fill:#ff9966;fill-opacity:1" />
          </g>
        </g>
        <path
           class="cls-1"
           d="M290.45,122.38s-4.75-6.53-9.53-6.78c-4.54-.27-11.28,3.94-11.89,4.3.31-.49,3.78-6.38-.03-15.34-4.02-9.34-12.01-29.21-24.28-2.75-4.14,8.94.95,33.19,4.52,46.45.53,1.95,1.02,3.65,1.45,5.04h0c.83,3.73,1.24,7.84,1.24,12.33,0,1.05-.03,2.12-.11,3.15h-.01c-.01.32-.03.64-.05.96-.02.32-.04.64-.07.96v.02c-.03.62-.12,1.23-.21,1.87-.04.54-.13,1.09-.25,1.6-.09.42-.15.85-.24,1.27-.06.45-.15.9-.3,1.36-.09.52-.21,1-.36,1.49-.09.47-.25.93-.4,1.41-.02.1-.02.15-.09.25-.08.3-.21.6-.3.9,0,.1-.03.19-.08.27-.19.62-.43,1.19-.68,1.76-.02.09-.06.22-.11.3-.25.58-.49,1.15-.79,1.73-.03.12-.1.21-.15.32-.1.19-.18.4-.31.59-.02.11-.09.21-.15.32-.24.49-.51.98-.79,1.43-.02.06-.06.12-.11.21-.21.36-.42.7-.67,1.06-.05.18-.18.33-.3.49-.02.02-.03.05-.05.07-.19.3-.42.61-.65.93-.45.62-.9,1.26-1.39,1.87-.48.57-.97,1.15-1.48,1.72-.22.28-.48.54-.75.82-.25.23-.53.51-.79.76-.04.05-.06.09-.1.09-.51.51-.99.96-1.54,1.38-.61.49-1.21.98-1.84,1.4-.24.18-.49.33-.73.51-.72.45-1.45.9-2.21,1.3-.81.45-1.69.88-2.6,1.24-.66.31-1.33.55-2.02.78-.12.04-.27.1-.4.13-.27.09-.51.15-.79.24-.06.03-.11.06-.17.06-.73.21-1.49.42-2.25.57l-.17.55v.03c.37.24.75.49,1.13.75.01.01.03.02.04.03.4.32.79.62,1.19.94.42.34.81.67,1.23,1.04,1.67,1.47,3.39,3.26,5.21,5.38.45.54.9,1.09,1.36,1.66.24.3.49.6.73.91,1.38,1.72,2.78,3.47,4.14,5.32.66.9,1.36,1.85,2.05,2.81,1.4,1.88,2.76,3.85,4.12,5.87,1.6,2.36,3.11,4.66,4.53,6.87.64.94,1.24,1.87,1.82,2.81.61.94,1.18,1.85,1.72,2.75.55.91,1.1,1.78,1.64,2.67v.17h-34.42l-6.41-9.47-1.18-1.74-12.43-18.39c-1.73-2.6-3.12-4.45-4.15-5.57-.27-.28-.55-.54-.82-.75t-.03-.04c-.57-.41-1.17-.75-1.84-1-.33-.11-.67-.2-1.03-.26-1.42-.25-3.66-.37-6.74-.37h-2.91v37.59h-30.64v-27.09c-.61,2.93-1.42,5.63-2.36,8.04-2.89,7.29-7.95,12.55-15.09,15.82-7.17,3.26-17.3,4.9-30.4,4.9s-24.1-1.64-31.57-4.9c-7.47-3.27-12.67-8.53-15.64-15.82-2.97-7.28-4.44-17-4.44-29.1v-69.03h29.62l.08-13.48-.07,13.44v68.53c0,6.3.61,11.22,1.85,14.83,1.24,3.56,3.45,6.07,6.66,7.49,3.23,1.42,7.7,2.12,13.51,2.12,5.45,0,9.63-.7,12.53-2.12,2.89-1.42,4.89-3.93,6.02-7.49,1.08-3.61,1.66-8.53,1.66-14.83v-35.53c0-18.23,14.77-33,33.01-33h35.15s-.1-.01-.15-.01c36.07-2.69,51.84-39.56,56.55-41.01,5.02-1.57,14.1,2.39,14.1,2.39l1.93-2.54c1.73-2.3,5.3-1.73,6.23,1l3.6,10.43s7.63,3,11.38,11.25c3.75,8.26,2.51,14.31,2.51,14.31Z"
           id="path326"
           style="fill:#ff9966;fill-opacity:1" />
      </g>
    </g>
    <g
       id="g504"
       style="fill:#ff9966;fill-opacity:1">
      <g
         id="g500"
         style="fill:#ff9966;fill-opacity:1">
        <g
           id="g386"
           style="fill:#ff9966;fill-opacity:1">
          <g
             id="g348"
             style="fill:#ff9966;fill-opacity:1">
            <rect
               class="cls-1"
               y="55.08"
               width="29.95"
               height="17.38"
               id="rect332"
               style="fill:#ff9966;fill-opacity:1" />
            <path
               class="cls-1"
               d="M3.77,24.52l26.37,15.24c-.13.7-.19,1.4-.19,2.14v1.65H0v-1.65c0-6.19,1.34-12.08,3.77-17.38Z"
               id="path334"
               style="fill:#ff9966;fill-opacity:1" />
            <path
               class="cls-1"
               d="M37.16,0v31.12L9.6,15.19C16.43,7.09,26.15,1.48,37.16,0Z"
               id="path336"
               style="fill:#ff9966;fill-opacity:1" />
            <path
               class="cls-1"
               d="M75.31,15.88l-26.37,15.24V.67c10.53,1.42,19.82,7.48,26.37,15.21Z"
               id="path338"
               style="fill:#ff9966;fill-opacity:1" />
            <polygon
               class="cls-1"
               points="83.98 112.91 83.98 113.12 83.9 126.6 54.28 126.6 54.3 112.91 83.98 112.91"
               id="polygon340"
               style="fill:#ff9966;fill-opacity:1" />
            <polygon
               class="cls-1"
               points="54.33 84 84.13 84 84.03 101.36 54.31 101.36 54.33 84"
               id="polygon342"
               style="fill:#ff9966;fill-opacity:1" />
            <polygon
               class="cls-1"
               points="84.26 55.08 84.18 72.45 54.35 72.45 54.37 55.08 84.26 55.08"
               id="polygon344"
               style="fill:#ff9966;fill-opacity:1" />
            <path
               class="cls-1"
               d="M84.34,41.9v1.65h-29.95v-1.65c0-.8-.08-1.57-.23-2.31l26.35-15.2c2.46,5.34,3.82,11.26,3.82,17.51Z"
               id="path346"
               style="fill:#ff9966;fill-opacity:1" />
          </g>
          <g
             id="g366"
             style="fill:#ff9966;fill-opacity:1">
            <rect
               class="cls-1"
               y="55.08"
               width="29.95"
               height="17.38"
               id="rect350"
               style="fill:#ff9966;fill-opacity:1" />
            <path
               class="cls-1"
               d="M3.77,24.52l26.37,15.24c-.13.7-.19,1.4-.19,2.14v1.65H0v-1.65c0-6.19,1.34-12.08,3.77-17.38Z"
               id="path352"
               style="fill:#ff9966;fill-opacity:1" />
            <path
               class="cls-1"
               d="M37.16,0v31.12L9.6,15.19C16.43,7.09,26.15,1.48,37.16,0Z"
               id="path354"
               style="fill:#ff9966;fill-opacity:1" />
            <path
               class="cls-1"
               d="M75.31,15.88l-26.37,15.24V.67c10.53,1.42,19.82,7.48,26.37,15.21Z"
               id="path356"
               style="fill:#ff9966;fill-opacity:1" />
            <polygon
               class="cls-1"
               points="83.98 112.91 83.98 113.12 83.9 126.6 54.28 126.6 54.3 112.91 83.98 112.91"
               id="polygon358"
               style="fill:#ff9966;fill-opacity:1" />
            <polygon
               class="cls-1"
               points="54.33 84 84.13 84 84.03 101.36 54.31 101.36 54.33 84"
               id="polygon360"
               style="fill:#ff9966;fill-opacity:1" />
            <polygon
               class="cls-1"
               points="84.26 55.08 84.18 72.45 54.35 72.45 54.37 55.08 84.26 55.08"
               id="polygon362"
               style="fill:#ff9966;fill-opacity:1" />
            <path
               class="cls-1"
               d="M84.34,41.9v1.65h-29.95v-1.65c0-.8-.08-1.57-.23-2.31l26.35-15.2c2.46,5.34,3.82,11.26,3.82,17.51Z"
               id="path364"
               style="fill:#ff9966;fill-opacity:1" />
          </g>
          <g
             id="g384"
             style="fill:#ff9966;fill-opacity:1">
            <rect
               class="cls-1"
               y="55.08"
               width="29.95"
               height="17.38"
               id="rect368"
               style="fill:#ff9966;fill-opacity:1" />
            <path
               class="cls-1"
               d="M3.77,24.52l26.37,15.24c-.13.7-.19,1.4-.19,2.14v1.65H0v-1.65c0-6.19,1.34-12.08,3.77-17.38Z"
               id="path370"
               style="fill:#ff9966;fill-opacity:1" />
            <path
               class="cls-1"
               d="M37.16,0v31.12L9.6,15.19C16.43,7.09,26.15,1.48,37.16,0Z"
               id="path372"
               style="fill:#ff9966;fill-opacity:1" />
            <path
               class="cls-1"
               d="M75.31,15.88l-26.37,15.24V.67c10.53,1.42,19.82,7.48,26.37,15.21Z"
               id="path374"
               style="fill:#ff9966;fill-opacity:1" />
            <polygon
               class="cls-1"
               points="83.98 112.91 83.98 113.12 83.9 126.6 54.28 126.6 54.3 112.91 83.98 112.91"
               id="polygon376"
               style="fill:#ff9966;fill-opacity:1" />
            <polygon
               class="cls-1"
               points="54.33 84 84.13 84 84.03 101.36 54.31 101.36 54.33 84"
               id="polygon378"
               style="fill:#ff9966;fill-opacity:1" />
            <polygon
               class="cls-1"
               points="84.26 55.08 84.18 72.45 54.35 72.45 54.37 55.08 84.26 55.08"
               id="polygon380"
               style="fill:#ff9966;fill-opacity:1" />
            <path
               class="cls-1"
               d="M84.34,41.9v1.65h-29.95v-1.65c0-.8-.08-1.57-.23-2.31l26.35-15.2c2.46,5.34,3.82,11.26,3.82,17.51Z"
               id="path382"
               style="fill:#ff9966;fill-opacity:1" />
          </g>
        </g>
        <g
           id="g442"
           style="fill:#ff9966;fill-opacity:1">
          <g
             id="g404"
             style="fill:#ff9966;fill-opacity:1">
            <rect
               class="cls-1"
               y="55.08"
               width="29.95"
               height="17.38"
               id="rect388"
               style="fill:#ff9966;fill-opacity:1" />
            <path
               class="cls-1"
               d="M3.77,24.52l26.37,15.24c-.13.7-.19,1.4-.19,2.14v1.65H0v-1.65c0-6.19,1.34-12.08,3.77-17.38Z"
               id="path390"
               style="fill:#ff9966;fill-opacity:1" />
            <path
               class="cls-1"
               d="M37.16,0v31.12L9.6,15.19C16.43,7.09,26.15,1.48,37.16,0Z"
               id="path392"
               style="fill:#ff9966;fill-opacity:1" />
            <path
               class="cls-1"
               d="M75.31,15.88l-26.37,15.24V.67c10.53,1.42,19.82,7.48,26.37,15.21Z"
               id="path394"
               style="fill:#ff9966;fill-opacity:1" />
            <polygon
               class="cls-1"
               points="83.98 112.91 83.98 113.12 83.9 126.6 54.28 126.6 54.3 112.91 83.98 112.91"
               id="polygon396"
               style="fill:#ff9966;fill-opacity:1" />
            <polygon
               class="cls-1"
               points="54.33 84 84.13 84 84.03 101.36 54.31 101.36 54.33 84"
               id="polygon398"
               style="fill:#ff9966;fill-opacity:1" />
            <polygon
               class="cls-1"
               points="84.26 55.08 84.18 72.45 54.35 72.45 54.37 55.08 84.26 55.08"
               id="polygon400"
               style="fill:#ff9966;fill-opacity:1" />
            <path
               class="cls-1"
               d="M84.34,41.9v1.65h-29.95v-1.65c0-.8-.08-1.57-.23-2.31l26.35-15.2c2.46,5.34,3.82,11.26,3.82,17.51Z"
               id="path402"
               style="fill:#ff9966;fill-opacity:1" />
          </g>
          <g
             id="g422"
             style="fill:#ff9966;fill-opacity:1">
            <rect
               class="cls-1"
               y="55.08"
               width="29.95"
               height="17.38"
               id="rect406"
               style="fill:#ff9966;fill-opacity:1" />
            <path
               class="cls-1"
               d="M3.77,24.52l26.37,15.24c-.13.7-.19,1.4-.19,2.14v1.65H0v-1.65c0-6.19,1.34-12.08,3.77-17.38Z"
               id="path408"
               style="fill:#ff9966;fill-opacity:1" />
            <path
               class="cls-1"
               d="M37.16,0v31.12L9.6,15.19C16.43,7.09,26.15,1.48,37.16,0Z"
               id="path410"
               style="fill:#ff9966;fill-opacity:1" />
            <path
               class="cls-1"
               d="M75.31,15.88l-26.37,15.24V.67c10.53,1.42,19.82,7.48,26.37,15.21Z"
               id="path412"
               style="fill:#ff9966;fill-opacity:1" />
            <polygon
               class="cls-1"
               points="83.98 112.91 83.98 113.12 83.9 126.6 54.28 126.6 54.3 112.91 83.98 112.91"
               id="polygon414"
               style="fill:#ff9966;fill-opacity:1" />
            <polygon
               class="cls-1"
               points="54.33 84 84.13 84 84.03 101.36 54.31 101.36 54.33 84"
               id="polygon416"
               style="fill:#ff9966;fill-opacity:1" />
            <polygon
               class="cls-1"
               points="84.26 55.08 84.18 72.45 54.35 72.45 54.37 55.08 84.26 55.08"
               id="polygon418"
               style="fill:#ff9966;fill-opacity:1" />
            <path
               class="cls-1"
               d="M84.34,41.9v1.65h-29.95v-1.65c0-.8-.08-1.57-.23-2.31l26.35-15.2c2.46,5.34,3.82,11.26,3.82,17.51Z"
               id="path420"
               style="fill:#ff9966;fill-opacity:1" />
          </g>
          <g
             id="g440"
             style="fill:#ff9966;fill-opacity:1">
            <rect
               class="cls-1"
               y="55.08"
               width="29.95"
               height="17.38"
               id="rect424"
               style="fill:#ff9966;fill-opacity:1" />
            <path
               class="cls-1"
               d="M3.77,24.52l26.37,15.24c-.13.7-.19,1.4-.19,2.14v1.65H0v-1.65c0-6.19,1.34-12.08,3.77-17.38Z"
               id="path426"
               style="fill:#ff9966;fill-opacity:1" />
            <path
               class="cls-1"
               d="M37.16,0v31.12L9.6,15.19C16.43,7.09,26.15,1.48,37.16,0Z"
               id="path428"
               style="fill:#ff9966;fill-opacity:1" />
            <path
               class="cls-1"
               d="M75.31,15.88l-26.37,15.24V.67c10.53,1.42,19.82,7.48,26.37,15.21Z"
               id="path430"
               style="fill:#ff9966;fill-opacity:1" />
            <polygon
               class="cls-1"
               points="83.98 112.91 83.98 113.12 83.9 126.6 54.28 126.6 54.3 112.91 83.98 112.91"
               id="polygon432"
               style="fill:#ff9966;fill-opacity:1" />
            <polygon
               class="cls-1"
               points="54.33 84 84.13 84 84.03 101.36 54.31 101.36 54.33 84"
               id="polygon434"
               style="fill:#ff9966;fill-opacity:1" />
            <polygon
               class="cls-1"
               points="84.26 55.08 84.18 72.45 54.35 72.45 54.37 55.08 84.26 55.08"
               id="polygon436"
               style="fill:#ff9966;fill-opacity:1" />
            <path
               class="cls-1"
               d="M84.34,41.9v1.65h-29.95v-1.65c0-.8-.08-1.57-.23-2.31l26.35-15.2c2.46,5.34,3.82,11.26,3.82,17.51Z"
               id="path438"
               style="fill:#ff9966;fill-opacity:1" />
          </g>
        </g>
        <g
           id="g498"
           style="fill:#ff9966;fill-opacity:1">
          <g
             id="g460"
             style="fill:#ff9966;fill-opacity:1">
            <rect
               class="cls-1"
               y="55.08"
               width="29.95"
               height="17.38"
               id="rect444"
               style="fill:#ff9966;fill-opacity:1" />
            <path
               class="cls-1"
               d="M3.77,24.52l26.37,15.24c-.13.7-.19,1.4-.19,2.14v1.65H0v-1.65c0-6.19,1.34-12.08,3.77-17.38Z"
               id="path446"
               style="fill:#ff9966;fill-opacity:1" />
            <path
               class="cls-1"
               d="M37.16,0v31.12L9.6,15.19C16.43,7.09,26.15,1.48,37.16,0Z"
               id="path448"
               style="fill:#ff9966;fill-opacity:1" />
            <path
               class="cls-1"
               d="M75.31,15.88l-26.37,15.24V.67c10.53,1.42,19.82,7.48,26.37,15.21Z"
               id="path450"
               style="fill:#ff9966;fill-opacity:1" />
            <polygon
               class="cls-1"
               points="83.98 112.91 83.98 113.12 83.9 126.6 54.28 126.6 54.3 112.91 83.98 112.91"
               id="polygon452"
               style="fill:#ff9966;fill-opacity:1" />
            <polygon
               class="cls-1"
               points="54.33 84 84.13 84 84.03 101.36 54.31 101.36 54.33 84"
               id="polygon454"
               style="fill:#ff9966;fill-opacity:1" />
            <polygon
               class="cls-1"
               points="84.26 55.08 84.18 72.45 54.35 72.45 54.37 55.08 84.26 55.08"
               id="polygon456"
               style="fill:#ff9966;fill-opacity:1" />
            <path
               class="cls-1"
               d="M84.34,41.9v1.65h-29.95v-1.65c0-.8-.08-1.57-.23-2.31l26.35-15.2c2.46,5.34,3.82,11.26,3.82,17.51Z"
               id="path458"
               style="fill:#ff9966;fill-opacity:1" />
          </g>
          <g
             id="g478"
             style="fill:#ff9966;fill-opacity:1">
            <rect
               class="cls-1"
               y="55.08"
               width="29.95"
               height="17.38"
               id="rect462"
               style="fill:#ff9966;fill-opacity:1" />
            <path
               class="cls-1"
               d="M3.77,24.52l26.37,15.24c-.13.7-.19,1.4-.19,2.14v1.65H0v-1.65c0-6.19,1.34-12.08,3.77-17.38Z"
               id="path464"
               style="fill:#ff9966;fill-opacity:1" />
            <path
               class="cls-1"
               d="M37.16,0v31.12L9.6,15.19C16.43,7.09,26.15,1.48,37.16,0Z"
               id="path466"
               style="fill:#ff9966;fill-opacity:1" />
            <path
               class="cls-1"
               d="M75.31,15.88l-26.37,15.24V.67c10.53,1.42,19.82,7.48,26.37,15.21Z"
               id="path468"
               style="fill:#ff9966;fill-opacity:1" />
            <polygon
               class="cls-1"
               points="83.98 112.91 83.98 113.12 83.9 126.6 54.28 126.6 54.3 112.91 83.98 112.91"
               id="polygon470"
               style="fill:#ff9966;fill-opacity:1" />
            <polygon
               class="cls-1"
               points="54.33 84 84.13 84 84.03 101.36 54.31 101.36 54.33 84"
               id="polygon472"
               style="fill:#ff9966;fill-opacity:1" />
            <polygon
               class="cls-1"
               points="84.26 55.08 84.18 72.45 54.35 72.45 54.37 55.08 84.26 55.08"
               id="polygon474"
               style="fill:#ff9966;fill-opacity:1" />
            <path
               class="cls-1"
               d="M84.34,41.9v1.65h-29.95v-1.65c0-.8-.08-1.57-.23-2.31l26.35-15.2c2.46,5.34,3.82,11.26,3.82,17.51Z"
               id="path476"
               style="fill:#ff9966;fill-opacity:1" />
          </g>
          <g
             id="g496"
             style="fill:#ff9966;fill-opacity:1">
            <rect
               class="cls-1"
               y="55.08"
               width="29.95"
               height="17.38"
               id="rect480"
               style="fill:#ff9966;fill-opacity:1" />
            <path
               class="cls-1"
               d="M3.77,24.52l26.37,15.24c-.13.7-.19,1.4-.19,2.14v1.65H0v-1.65c0-6.19,1.34-12.08,3.77-17.38Z"
               id="path482"
               style="fill:#ff9966;fill-opacity:1" />
            <path
               class="cls-1"
               d="M37.16,0v31.12L9.6,15.19C16.43,7.09,26.15,1.48,37.16,0Z"
               id="path484"
               style="fill:#ff9966;fill-opacity:1" />
            <path
               class="cls-1"
               d="M75.31,15.88l-26.37,15.24V.67c10.53,1.42,19.82,7.48,26.37,15.21Z"
               id="path486"
               style="fill:#ff9966;fill-opacity:1" />
            <polygon
               class="cls-1"
               points="83.98 112.91 83.98 113.12 83.9 126.6 54.28 126.6 54.3 112.91 83.98 112.91"
               id="polygon488"
               style="fill:#ff9966;fill-opacity:1" />
            <polygon
               class="cls-1"
               points="54.33 84 84.13 84 84.03 101.36 54.31 101.36 54.33 84"
               id="polygon490"
               style="fill:#ff9966;fill-opacity:1" />
            <polygon
               class="cls-1"
               points="84.26 55.08 84.18 72.45 54.35 72.45 54.37 55.08 84.26 55.08"
               id="polygon492"
               style="fill:#ff9966;fill-opacity:1" />
            <path
               class="cls-1"
               d="M84.34,41.9v1.65h-29.95v-1.65c0-.8-.08-1.57-.23-2.31l26.35-15.2c2.46,5.34,3.82,11.26,3.82,17.51Z"
               id="path494"
               style="fill:#ff9966;fill-opacity:1" />
          </g>
        </g>
      </g>
      <circle
         class="cls-1"
         cx="42.58"
         cy="41.65"
         r="4"
         id="circle502"
         style="fill:#ff9966;fill-opacity:1" />
    </g>
  </g>
</svg>
