<?xml version="1.0" encoding="UTF-8"?>
<svg id="Capa_1" data-name="Capa 1" xmlns="http://www.w3.org/2000/svg" viewBox="0 0 299.92 245.45">
  <defs>
    <style>
      .cls-1 {
        fill: #420add;
      }

      .cls-2 {
        fill: #573c8f;
      }

      .cls-3 {
        fill: #fff;
      }
    </style>
  </defs>
  <g>
    <g>
      <g>
        <path class="cls-2" d="M215.55,234.31l6.38,9.48h.03s-6.41-9.48-6.41-9.48ZM225.47,203.77v.03c.37.24.75.49,1.13.75-.38-.29-.76-.55-1.13-.78Z"/>
        <path class="cls-2" d="M236.36,214.51c-.24-.31-.49-.61-.73-.91-.46-.57-.91-1.12-1.36-1.66.45.54.94,1.09,1.39,1.66.24.3.48.61.7.91Z"/>
        <path class="cls-2" d="M245.35,189.42c-.19.34-.39.64-.62.95-.45.64-.9,1.24-1.42,1.85.49-.61.94-1.25,1.39-1.87.23-.32.46-.63.65-.93Z"/>
        <path class="cls-2" d="M251.87,168.81c-.03.63-.09,1.29-.18,1.89.03-.32.05-.64.07-.96.02-.32.04-.64.05-.96h.01l.05.03Z"/>
        <g>
          <path class="cls-2" d="M251.81,168.78c-.01.32-.03.64-.05.96.02-.32.04-.64.06-.96h-.01ZM250.69,153.3c-.38-1.77-.86-3.45-1.45-5.04.53,1.95,1.02,3.65,1.45,5.04ZM54.3,112.91l-.02,13.69h29.62l.08-13.48v-.24h-29.68v.03Z"/>
          <path class="cls-2" d="M251.81,168.78c-.01.32-.03.64-.05.96.02-.32.04-.64.06-.96h-.01ZM250.69,153.3c-.38-1.77-.86-3.45-1.45-5.04.53,1.95,1.02,3.65,1.45,5.04ZM54.3,112.91l-.02,13.69h29.62l.08-13.48v-.24h-29.68v.03Z"/>
          <path class="cls-2" d="M251.81,168.78c-.01.32-.03.64-.05.96.02-.32.04-.64.06-.96h-.01ZM250.69,153.3c-.38-1.77-.86-3.45-1.45-5.04.53,1.95,1.02,3.65,1.45,5.04ZM54.3,112.91l-.02,13.69h29.62l.08-13.48v-.24h-29.68v.03Z"/>
        </g>
        <g>
          <g>
            <path class="cls-2" d="M263.61,117.49c-.5,5.68-14.73,9.37-12.73-2.4,2-11.77,3.51-13.27,3.51-13.27,0,0,9.78,9.42,9.22,15.67Z"/>
            <circle class="cls-2" cx="276.55" cy="132.89" r="8.89"/>
            <path class="cls-2" d="M293.23,143.25l6.31,10.8c.86,1.47.16,3.37-1.46,3.92l-7.65,2.61c-.64.22-1.33.19-1.95-.08l-18.02-7.85c-1.91-.83-2.2-3.42-.52-4.65h0c.53-.39,1.19-.57,1.85-.51l8.59.81c.67.06,1.34-.13,1.88-.53l7.01-5.3c1.29-.98,3.14-.61,3.96.79Z"/>
          </g>
          <g>
            <path class="cls-2" d="M263.61,117.49c-.5,5.68-14.73,9.37-12.73-2.4,2-11.77,3.51-13.27,3.51-13.27,0,0,9.78,9.42,9.22,15.67Z"/>
            <circle class="cls-2" cx="276.55" cy="132.89" r="8.89"/>
            <path class="cls-2" d="M293.23,143.25l6.31,10.8c.86,1.47.16,3.37-1.46,3.92l-7.65,2.61c-.64.22-1.33.19-1.95-.08l-18.02-7.85c-1.91-.83-2.2-3.42-.52-4.65h0c.53-.39,1.19-.57,1.85-.51l8.59.81c.67.06,1.34-.13,1.88-.53l7.01-5.3c1.29-.98,3.14-.61,3.96.79Z"/>
          </g>
          <g>
            <path class="cls-2" d="M263.61,117.49c-.5,5.68-14.73,9.37-12.73-2.4,2-11.77,3.51-13.27,3.51-13.27,0,0,9.78,9.42,9.22,15.67Z"/>
            <circle class="cls-2" cx="276.55" cy="132.89" r="8.89"/>
            <path class="cls-2" d="M293.23,143.25l6.31,10.8c.86,1.47.16,3.37-1.46,3.92l-7.65,2.61c-.64.22-1.33.19-1.95-.08l-18.02-7.85c-1.91-.83-2.2-3.42-.52-4.65h0c.53-.39,1.19-.57,1.85-.51l8.59.81c.67.06,1.34-.13,1.88-.53l7.01-5.3c1.29-.98,3.14-.61,3.96.79Z"/>
          </g>
        </g>
        <path class="cls-2" d="M290.45,122.38s-4.75-6.53-9.53-6.78c-4.54-.27-11.28,3.94-11.89,4.3.31-.49,3.78-6.38-.03-15.34-4.02-9.34-12.01-29.21-24.28-2.75-4.14,8.94.95,33.19,4.52,46.45.53,1.95,1.02,3.65,1.45,5.04h0c.83,3.73,1.24,7.84,1.24,12.33,0,1.05-.03,2.12-.11,3.15h-.01c-.01.32-.03.64-.05.96-.02.32-.04.64-.07.96v.02c-.03.62-.12,1.23-.21,1.87-.04.54-.13,1.09-.25,1.6-.09.42-.15.85-.24,1.27-.06.45-.15.9-.3,1.36-.09.52-.21,1-.36,1.49-.09.47-.25.93-.4,1.41-.02.1-.02.15-.09.25-.08.3-.21.6-.3.9,0,.1-.03.19-.08.27-.19.62-.43,1.19-.68,1.76-.02.09-.06.22-.11.3-.25.58-.49,1.15-.79,1.73-.03.12-.1.21-.15.32-.1.19-.18.4-.31.59-.02.11-.09.21-.15.32-.24.49-.51.98-.79,1.43-.02.06-.06.12-.11.21-.21.36-.42.7-.67,1.06-.05.18-.18.33-.3.49-.02.02-.03.05-.05.07-.19.3-.42.61-.65.93-.45.62-.9,1.26-1.39,1.87-.48.57-.97,1.15-1.48,1.72-.22.28-.48.54-.75.82-.25.23-.53.51-.79.76-.04.05-.06.09-.1.09-.51.51-.99.96-1.54,1.38-.61.49-1.21.98-1.84,1.4-.24.18-.49.33-.73.51-.72.45-1.45.9-2.21,1.3-.81.45-1.69.88-2.6,1.24-.66.31-1.33.55-2.02.78-.12.04-.27.1-.4.13-.27.09-.51.15-.79.24-.06.03-.11.06-.17.06-.73.21-1.49.42-2.25.57l-.17.55v.03c.37.24.75.49,1.13.75.01.01.03.02.04.03.4.32.79.62,1.19.94.42.34.81.67,1.23,1.04,1.67,1.47,3.39,3.26,5.21,5.38.45.54.9,1.09,1.36,1.66.24.3.49.6.73.91,1.38,1.72,2.78,3.47,4.14,5.32.66.9,1.36,1.85,2.05,2.81,1.4,1.88,2.76,3.85,4.12,5.87,1.6,2.36,3.11,4.66,4.53,6.87.64.94,1.24,1.87,1.82,2.81.61.94,1.18,1.85,1.72,2.75.55.91,1.1,1.78,1.64,2.67v.17h-34.42l-6.41-9.47-1.18-1.74-12.43-18.39c-1.73-2.6-3.12-4.45-4.15-5.57-.27-.28-.55-.54-.82-.75t-.03-.04c-.57-.41-1.17-.75-1.84-1-.33-.11-.67-.2-1.03-.26-1.42-.25-3.66-.37-6.74-.37h-2.91v37.59h-30.64v-27.09c-.61,2.93-1.42,5.63-2.36,8.04-2.89,7.29-7.95,12.55-15.09,15.82-7.17,3.26-17.3,4.9-30.4,4.9s-24.1-1.64-31.57-4.9c-7.47-3.27-12.67-8.53-15.64-15.82-2.97-7.28-4.44-17-4.44-29.1v-69.03h29.62l.08-13.48-.07,13.44v68.53c0,6.3.61,11.22,1.85,14.83,1.24,3.56,3.45,6.07,6.66,7.49,3.23,1.42,7.7,2.12,13.51,2.12,5.45,0,9.63-.7,12.53-2.12,2.89-1.42,4.89-3.93,6.02-7.49,1.08-3.61,1.66-8.53,1.66-14.83v-35.53c0-18.23,14.77-33,33.01-33h35.15s-.1-.01-.15-.01c36.07-2.69,51.84-39.56,56.55-41.01,5.02-1.57,14.1,2.39,14.1,2.39l1.93-2.54c1.73-2.3,5.3-1.73,6.23,1l3.6,10.43s7.63,3,11.38,11.25c3.75,8.26,2.51,14.31,2.51,14.31Z"/>
      </g>
      <g>
        <path class="cls-3" d="M215.55,234.31l6.38,9.48h.03s-6.41-9.48-6.41-9.48ZM225.47,203.77v.03c.37.24.75.49,1.13.75-.38-.29-.76-.55-1.13-.78Z"/>
        <path class="cls-3" d="M236.36,214.51c-.24-.31-.49-.61-.73-.91-.46-.57-.91-1.12-1.36-1.66.45.54.94,1.09,1.39,1.66.24.3.48.61.7.91Z"/>
        <path class="cls-3" d="M245.35,189.42c-.19.34-.39.64-.62.95-.45.64-.9,1.24-1.42,1.85.49-.61.94-1.25,1.39-1.87.23-.32.46-.63.65-.93Z"/>
        <path class="cls-3" d="M251.87,168.81c-.03.63-.09,1.29-.18,1.89.03-.32.05-.64.07-.96.02-.32.04-.64.05-.96h.01l.05.03Z"/>
        <g>
          <path class="cls-2" d="M251.81,168.78c-.01.32-.03.64-.05.96.02-.32.04-.64.06-.96h-.01ZM250.69,153.3c-.38-1.77-.86-3.45-1.45-5.04.53,1.95,1.02,3.65,1.45,5.04ZM54.3,112.91l-.02,13.69h29.62l.08-13.48v-.24h-29.68v.03Z"/>
          <path class="cls-2" d="M251.81,168.78c-.01.32-.03.64-.05.96.02-.32.04-.64.06-.96h-.01ZM250.69,153.3c-.38-1.77-.86-3.45-1.45-5.04.53,1.95,1.02,3.65,1.45,5.04ZM54.3,112.91l-.02,13.69h29.62l.08-13.48v-.24h-29.68v.03Z"/>
        </g>
        <g>
          <g>
            <path class="cls-2" d="M263.61,117.49c-.5,5.68-14.73,9.37-12.73-2.4,2-11.77,3.51-13.27,3.51-13.27,0,0,9.78,9.42,9.22,15.67Z"/>
            <circle class="cls-2" cx="276.55" cy="132.89" r="8.89"/>
            <path class="cls-2" d="M293.23,143.25l6.31,10.8c.86,1.47.16,3.37-1.46,3.92l-7.65,2.61c-.64.22-1.33.19-1.95-.08l-18.02-7.85c-1.91-.83-2.2-3.42-.52-4.65h0c.53-.39,1.19-.57,1.85-.51l8.59.81c.67.06,1.34-.13,1.88-.53l7.01-5.3c1.29-.98,3.14-.61,3.96.79Z"/>
          </g>
          <g>
            <path class="cls-2" d="M263.61,117.49c-.5,5.68-14.73,9.37-12.73-2.4,2-11.77,3.51-13.27,3.51-13.27,0,0,9.78,9.42,9.22,15.67Z"/>
            <circle class="cls-2" cx="276.55" cy="132.89" r="8.89"/>
            <path class="cls-2" d="M293.23,143.25l6.31,10.8c.86,1.47.16,3.37-1.46,3.92l-7.65,2.61c-.64.22-1.33.19-1.95-.08l-18.02-7.85c-1.91-.83-2.2-3.42-.52-4.65h0c.53-.39,1.19-.57,1.85-.51l8.59.81c.67.06,1.34-.13,1.88-.53l7.01-5.3c1.29-.98,3.14-.61,3.96.79Z"/>
          </g>
        </g>
        <path class="cls-1" d="M290.45,122.38s-4.75-6.53-9.53-6.78c-4.54-.27-11.28,3.94-11.89,4.3.31-.49,3.78-6.38-.03-15.34-4.02-9.34-12.01-29.21-24.28-2.75-4.14,8.94.95,33.19,4.52,46.45.53,1.95,1.02,3.65,1.45,5.04h0c.83,3.73,1.24,7.84,1.24,12.33,0,1.05-.03,2.12-.11,3.15h-.01c-.01.32-.03.64-.05.96-.02.32-.04.64-.07.96v.02c-.03.62-.12,1.23-.21,1.87-.04.54-.13,1.09-.25,1.6-.09.42-.15.85-.24,1.27-.06.45-.15.9-.3,1.36-.09.52-.21,1-.36,1.49-.09.47-.25.93-.4,1.41-.02.1-.02.15-.09.25-.08.3-.21.6-.3.9,0,.1-.03.19-.08.27-.19.62-.43,1.19-.68,1.76-.02.09-.06.22-.11.3-.25.58-.49,1.15-.79,1.73-.03.12-.1.21-.15.32-.1.19-.18.4-.31.59-.02.11-.09.21-.15.32-.24.49-.51.98-.79,1.43-.02.06-.06.12-.11.21-.21.36-.42.7-.67,1.06-.05.18-.18.33-.3.49-.02.02-.03.05-.05.07-.19.3-.42.61-.65.93-.45.62-.9,1.26-1.39,1.87-.48.57-.97,1.15-1.48,1.72-.22.28-.48.54-.75.82-.25.23-.53.51-.79.76-.04.05-.06.09-.1.09-.51.51-.99.96-1.54,1.38-.61.49-1.21.98-1.84,1.4-.24.18-.49.33-.73.51-.72.45-1.45.9-2.21,1.3-.81.45-1.69.88-2.6,1.24-.66.31-1.33.55-2.02.78-.12.04-.27.1-.4.13-.27.09-.51.15-.79.24-.06.03-.11.06-.17.06-.73.21-1.49.42-2.25.57l-.17.55v.03c.37.24.75.49,1.13.75.01.01.03.02.04.03.4.32.79.62,1.19.94.42.34.81.67,1.23,1.04,1.67,1.47,3.39,3.26,5.21,5.38.45.54.9,1.09,1.36,1.66.24.3.49.6.73.91,1.38,1.72,2.78,3.47,4.14,5.32.66.9,1.36,1.85,2.05,2.81,1.4,1.88,2.76,3.85,4.12,5.87,1.6,2.36,3.11,4.66,4.53,6.87.64.94,1.24,1.87,1.82,2.81.61.94,1.18,1.85,1.72,2.75.55.91,1.1,1.78,1.64,2.67v.17h-34.42l-6.41-9.47-1.18-1.74-12.43-18.39c-1.73-2.6-3.12-4.45-4.15-5.57-.27-.28-.55-.54-.82-.75t-.03-.04c-.57-.41-1.17-.75-1.84-1-.33-.11-.67-.2-1.03-.26-1.42-.25-3.66-.37-6.74-.37h-2.91v37.59h-30.64v-27.09c-.61,2.93-1.42,5.63-2.36,8.04-2.89,7.29-7.95,12.55-15.09,15.82-7.17,3.26-17.3,4.9-30.4,4.9s-24.1-1.64-31.57-4.9c-7.47-3.27-12.67-8.53-15.64-15.82-2.97-7.28-4.44-17-4.44-29.1v-69.03h29.62l.08-13.48-.07,13.44v68.53c0,6.3.61,11.22,1.85,14.83,1.24,3.56,3.45,6.07,6.66,7.49,3.23,1.42,7.7,2.12,13.51,2.12,5.45,0,9.63-.7,12.53-2.12,2.89-1.42,4.89-3.93,6.02-7.49,1.08-3.61,1.66-8.53,1.66-14.83v-35.53c0-18.23,14.77-33,33.01-33h35.15s-.1-.01-.15-.01c36.07-2.69,51.84-39.56,56.55-41.01,5.02-1.57,14.1,2.39,14.1,2.39l1.93-2.54c1.73-2.3,5.3-1.73,6.23,1l3.6,10.43s7.63,3,11.38,11.25c3.75,8.26,2.51,14.31,2.51,14.31Z"/>
      </g>
    </g>
    <g>
      <g>
        <g>
          <g>
            <rect class="cls-2" y="55.08" width="29.95" height="17.38"/>
            <path class="cls-2" d="M3.77,24.52l26.37,15.24c-.13.7-.19,1.4-.19,2.14v1.65H0v-1.65c0-6.19,1.34-12.08,3.77-17.38Z"/>
            <path class="cls-2" d="M37.16,0v31.12L9.6,15.19C16.43,7.09,26.15,1.48,37.16,0Z"/>
            <path class="cls-2" d="M75.31,15.88l-26.37,15.24V.67c10.53,1.42,19.82,7.48,26.37,15.21Z"/>
            <polygon class="cls-2" points="83.98 112.91 83.98 113.12 83.9 126.6 54.28 126.6 54.3 112.91 83.98 112.91"/>
            <polygon class="cls-2" points="54.33 84 84.13 84 84.03 101.36 54.31 101.36 54.33 84"/>
            <polygon class="cls-2" points="84.26 55.08 84.18 72.45 54.35 72.45 54.37 55.08 84.26 55.08"/>
            <path class="cls-2" d="M84.34,41.9v1.65h-29.95v-1.65c0-.8-.08-1.57-.23-2.31l26.35-15.2c2.46,5.34,3.82,11.26,3.82,17.51Z"/>
          </g>
          <g>
            <rect class="cls-2" y="55.08" width="29.95" height="17.38"/>
            <path class="cls-2" d="M3.77,24.52l26.37,15.24c-.13.7-.19,1.4-.19,2.14v1.65H0v-1.65c0-6.19,1.34-12.08,3.77-17.38Z"/>
            <path class="cls-2" d="M37.16,0v31.12L9.6,15.19C16.43,7.09,26.15,1.48,37.16,0Z"/>
            <path class="cls-2" d="M75.31,15.88l-26.37,15.24V.67c10.53,1.42,19.82,7.48,26.37,15.21Z"/>
            <polygon class="cls-2" points="83.98 112.91 83.98 113.12 83.9 126.6 54.28 126.6 54.3 112.91 83.98 112.91"/>
            <polygon class="cls-2" points="54.33 84 84.13 84 84.03 101.36 54.31 101.36 54.33 84"/>
            <polygon class="cls-2" points="84.26 55.08 84.18 72.45 54.35 72.45 54.37 55.08 84.26 55.08"/>
            <path class="cls-2" d="M84.34,41.9v1.65h-29.95v-1.65c0-.8-.08-1.57-.23-2.31l26.35-15.2c2.46,5.34,3.82,11.26,3.82,17.51Z"/>
          </g>
          <g>
            <rect class="cls-2" y="55.08" width="29.95" height="17.38"/>
            <path class="cls-2" d="M3.77,24.52l26.37,15.24c-.13.7-.19,1.4-.19,2.14v1.65H0v-1.65c0-6.19,1.34-12.08,3.77-17.38Z"/>
            <path class="cls-2" d="M37.16,0v31.12L9.6,15.19C16.43,7.09,26.15,1.48,37.16,0Z"/>
            <path class="cls-2" d="M75.31,15.88l-26.37,15.24V.67c10.53,1.42,19.82,7.48,26.37,15.21Z"/>
            <polygon class="cls-2" points="83.98 112.91 83.98 113.12 83.9 126.6 54.28 126.6 54.3 112.91 83.98 112.91"/>
            <polygon class="cls-2" points="54.33 84 84.13 84 84.03 101.36 54.31 101.36 54.33 84"/>
            <polygon class="cls-2" points="84.26 55.08 84.18 72.45 54.35 72.45 54.37 55.08 84.26 55.08"/>
            <path class="cls-2" d="M84.34,41.9v1.65h-29.95v-1.65c0-.8-.08-1.57-.23-2.31l26.35-15.2c2.46,5.34,3.82,11.26,3.82,17.51Z"/>
          </g>
        </g>
        <g>
          <g>
            <rect class="cls-2" y="55.08" width="29.95" height="17.38"/>
            <path class="cls-2" d="M3.77,24.52l26.37,15.24c-.13.7-.19,1.4-.19,2.14v1.65H0v-1.65c0-6.19,1.34-12.08,3.77-17.38Z"/>
            <path class="cls-2" d="M37.16,0v31.12L9.6,15.19C16.43,7.09,26.15,1.48,37.16,0Z"/>
            <path class="cls-2" d="M75.31,15.88l-26.37,15.24V.67c10.53,1.42,19.82,7.48,26.37,15.21Z"/>
            <polygon class="cls-2" points="83.98 112.91 83.98 113.12 83.9 126.6 54.28 126.6 54.3 112.91 83.98 112.91"/>
            <polygon class="cls-2" points="54.33 84 84.13 84 84.03 101.36 54.31 101.36 54.33 84"/>
            <polygon class="cls-2" points="84.26 55.08 84.18 72.45 54.35 72.45 54.37 55.08 84.26 55.08"/>
            <path class="cls-2" d="M84.34,41.9v1.65h-29.95v-1.65c0-.8-.08-1.57-.23-2.31l26.35-15.2c2.46,5.34,3.82,11.26,3.82,17.51Z"/>
          </g>
          <g>
            <rect class="cls-2" y="55.08" width="29.95" height="17.38"/>
            <path class="cls-2" d="M3.77,24.52l26.37,15.24c-.13.7-.19,1.4-.19,2.14v1.65H0v-1.65c0-6.19,1.34-12.08,3.77-17.38Z"/>
            <path class="cls-2" d="M37.16,0v31.12L9.6,15.19C16.43,7.09,26.15,1.48,37.16,0Z"/>
            <path class="cls-2" d="M75.31,15.88l-26.37,15.24V.67c10.53,1.42,19.82,7.48,26.37,15.21Z"/>
            <polygon class="cls-2" points="83.98 112.91 83.98 113.12 83.9 126.6 54.28 126.6 54.3 112.91 83.98 112.91"/>
            <polygon class="cls-2" points="54.33 84 84.13 84 84.03 101.36 54.31 101.36 54.33 84"/>
            <polygon class="cls-2" points="84.26 55.08 84.18 72.45 54.35 72.45 54.37 55.08 84.26 55.08"/>
            <path class="cls-2" d="M84.34,41.9v1.65h-29.95v-1.65c0-.8-.08-1.57-.23-2.31l26.35-15.2c2.46,5.34,3.82,11.26,3.82,17.51Z"/>
          </g>
        </g>
      </g>
      <circle class="cls-2" cx="42.58" cy="41.65" r="4"/>
    </g>
  </g>
  <g>
    <g>
      <g>
        <path class="cls-1" d="M215.55,234.31l6.38,9.48h.03s-6.41-9.48-6.41-9.48ZM225.47,203.77v.03c.37.24.75.49,1.13.75-.38-.29-.76-.55-1.13-.78Z"/>
        <path class="cls-1" d="M236.36,214.51c-.24-.31-.49-.61-.73-.91-.46-.57-.91-1.12-1.36-1.66.45.54.94,1.09,1.39,1.66.24.3.48.61.7.91Z"/>
        <path class="cls-1" d="M245.35,189.42c-.19.34-.39.64-.62.95-.45.64-.9,1.24-1.42,1.85.49-.61.94-1.25,1.39-1.87.23-.32.46-.63.65-.93Z"/>
        <path class="cls-1" d="M251.87,168.81c-.03.63-.09,1.29-.18,1.89.03-.32.05-.64.07-.96.02-.32.04-.64.05-.96h.01l.05.03Z"/>
        <g>
          <path class="cls-1" d="M251.81,168.78c-.01.32-.03.64-.05.96.02-.32.04-.64.06-.96h-.01ZM250.69,153.3c-.38-1.77-.86-3.45-1.45-5.04.53,1.95,1.02,3.65,1.45,5.04ZM54.3,112.91l-.02,13.69h29.62l.08-13.48v-.24h-29.68v.03Z"/>
          <path class="cls-1" d="M251.81,168.78c-.01.32-.03.64-.05.96.02-.32.04-.64.06-.96h-.01ZM250.69,153.3c-.38-1.77-.86-3.45-1.45-5.04.53,1.95,1.02,3.65,1.45,5.04ZM54.3,112.91l-.02,13.69h29.62l.08-13.48v-.24h-29.68v.03Z"/>
          <path class="cls-1" d="M251.81,168.78c-.01.32-.03.64-.05.96.02-.32.04-.64.06-.96h-.01ZM250.69,153.3c-.38-1.77-.86-3.45-1.45-5.04.53,1.95,1.02,3.65,1.45,5.04ZM54.3,112.91l-.02,13.69h29.62l.08-13.48v-.24h-29.68v.03Z"/>
        </g>
        <g>
          <g>
            <path class="cls-1" d="M263.61,117.49c-.5,5.68-14.73,9.37-12.73-2.4,2-11.77,3.51-13.27,3.51-13.27,0,0,9.78,9.42,9.22,15.67Z"/>
            <circle class="cls-1" cx="276.55" cy="132.89" r="8.89"/>
            <path class="cls-1" d="M293.23,143.25l6.31,10.8c.86,1.47.16,3.37-1.46,3.92l-7.65,2.61c-.64.22-1.33.19-1.95-.08l-18.02-7.85c-1.91-.83-2.2-3.42-.52-4.65h0c.53-.39,1.19-.57,1.85-.51l8.59.81c.67.06,1.34-.13,1.88-.53l7.01-5.3c1.29-.98,3.14-.61,3.96.79Z"/>
          </g>
          <g>
            <path class="cls-1" d="M263.61,117.49c-.5,5.68-14.73,9.37-12.73-2.4,2-11.77,3.51-13.27,3.51-13.27,0,0,9.78,9.42,9.22,15.67Z"/>
            <circle class="cls-1" cx="276.55" cy="132.89" r="8.89"/>
            <path class="cls-1" d="M293.23,143.25l6.31,10.8c.86,1.47.16,3.37-1.46,3.92l-7.65,2.61c-.64.22-1.33.19-1.95-.08l-18.02-7.85c-1.91-.83-2.2-3.42-.52-4.65h0c.53-.39,1.19-.57,1.85-.51l8.59.81c.67.06,1.34-.13,1.88-.53l7.01-5.3c1.29-.98,3.14-.61,3.96.79Z"/>
          </g>
          <g>
            <path class="cls-1" d="M263.61,117.49c-.5,5.68-14.73,9.37-12.73-2.4,2-11.77,3.51-13.27,3.51-13.27,0,0,9.78,9.42,9.22,15.67Z"/>
            <circle class="cls-1" cx="276.55" cy="132.89" r="8.89"/>
            <path class="cls-1" d="M293.23,143.25l6.31,10.8c.86,1.47.16,3.37-1.46,3.92l-7.65,2.61c-.64.22-1.33.19-1.95-.08l-18.02-7.85c-1.91-.83-2.2-3.42-.52-4.65h0c.53-.39,1.19-.57,1.85-.51l8.59.81c.67.06,1.34-.13,1.88-.53l7.01-5.3c1.29-.98,3.14-.61,3.96.79Z"/>
          </g>
        </g>
        <path class="cls-1" d="M290.45,122.38s-4.75-6.53-9.53-6.78c-4.54-.27-11.28,3.94-11.89,4.3.31-.49,3.78-6.38-.03-15.34-4.02-9.34-12.01-29.21-24.28-2.75-4.14,8.94.95,33.19,4.52,46.45.53,1.95,1.02,3.65,1.45,5.04h0c.83,3.73,1.24,7.84,1.24,12.33,0,1.05-.03,2.12-.11,3.15h-.01c-.01.32-.03.64-.05.96-.02.32-.04.64-.07.96v.02c-.03.62-.12,1.23-.21,1.87-.04.54-.13,1.09-.25,1.6-.09.42-.15.85-.24,1.27-.06.45-.15.9-.3,1.36-.09.52-.21,1-.36,1.49-.09.47-.25.93-.4,1.41-.02.1-.02.15-.09.25-.08.3-.21.6-.3.9,0,.1-.03.19-.08.27-.19.62-.43,1.19-.68,1.76-.02.09-.06.22-.11.3-.25.58-.49,1.15-.79,1.73-.03.12-.1.21-.15.32-.1.19-.18.4-.31.59-.02.11-.09.21-.15.32-.24.49-.51.98-.79,1.43-.02.06-.06.12-.11.21-.21.36-.42.7-.67,1.06-.05.18-.18.33-.3.49-.02.02-.03.05-.05.07-.19.3-.42.61-.65.93-.45.62-.9,1.26-1.39,1.87-.48.57-.97,1.15-1.48,1.72-.22.28-.48.54-.75.82-.25.23-.53.51-.79.76-.04.05-.06.09-.1.09-.51.51-.99.96-1.54,1.38-.61.49-1.21.98-1.84,1.4-.24.18-.49.33-.73.51-.72.45-1.45.9-2.21,1.3-.81.45-1.69.88-2.6,1.24-.66.31-1.33.55-2.02.78-.12.04-.27.1-.4.13-.27.09-.51.15-.79.24-.06.03-.11.06-.17.06-.73.21-1.49.42-2.25.57l-.17.55v.03c.37.24.75.49,1.13.75.01.01.03.02.04.03.4.32.79.62,1.19.94.42.34.81.67,1.23,1.04,1.67,1.47,3.39,3.26,5.21,5.38.45.54.9,1.09,1.36,1.66.24.3.49.6.73.91,1.38,1.72,2.78,3.47,4.14,5.32.66.9,1.36,1.85,2.05,2.81,1.4,1.88,2.76,3.85,4.12,5.87,1.6,2.36,3.11,4.66,4.53,6.87.64.94,1.24,1.87,1.82,2.81.61.94,1.18,1.85,1.72,2.75.55.91,1.1,1.78,1.64,2.67v.17h-34.42l-6.41-9.47-1.18-1.74-12.43-18.39c-1.73-2.6-3.12-4.45-4.15-5.57-.27-.28-.55-.54-.82-.75t-.03-.04c-.57-.41-1.17-.75-1.84-1-.33-.11-.67-.2-1.03-.26-1.42-.25-3.66-.37-6.74-.37h-2.91v37.59h-30.64v-27.09c-.61,2.93-1.42,5.63-2.36,8.04-2.89,7.29-7.95,12.55-15.09,15.82-7.17,3.26-17.3,4.9-30.4,4.9s-24.1-1.64-31.57-4.9c-7.47-3.27-12.67-8.53-15.64-15.82-2.97-7.28-4.44-17-4.44-29.1v-69.03h29.62l.08-13.48-.07,13.44v68.53c0,6.3.61,11.22,1.85,14.83,1.24,3.56,3.45,6.07,6.66,7.49,3.23,1.42,7.7,2.12,13.51,2.12,5.45,0,9.63-.7,12.53-2.12,2.89-1.42,4.89-3.93,6.02-7.49,1.08-3.61,1.66-8.53,1.66-14.83v-35.53c0-18.23,14.77-33,33.01-33h35.15s-.1-.01-.15-.01c36.07-2.69,51.84-39.56,56.55-41.01,5.02-1.57,14.1,2.39,14.1,2.39l1.93-2.54c1.73-2.3,5.3-1.73,6.23,1l3.6,10.43s7.63,3,11.38,11.25c3.75,8.26,2.51,14.31,2.51,14.31Z"/>
      </g>
      <g>
        <path class="cls-1" d="M215.55,234.31l6.38,9.48h.03s-6.41-9.48-6.41-9.48ZM225.47,203.77v.03c.37.24.75.49,1.13.75-.38-.29-.76-.55-1.13-.78Z"/>
        <path class="cls-1" d="M236.36,214.51c-.24-.31-.49-.61-.73-.91-.46-.57-.91-1.12-1.36-1.66.45.54.94,1.09,1.39,1.66.24.3.48.61.7.91Z"/>
        <path class="cls-1" d="M245.35,189.42c-.19.34-.39.64-.62.95-.45.64-.9,1.24-1.42,1.85.49-.61.94-1.25,1.39-1.87.23-.32.46-.63.65-.93Z"/>
        <path class="cls-1" d="M251.87,168.81c-.03.63-.09,1.29-.18,1.89.03-.32.05-.64.07-.96.02-.32.04-.64.05-.96h.01l.05.03Z"/>
        <g>
          <path class="cls-1" d="M251.81,168.78c-.01.32-.03.64-.05.96.02-.32.04-.64.06-.96h-.01ZM250.69,153.3c-.38-1.77-.86-3.45-1.45-5.04.53,1.95,1.02,3.65,1.45,5.04ZM54.3,112.91l-.02,13.69h29.62l.08-13.48v-.24h-29.68v.03Z"/>
          <path class="cls-1" d="M251.81,168.78c-.01.32-.03.64-.05.96.02-.32.04-.64.06-.96h-.01ZM250.69,153.3c-.38-1.77-.86-3.45-1.45-5.04.53,1.95,1.02,3.65,1.45,5.04ZM54.3,112.91l-.02,13.69h29.62l.08-13.48v-.24h-29.68v.03Z"/>
          <path class="cls-1" d="M251.81,168.78c-.01.32-.03.64-.05.96.02-.32.04-.64.06-.96h-.01ZM250.69,153.3c-.38-1.77-.86-3.45-1.45-5.04.53,1.95,1.02,3.65,1.45,5.04ZM54.3,112.91l-.02,13.69h29.62l.08-13.48v-.24h-29.68v.03Z"/>
        </g>
        <g>
          <g>
            <path class="cls-1" d="M263.61,117.49c-.5,5.68-14.73,9.37-12.73-2.4,2-11.77,3.51-13.27,3.51-13.27,0,0,9.78,9.42,9.22,15.67Z"/>
            <circle class="cls-1" cx="276.55" cy="132.89" r="8.89"/>
            <path class="cls-1" d="M293.23,143.25l6.31,10.8c.86,1.47.16,3.37-1.46,3.92l-7.65,2.61c-.64.22-1.33.19-1.95-.08l-18.02-7.85c-1.91-.83-2.2-3.42-.52-4.65h0c.53-.39,1.19-.57,1.85-.51l8.59.81c.67.06,1.34-.13,1.88-.53l7.01-5.3c1.29-.98,3.14-.61,3.96.79Z"/>
          </g>
          <g>
            <path class="cls-1" d="M263.61,117.49c-.5,5.68-14.73,9.37-12.73-2.4,2-11.77,3.51-13.27,3.51-13.27,0,0,9.78,9.42,9.22,15.67Z"/>
            <circle class="cls-1" cx="276.55" cy="132.89" r="8.89"/>
            <path class="cls-1" d="M293.23,143.25l6.31,10.8c.86,1.47.16,3.37-1.46,3.92l-7.65,2.61c-.64.22-1.33.19-1.95-.08l-18.02-7.85c-1.91-.83-2.2-3.42-.52-4.65h0c.53-.39,1.19-.57,1.85-.51l8.59.81c.67.06,1.34-.13,1.88-.53l7.01-5.3c1.29-.98,3.14-.61,3.96.79Z"/>
          </g>
          <g>
            <path class="cls-1" d="M263.61,117.49c-.5,5.68-14.73,9.37-12.73-2.4,2-11.77,3.51-13.27,3.51-13.27,0,0,9.78,9.42,9.22,15.67Z"/>
            <circle class="cls-1" cx="276.55" cy="132.89" r="8.89"/>
            <path class="cls-1" d="M293.23,143.25l6.31,10.8c.86,1.47.16,3.37-1.46,3.92l-7.65,2.61c-.64.22-1.33.19-1.95-.08l-18.02-7.85c-1.91-.83-2.2-3.42-.52-4.65h0c.53-.39,1.19-.57,1.85-.51l8.59.81c.67.06,1.34-.13,1.88-.53l7.01-5.3c1.29-.98,3.14-.61,3.96.79Z"/>
          </g>
        </g>
        <path class="cls-1" d="M290.45,122.38s-4.75-6.53-9.53-6.78c-4.54-.27-11.28,3.94-11.89,4.3.31-.49,3.78-6.38-.03-15.34-4.02-9.34-12.01-29.21-24.28-2.75-4.14,8.94.95,33.19,4.52,46.45.53,1.95,1.02,3.65,1.45,5.04h0c.83,3.73,1.24,7.84,1.24,12.33,0,1.05-.03,2.12-.11,3.15h-.01c-.01.32-.03.64-.05.96-.02.32-.04.64-.07.96v.02c-.03.62-.12,1.23-.21,1.87-.04.54-.13,1.09-.25,1.6-.09.42-.15.85-.24,1.27-.06.45-.15.9-.3,1.36-.09.52-.21,1-.36,1.49-.09.47-.25.93-.4,1.41-.02.1-.02.15-.09.25-.08.3-.21.6-.3.9,0,.1-.03.19-.08.27-.19.62-.43,1.19-.68,1.76-.02.09-.06.22-.11.3-.25.58-.49,1.15-.79,1.73-.03.12-.1.21-.15.32-.1.19-.18.4-.31.59-.02.11-.09.21-.15.32-.24.49-.51.98-.79,1.43-.02.06-.06.12-.11.21-.21.36-.42.7-.67,1.06-.05.18-.18.33-.3.49-.02.02-.03.05-.05.07-.19.3-.42.61-.65.93-.45.62-.9,1.26-1.39,1.87-.48.57-.97,1.15-1.48,1.72-.22.28-.48.54-.75.82-.25.23-.53.51-.79.76-.04.05-.06.09-.1.09-.51.51-.99.96-1.54,1.38-.61.49-1.21.98-1.84,1.4-.24.18-.49.33-.73.51-.72.45-1.45.9-2.21,1.3-.81.45-1.69.88-2.6,1.24-.66.31-1.33.55-2.02.78-.12.04-.27.1-.4.13-.27.09-.51.15-.79.24-.06.03-.11.06-.17.06-.73.21-1.49.42-2.25.57l-.17.55v.03c.37.24.75.49,1.13.75.01.01.03.02.04.03.4.32.79.62,1.19.94.42.34.81.67,1.23,1.04,1.67,1.47,3.39,3.26,5.21,5.38.45.54.9,1.09,1.36,1.66.24.3.49.6.73.91,1.38,1.72,2.78,3.47,4.14,5.32.66.9,1.36,1.85,2.05,2.81,1.4,1.88,2.76,3.85,4.12,5.87,1.6,2.36,3.11,4.66,4.53,6.87.64.94,1.24,1.87,1.82,2.81.61.94,1.18,1.85,1.72,2.75.55.91,1.1,1.78,1.64,2.67v.17h-34.42l-6.41-9.47-1.18-1.74-12.43-18.39c-1.73-2.6-3.12-4.45-4.15-5.57-.27-.28-.55-.54-.82-.75t-.03-.04c-.57-.41-1.17-.75-1.84-1-.33-.11-.67-.2-1.03-.26-1.42-.25-3.66-.37-6.74-.37h-2.91v37.59h-30.64v-27.09c-.61,2.93-1.42,5.63-2.36,8.04-2.89,7.29-7.95,12.55-15.09,15.82-7.17,3.26-17.3,4.9-30.4,4.9s-24.1-1.64-31.57-4.9c-7.47-3.27-12.67-8.53-15.64-15.82-2.97-7.28-4.44-17-4.44-29.1v-69.03h29.62l.08-13.48-.07,13.44v68.53c0,6.3.61,11.22,1.85,14.83,1.24,3.56,3.45,6.07,6.66,7.49,3.23,1.42,7.7,2.12,13.51,2.12,5.45,0,9.63-.7,12.53-2.12,2.89-1.42,4.89-3.93,6.02-7.49,1.08-3.61,1.66-8.53,1.66-14.83v-35.53c0-18.23,14.77-33,33.01-33h35.15s-.1-.01-.15-.01c36.07-2.69,51.84-39.56,56.55-41.01,5.02-1.57,14.1,2.39,14.1,2.39l1.93-2.54c1.73-2.3,5.3-1.73,6.23,1l3.6,10.43s7.63,3,11.38,11.25c3.75,8.26,2.51,14.31,2.51,14.31Z"/>
      </g>
      <g>
        <path class="cls-1" d="M215.55,234.31l6.38,9.48h.03s-6.41-9.48-6.41-9.48ZM225.47,203.77v.03c.37.24.75.49,1.13.75-.38-.29-.76-.55-1.13-.78Z"/>
        <path class="cls-1" d="M236.36,214.51c-.24-.31-.49-.61-.73-.91-.46-.57-.91-1.12-1.36-1.66.45.54.94,1.09,1.39,1.66.24.3.48.61.7.91Z"/>
        <path class="cls-1" d="M245.35,189.42c-.19.34-.39.64-.62.95-.45.64-.9,1.24-1.42,1.85.49-.61.94-1.25,1.39-1.87.23-.32.46-.63.65-.93Z"/>
        <path class="cls-1" d="M251.87,168.81c-.03.63-.09,1.29-.18,1.89.03-.32.05-.64.07-.96.02-.32.04-.64.05-.96h.01l.05.03Z"/>
        <g>
          <path class="cls-1" d="M251.81,168.78c-.01.32-.03.64-.05.96.02-.32.04-.64.06-.96h-.01ZM250.69,153.3c-.38-1.77-.86-3.45-1.45-5.04.53,1.95,1.02,3.65,1.45,5.04ZM54.3,112.91l-.02,13.69h29.62l.08-13.48v-.24h-29.68v.03Z"/>
          <path class="cls-1" d="M251.81,168.78c-.01.32-.03.64-.05.96.02-.32.04-.64.06-.96h-.01ZM250.69,153.3c-.38-1.77-.86-3.45-1.45-5.04.53,1.95,1.02,3.65,1.45,5.04ZM54.3,112.91l-.02,13.69h29.62l.08-13.48v-.24h-29.68v.03Z"/>
          <path class="cls-1" d="M251.81,168.78c-.01.32-.03.64-.05.96.02-.32.04-.64.06-.96h-.01ZM250.69,153.3c-.38-1.77-.86-3.45-1.45-5.04.53,1.95,1.02,3.65,1.45,5.04ZM54.3,112.91l-.02,13.69h29.62l.08-13.48v-.24h-29.68v.03Z"/>
        </g>
        <g>
          <g>
            <path class="cls-1" d="M263.61,117.49c-.5,5.68-14.73,9.37-12.73-2.4,2-11.77,3.51-13.27,3.51-13.27,0,0,9.78,9.42,9.22,15.67Z"/>
            <circle class="cls-1" cx="276.55" cy="132.89" r="8.89"/>
            <path class="cls-1" d="M293.23,143.25l6.31,10.8c.86,1.47.16,3.37-1.46,3.92l-7.65,2.61c-.64.22-1.33.19-1.95-.08l-18.02-7.85c-1.91-.83-2.2-3.42-.52-4.65h0c.53-.39,1.19-.57,1.85-.51l8.59.81c.67.06,1.34-.13,1.88-.53l7.01-5.3c1.29-.98,3.14-.61,3.96.79Z"/>
          </g>
          <g>
            <path class="cls-1" d="M263.61,117.49c-.5,5.68-14.73,9.37-12.73-2.4,2-11.77,3.51-13.27,3.51-13.27,0,0,9.78,9.42,9.22,15.67Z"/>
            <circle class="cls-1" cx="276.55" cy="132.89" r="8.89"/>
            <path class="cls-1" d="M293.23,143.25l6.31,10.8c.86,1.47.16,3.37-1.46,3.92l-7.65,2.61c-.64.22-1.33.19-1.95-.08l-18.02-7.85c-1.91-.83-2.2-3.42-.52-4.65h0c.53-.39,1.19-.57,1.85-.51l8.59.81c.67.06,1.34-.13,1.88-.53l7.01-5.3c1.29-.98,3.14-.61,3.96.79Z"/>
          </g>
          <g>
            <path class="cls-1" d="M263.61,117.49c-.5,5.68-14.73,9.37-12.73-2.4,2-11.77,3.51-13.27,3.51-13.27,0,0,9.78,9.42,9.22,15.67Z"/>
            <circle class="cls-1" cx="276.55" cy="132.89" r="8.89"/>
            <path class="cls-1" d="M293.23,143.25l6.31,10.8c.86,1.47.16,3.37-1.46,3.92l-7.65,2.61c-.64.22-1.33.19-1.95-.08l-18.02-7.85c-1.91-.83-2.2-3.42-.52-4.65h0c.53-.39,1.19-.57,1.85-.51l8.59.81c.67.06,1.34-.13,1.88-.53l7.01-5.3c1.29-.98,3.14-.61,3.96.79Z"/>
          </g>
        </g>
        <path class="cls-1" d="M290.45,122.38s-4.75-6.53-9.53-6.78c-4.54-.27-11.28,3.94-11.89,4.3.31-.49,3.78-6.38-.03-15.34-4.02-9.34-12.01-29.21-24.28-2.75-4.14,8.94.95,33.19,4.52,46.45.53,1.95,1.02,3.65,1.45,5.04h0c.83,3.73,1.24,7.84,1.24,12.33,0,1.05-.03,2.12-.11,3.15h-.01c-.01.32-.03.64-.05.96-.02.32-.04.64-.07.96v.02c-.03.62-.12,1.23-.21,1.87-.04.54-.13,1.09-.25,1.6-.09.42-.15.85-.24,1.27-.06.45-.15.9-.3,1.36-.09.52-.21,1-.36,1.49-.09.47-.25.93-.4,1.41-.02.1-.02.15-.09.25-.08.3-.21.6-.3.9,0,.1-.03.19-.08.27-.19.62-.43,1.19-.68,1.76-.02.09-.06.22-.11.3-.25.58-.49,1.15-.79,1.73-.03.12-.1.21-.15.32-.1.19-.18.4-.31.59-.02.11-.09.21-.15.32-.24.49-.51.98-.79,1.43-.02.06-.06.12-.11.21-.21.36-.42.7-.67,1.06-.05.18-.18.33-.3.49-.02.02-.03.05-.05.07-.19.3-.42.61-.65.93-.45.62-.9,1.26-1.39,1.87-.48.57-.97,1.15-1.48,1.72-.22.28-.48.54-.75.82-.25.23-.53.51-.79.76-.04.05-.06.09-.1.09-.51.51-.99.96-1.54,1.38-.61.49-1.21.98-1.84,1.4-.24.18-.49.33-.73.51-.72.45-1.45.9-2.21,1.3-.81.45-1.69.88-2.6,1.24-.66.31-1.33.55-2.02.78-.12.04-.27.1-.4.13-.27.09-.51.15-.79.24-.06.03-.11.06-.17.06-.73.21-1.49.42-2.25.57l-.17.55v.03c.37.24.75.49,1.13.75.01.01.03.02.04.03.4.32.79.62,1.19.94.42.34.81.67,1.23,1.04,1.67,1.47,3.39,3.26,5.21,5.38.45.54.9,1.09,1.36,1.66.24.3.49.6.73.91,1.38,1.72,2.78,3.47,4.14,5.32.66.9,1.36,1.85,2.05,2.81,1.4,1.88,2.76,3.85,4.12,5.87,1.6,2.36,3.11,4.66,4.53,6.87.64.94,1.24,1.87,1.82,2.81.61.94,1.18,1.85,1.72,2.75.55.91,1.1,1.78,1.64,2.67v.17h-34.42l-6.41-9.47-1.18-1.74-12.43-18.39c-1.73-2.6-3.12-4.45-4.15-5.57-.27-.28-.55-.54-.82-.75t-.03-.04c-.57-.41-1.17-.75-1.84-1-.33-.11-.67-.2-1.03-.26-1.42-.25-3.66-.37-6.74-.37h-2.91v37.59h-30.64v-27.09c-.61,2.93-1.42,5.63-2.36,8.04-2.89,7.29-7.95,12.55-15.09,15.82-7.17,3.26-17.3,4.9-30.4,4.9s-24.1-1.64-31.57-4.9c-7.47-3.27-12.67-8.53-15.64-15.82-2.97-7.28-4.44-17-4.44-29.1v-69.03h29.62l.08-13.48-.07,13.44v68.53c0,6.3.61,11.22,1.85,14.83,1.24,3.56,3.45,6.07,6.66,7.49,3.23,1.42,7.7,2.12,13.51,2.12,5.45,0,9.63-.7,12.53-2.12,2.89-1.42,4.89-3.93,6.02-7.49,1.08-3.61,1.66-8.53,1.66-14.83v-35.53c0-18.23,14.77-33,33.01-33h35.15s-.1-.01-.15-.01c36.07-2.69,51.84-39.56,56.55-41.01,5.02-1.57,14.1,2.39,14.1,2.39l1.93-2.54c1.73-2.3,5.3-1.73,6.23,1l3.6,10.43s7.63,3,11.38,11.25c3.75,8.26,2.51,14.31,2.51,14.31Z"/>
      </g>
    </g>
    <g>
      <g>
        <g>
          <g>
            <rect class="cls-1" y="55.08" width="29.95" height="17.38"/>
            <path class="cls-1" d="M3.77,24.52l26.37,15.24c-.13.7-.19,1.4-.19,2.14v1.65H0v-1.65c0-6.19,1.34-12.08,3.77-17.38Z"/>
            <path class="cls-1" d="M37.16,0v31.12L9.6,15.19C16.43,7.09,26.15,1.48,37.16,0Z"/>
            <path class="cls-1" d="M75.31,15.88l-26.37,15.24V.67c10.53,1.42,19.82,7.48,26.37,15.21Z"/>
            <polygon class="cls-1" points="83.98 112.91 83.98 113.12 83.9 126.6 54.28 126.6 54.3 112.91 83.98 112.91"/>
            <polygon class="cls-1" points="54.33 84 84.13 84 84.03 101.36 54.31 101.36 54.33 84"/>
            <polygon class="cls-1" points="84.26 55.08 84.18 72.45 54.35 72.45 54.37 55.08 84.26 55.08"/>
            <path class="cls-1" d="M84.34,41.9v1.65h-29.95v-1.65c0-.8-.08-1.57-.23-2.31l26.35-15.2c2.46,5.34,3.82,11.26,3.82,17.51Z"/>
          </g>
          <g>
            <rect class="cls-1" y="55.08" width="29.95" height="17.38"/>
            <path class="cls-1" d="M3.77,24.52l26.37,15.24c-.13.7-.19,1.4-.19,2.14v1.65H0v-1.65c0-6.19,1.34-12.08,3.77-17.38Z"/>
            <path class="cls-1" d="M37.16,0v31.12L9.6,15.19C16.43,7.09,26.15,1.48,37.16,0Z"/>
            <path class="cls-1" d="M75.31,15.88l-26.37,15.24V.67c10.53,1.42,19.82,7.48,26.37,15.21Z"/>
            <polygon class="cls-1" points="83.98 112.91 83.98 113.12 83.9 126.6 54.28 126.6 54.3 112.91 83.98 112.91"/>
            <polygon class="cls-1" points="54.33 84 84.13 84 84.03 101.36 54.31 101.36 54.33 84"/>
            <polygon class="cls-1" points="84.26 55.08 84.18 72.45 54.35 72.45 54.37 55.08 84.26 55.08"/>
            <path class="cls-1" d="M84.34,41.9v1.65h-29.95v-1.65c0-.8-.08-1.57-.23-2.31l26.35-15.2c2.46,5.34,3.82,11.26,3.82,17.51Z"/>
          </g>
          <g>
            <rect class="cls-1" y="55.08" width="29.95" height="17.38"/>
            <path class="cls-1" d="M3.77,24.52l26.37,15.24c-.13.7-.19,1.4-.19,2.14v1.65H0v-1.65c0-6.19,1.34-12.08,3.77-17.38Z"/>
            <path class="cls-1" d="M37.16,0v31.12L9.6,15.19C16.43,7.09,26.15,1.48,37.16,0Z"/>
            <path class="cls-1" d="M75.31,15.88l-26.37,15.24V.67c10.53,1.42,19.82,7.48,26.37,15.21Z"/>
            <polygon class="cls-1" points="83.98 112.91 83.98 113.12 83.9 126.6 54.28 126.6 54.3 112.91 83.98 112.91"/>
            <polygon class="cls-1" points="54.33 84 84.13 84 84.03 101.36 54.31 101.36 54.33 84"/>
            <polygon class="cls-1" points="84.26 55.08 84.18 72.45 54.35 72.45 54.37 55.08 84.26 55.08"/>
            <path class="cls-1" d="M84.34,41.9v1.65h-29.95v-1.65c0-.8-.08-1.57-.23-2.31l26.35-15.2c2.46,5.34,3.82,11.26,3.82,17.51Z"/>
          </g>
        </g>
        <g>
          <g>
            <rect class="cls-1" y="55.08" width="29.95" height="17.38"/>
            <path class="cls-1" d="M3.77,24.52l26.37,15.24c-.13.7-.19,1.4-.19,2.14v1.65H0v-1.65c0-6.19,1.34-12.08,3.77-17.38Z"/>
            <path class="cls-1" d="M37.16,0v31.12L9.6,15.19C16.43,7.09,26.15,1.48,37.16,0Z"/>
            <path class="cls-1" d="M75.31,15.88l-26.37,15.24V.67c10.53,1.42,19.82,7.48,26.37,15.21Z"/>
            <polygon class="cls-1" points="83.98 112.91 83.98 113.12 83.9 126.6 54.28 126.6 54.3 112.91 83.98 112.91"/>
            <polygon class="cls-1" points="54.33 84 84.13 84 84.03 101.36 54.31 101.36 54.33 84"/>
            <polygon class="cls-1" points="84.26 55.08 84.18 72.45 54.35 72.45 54.37 55.08 84.26 55.08"/>
            <path class="cls-1" d="M84.34,41.9v1.65h-29.95v-1.65c0-.8-.08-1.57-.23-2.31l26.35-15.2c2.46,5.34,3.82,11.26,3.82,17.51Z"/>
          </g>
          <g>
            <rect class="cls-1" y="55.08" width="29.95" height="17.38"/>
            <path class="cls-1" d="M3.77,24.52l26.37,15.24c-.13.7-.19,1.4-.19,2.14v1.65H0v-1.65c0-6.19,1.34-12.08,3.77-17.38Z"/>
            <path class="cls-1" d="M37.16,0v31.12L9.6,15.19C16.43,7.09,26.15,1.48,37.16,0Z"/>
            <path class="cls-1" d="M75.31,15.88l-26.37,15.24V.67c10.53,1.42,19.82,7.48,26.37,15.21Z"/>
            <polygon class="cls-1" points="83.98 112.91 83.98 113.12 83.9 126.6 54.28 126.6 54.3 112.91 83.98 112.91"/>
            <polygon class="cls-1" points="54.33 84 84.13 84 84.03 101.36 54.31 101.36 54.33 84"/>
            <polygon class="cls-1" points="84.26 55.08 84.18 72.45 54.35 72.45 54.37 55.08 84.26 55.08"/>
            <path class="cls-1" d="M84.34,41.9v1.65h-29.95v-1.65c0-.8-.08-1.57-.23-2.31l26.35-15.2c2.46,5.34,3.82,11.26,3.82,17.51Z"/>
          </g>
          <g>
            <rect class="cls-1" y="55.08" width="29.95" height="17.38"/>
            <path class="cls-1" d="M3.77,24.52l26.37,15.24c-.13.7-.19,1.4-.19,2.14v1.65H0v-1.65c0-6.19,1.34-12.08,3.77-17.38Z"/>
            <path class="cls-1" d="M37.16,0v31.12L9.6,15.19C16.43,7.09,26.15,1.48,37.16,0Z"/>
            <path class="cls-1" d="M75.31,15.88l-26.37,15.24V.67c10.53,1.42,19.82,7.48,26.37,15.21Z"/>
            <polygon class="cls-1" points="83.98 112.91 83.98 113.12 83.9 126.6 54.28 126.6 54.3 112.91 83.98 112.91"/>
            <polygon class="cls-1" points="54.33 84 84.13 84 84.03 101.36 54.31 101.36 54.33 84"/>
            <polygon class="cls-1" points="84.26 55.08 84.18 72.45 54.35 72.45 54.37 55.08 84.26 55.08"/>
            <path class="cls-1" d="M84.34,41.9v1.65h-29.95v-1.65c0-.8-.08-1.57-.23-2.31l26.35-15.2c2.46,5.34,3.82,11.26,3.82,17.51Z"/>
          </g>
        </g>
        <g>
          <g>
            <rect class="cls-1" y="55.08" width="29.95" height="17.38"/>
            <path class="cls-1" d="M3.77,24.52l26.37,15.24c-.13.7-.19,1.4-.19,2.14v1.65H0v-1.65c0-6.19,1.34-12.08,3.77-17.38Z"/>
            <path class="cls-1" d="M37.16,0v31.12L9.6,15.19C16.43,7.09,26.15,1.48,37.16,0Z"/>
            <path class="cls-1" d="M75.31,15.88l-26.37,15.24V.67c10.53,1.42,19.82,7.48,26.37,15.21Z"/>
            <polygon class="cls-1" points="83.98 112.91 83.98 113.12 83.9 126.6 54.28 126.6 54.3 112.91 83.98 112.91"/>
            <polygon class="cls-1" points="54.33 84 84.13 84 84.03 101.36 54.31 101.36 54.33 84"/>
            <polygon class="cls-1" points="84.26 55.08 84.18 72.45 54.35 72.45 54.37 55.08 84.26 55.08"/>
            <path class="cls-1" d="M84.34,41.9v1.65h-29.95v-1.65c0-.8-.08-1.57-.23-2.31l26.35-15.2c2.46,5.34,3.82,11.26,3.82,17.51Z"/>
          </g>
          <g>
            <rect class="cls-1" y="55.08" width="29.95" height="17.38"/>
            <path class="cls-1" d="M3.77,24.52l26.37,15.24c-.13.7-.19,1.4-.19,2.14v1.65H0v-1.65c0-6.19,1.34-12.08,3.77-17.38Z"/>
            <path class="cls-1" d="M37.16,0v31.12L9.6,15.19C16.43,7.09,26.15,1.48,37.16,0Z"/>
            <path class="cls-1" d="M75.31,15.88l-26.37,15.24V.67c10.53,1.42,19.82,7.48,26.37,15.21Z"/>
            <polygon class="cls-1" points="83.98 112.91 83.98 113.12 83.9 126.6 54.28 126.6 54.3 112.91 83.98 112.91"/>
            <polygon class="cls-1" points="54.33 84 84.13 84 84.03 101.36 54.31 101.36 54.33 84"/>
            <polygon class="cls-1" points="84.26 55.08 84.18 72.45 54.35 72.45 54.37 55.08 84.26 55.08"/>
            <path class="cls-1" d="M84.34,41.9v1.65h-29.95v-1.65c0-.8-.08-1.57-.23-2.31l26.35-15.2c2.46,5.34,3.82,11.26,3.82,17.51Z"/>
          </g>
          <g>
            <rect class="cls-1" y="55.08" width="29.95" height="17.38"/>
            <path class="cls-1" d="M3.77,24.52l26.37,15.24c-.13.7-.19,1.4-.19,2.14v1.65H0v-1.65c0-6.19,1.34-12.08,3.77-17.38Z"/>
            <path class="cls-1" d="M37.16,0v31.12L9.6,15.19C16.43,7.09,26.15,1.48,37.16,0Z"/>
            <path class="cls-1" d="M75.31,15.88l-26.37,15.24V.67c10.53,1.42,19.82,7.48,26.37,15.21Z"/>
            <polygon class="cls-1" points="83.98 112.91 83.98 113.12 83.9 126.6 54.28 126.6 54.3 112.91 83.98 112.91"/>
            <polygon class="cls-1" points="54.33 84 84.13 84 84.03 101.36 54.31 101.36 54.33 84"/>
            <polygon class="cls-1" points="84.26 55.08 84.18 72.45 54.35 72.45 54.37 55.08 84.26 55.08"/>
            <path class="cls-1" d="M84.34,41.9v1.65h-29.95v-1.65c0-.8-.08-1.57-.23-2.31l26.35-15.2c2.46,5.34,3.82,11.26,3.82,17.51Z"/>
          </g>
        </g>
      </g>
      <circle class="cls-1" cx="42.58" cy="41.65" r="4"/>
    </g>
  </g>
</svg>