<?xml version="1.0" encoding="UTF-8"?>
<svg id="Capa_1" xmlns="http://www.w3.org/2000/svg" version="1.1" viewBox="0 0 302.54 101.64">
  <!-- Generator: Adobe Illustrator 29.4.0, SVG Export Plug-In . SVG Version: 2.1.0 Build 152)  -->
  <defs>
    <style>
      .st0 {
        fill: #420add;
      }

      .st1 {
        isolation: isolate;
      }
    </style>
  </defs>
  <polygon class="st0" points="49.18 57.83 49.18 71.81 1.36 71.81 1.36 6.69 17.81 6.69 17.81 57.83 49.18 57.83"/>
  <g>
    <path class="st0" d="M151.86,6.69c-.89,3.65-1.88,7.46-2.97,11.48s-2.17,8.01-3.19,11.98c-1.02,3.98-1.93,7.73-2.72,11.22-.79,3.49-1.36,6.55-1.7,9.16h-.2c-.35-2.6-.94-5.68-1.76-9.21-.82-3.53-1.76-7.28-2.82-11.22-1.06-3.93-2.12-7.91-3.19-11.93-1.06-4.02-2.07-7.83-3.02-11.48H55.44v65.12h62.98v-36.41c0-1.85-.03-3.9-.1-6.13-.07-2.22-.17-4.35-.3-6.37-.13-2.03-.3-3.66-.52-4.89l.42-.1c.27,1.09.76,2.94,1.44,5.54.67,2.62,1.5,5.7,2.47,9.27.96,3.56,2.02,7.39,3.18,11.51,1.18,4.12,2.35,8.27,3.56,12.45,1.19,4.18,2.37,8.13,3.55,11.83h17.69c1.09-3.7,2.25-7.63,3.44-11.78,1.21-4.15,2.39-8.28,3.55-12.4,1.18-4.1,2.25-7.96,3.24-11.56.99-3.61,1.83-6.7,2.52-9.33.69-2.6,1.18-4.45,1.44-5.54l.4.1c-.13,1.23-.29,2.86-.45,4.89-.17,2.02-.3,4.15-.37,6.37-.07,2.23-.1,4.28-.1,6.13v36.41h15.54V6.69h-27.17,0ZM72.33,58.44v-12.65h24.02v-13.37h-24.02v-12.35h30.36v38.38h-30.36Z"/>
    <g>
      <path class="st0" d="M296.57,70.23c-.3-.5-.62-1.01-.96-1.53-.32-.52-.66-1.04-1.01-1.56-.79-1.23-1.63-2.5-2.52-3.81-.76-1.13-1.51-2.22-2.29-3.26-.39-.54-.77-1.06-1.14-1.56-.76-1.02-1.53-2-2.3-2.96-.13-.17-.27-.34-.4-.5-.25-.32-.5-.62-.76-.92-1.01-1.18-1.97-2.17-2.89-2.99-.24-.2-.45-.39-.69-.57-.22-.18-.44-.35-.66-.52-.22-.15-.44-.3-.66-.44v-.02l.1-.3c.42-.08.84-.2,1.24-.32.03,0,.07-.02.1-.03.15-.05.29-.08.44-.13.07-.02.15-.05.22-.07.39-.13.76-.27,1.13-.44.5-.2.99-.44,1.44-.69.42-.22.82-.47,1.23-.72.13-.1.27-.18.4-.29.35-.24.69-.5,1.02-.77.3-.24.57-.49.86-.77.02,0,.03-.02.05-.05.15-.13.3-.29.44-.42.15-.15.3-.3.42-.45.29-.32.55-.64.82-.96.27-.34.52-.69.77-1.04.13-.18.27-.37.39-.55.07-.08.13-.17.17-.27.13-.2.25-.39.37-.59.03-.05.05-.08.07-.12.15-.25.3-.52.44-.79.03-.07.07-.12.08-.18.07-.1.12-.22.17-.32.03-.07.07-.12.08-.18.17-.32.3-.64.44-.96.03-.05.05-.12.07-.17.13-.32.27-.64.37-.97.03-.05.05-.1.05-.15.05-.17.12-.34.17-.5.03-.05.03-.08.05-.13.08-.27.17-.52.22-.79.08-.27.15-.54.2-.82.08-.25.13-.5.17-.76.05-.24.08-.47.13-.71.07-.29.12-.59.13-.89.05-.35.1-.69.12-1.04.03-.35.05-.72.07-1.08.05-.57.07-1.16.07-1.75,0-7.14-1.87-12.53-5.6-16.21-.13-.13-.27-.25-.4-.37-3.44-3.14-8.62-4.82-15.53-5.09-.62-.02-1.28-.03-1.93-.03h-31.35c-8.33,0-15.08,6.75-15.08,15.08v22.99c0,3.49-.32,6.23-.92,8.23-.62,1.98-1.73,3.38-3.34,4.17-1.61.79-3.93,1.18-6.96,1.18-3.23,0-5.71-.39-7.51-1.18-1.78-.79-3.01-2.18-3.7-4.17-.69-2-1.02-4.74-1.02-8.23V0h-16.47v45.06c0,6.72.82,12.11,2.47,16.16,1.65,4.05,4.54,6.97,8.69,8.79,4.15,1.81,10,2.72,17.54,2.72s12.9-.91,16.89-2.72c3.97-1.81,6.77-4.74,8.38-8.79.52-1.34.97-2.84,1.31-4.47v15.05h16.47v-20.88h2.17c1.71,0,2.96.07,3.75.2.2.03.39.08.57.15.37.13.71.32,1.02.55.21.15.21.16.02.02.15.12.3.27.45.42.57.62,1.34,1.65,2.3,3.09l6.91,10.22,4.22,6.23h19.12v-.1c-.3-.49-.6-.97-.91-1.48h0ZM276.04,35.48c-1.34,1.38-3.73,2.07-7.16,2.07h-11.93v-17.49h11.93c3.43,0,5.81.69,7.16,2.05,1.33,1.38,2,3.61,2,6.69s-.67,5.33-2,6.69h0Z"/>
      <path class="st0" d="M296.57,70.23c-.3-.5-.62-1.01-.96-1.53-.32-.52-.66-1.04-1.01-1.56-.79-1.23-1.63-2.5-2.52-3.81-.76-1.13-1.51-2.22-2.29-3.26-.39-.54-.77-1.06-1.14-1.56-.76-1.02-1.53-2-2.3-2.96-.13-.17-.27-.34-.4-.5-.25-.32-.5-.62-.76-.92-1.01-1.18-1.97-2.17-2.89-2.99-.24-.2-.45-.39-.69-.57-.22-.18-.44-.35-.66-.52-.22-.15-.44-.3-.66-.44v-.02l.1-.3c.42-.08.84-.2,1.24-.32.03,0,.07-.02.1-.03.15-.05.29-.08.44-.13.07-.02.15-.05.22-.07.39-.13.76-.27,1.13-.44.5-.2.99-.44,1.44-.69.42-.22.82-.47,1.23-.72.13-.1.27-.18.4-.29.35-.24.69-.5,1.02-.77.3-.24.57-.49.86-.77.02,0,.03-.02.05-.05.15-.13.3-.29.44-.42.15-.15.3-.3.42-.45.29-.32.55-.64.82-.96.27-.34.52-.69.77-1.04.13-.18.27-.37.39-.55.07-.08.13-.17.17-.27.13-.2.25-.39.37-.59.03-.05.05-.08.07-.12.15-.25.3-.52.44-.79.03-.07.07-.12.08-.18.07-.1.12-.22.17-.32.03-.07.07-.12.08-.18.17-.32.3-.64.44-.96.03-.05.05-.12.07-.17.13-.32.27-.64.37-.97.03-.05.05-.1.05-.15.05-.17.12-.34.17-.5.03-.05.03-.08.05-.13.08-.27.17-.52.22-.79.08-.27.15-.54.2-.82.08-.25.13-.5.17-.76.05-.24.08-.47.13-.71.07-.29.12-.59.13-.89.05-.35.1-.69.12-1.04.03-.35.05-.72.07-1.08.05-.57.07-1.16.07-1.75,0-7.14-1.87-12.53-5.6-16.21-.13-.13-.27-.25-.4-.37-3.44-3.14-8.62-4.82-15.53-5.09-.62-.02-1.28-.03-1.93-.03h-31.35c-8.33,0-15.08,6.75-15.08,15.08v22.99c0,3.49-.32,6.23-.92,8.23-.62,1.98-1.73,3.38-3.34,4.17-1.61.79-3.93,1.18-6.96,1.18-3.23,0-5.71-.39-7.51-1.18-1.78-.79-3.01-2.18-3.7-4.17-.69-2-1.02-4.74-1.02-8.23V0h-16.47v45.06c0,6.72.82,12.11,2.47,16.16,1.65,4.05,4.54,6.97,8.69,8.79,4.15,1.81,10,2.72,17.54,2.72s12.9-.91,16.89-2.72c3.97-1.81,6.77-4.74,8.38-8.79.52-1.34.97-2.84,1.31-4.47v15.05h16.47v-20.88h2.17c1.71,0,2.96.07,3.75.2.2.03.39.08.57.15.37.13.71.32,1.02.55.21.15.21.16.02.02.15.12.3.27.45.42.57.62,1.34,1.65,2.3,3.09l6.91,10.22,4.22,6.23h19.12v-.1c-.3-.49-.6-.97-.91-1.48h0ZM276.04,35.48c-1.34,1.38-3.73,2.07-7.16,2.07h-11.93v-17.49h11.93c3.43,0,5.81.69,7.16,2.05,1.33,1.38,2,3.61,2,6.69s-.67,5.33-2,6.69h0Z"/>
      <path class="st0" d="M296.57,70.23c-.3-.5-.62-1.01-.96-1.53-.32-.52-.66-1.04-1.01-1.56-.79-1.23-1.63-2.5-2.52-3.81-.76-1.13-1.51-2.22-2.29-3.26-.39-.54-.77-1.06-1.14-1.56-.76-1.02-1.53-2-2.3-2.96-.13-.17-.27-.34-.4-.5-.25-.32-.5-.62-.76-.92-1.01-1.18-1.97-2.17-2.89-2.99-.24-.2-.45-.39-.69-.57-.22-.18-.44-.35-.66-.52-.22-.15-.44-.3-.66-.44v-.02l.1-.3c.42-.08.84-.2,1.24-.32.03,0,.07-.02.1-.03.15-.05.29-.08.44-.13.07-.02.15-.05.22-.07.39-.13.76-.27,1.13-.44.5-.2.99-.44,1.44-.69.42-.22.82-.47,1.23-.72.13-.1.27-.18.4-.29.35-.24.69-.5,1.02-.77.3-.24.57-.49.86-.77.02,0,.03-.02.05-.05.15-.13.3-.29.44-.42.15-.15.3-.3.42-.45.29-.32.55-.64.82-.96.27-.34.52-.69.77-1.04.13-.18.27-.37.39-.55.07-.08.13-.17.17-.27.13-.2.25-.39.37-.59.03-.05.05-.08.07-.12.15-.25.3-.52.44-.79.03-.07.07-.12.08-.18.07-.1.12-.22.17-.32.03-.07.07-.12.08-.18.17-.32.3-.64.44-.96.03-.05.05-.12.07-.17.13-.32.27-.64.37-.97.03-.05.05-.1.05-.15.05-.17.12-.34.17-.5.03-.05.03-.08.05-.13.08-.27.17-.52.22-.79.08-.27.15-.54.2-.82.08-.25.13-.5.17-.76.05-.24.08-.47.13-.71.07-.29.12-.59.13-.89.05-.35.1-.69.12-1.04.03-.35.05-.72.07-1.08.05-.57.07-1.16.07-1.75,0-7.14-1.87-12.53-5.6-16.21-.13-.13-.27-.25-.4-.37-3.44-3.14-8.62-4.82-15.53-5.09-.62-.02-1.28-.03-1.93-.03h-31.35c-8.33,0-15.08,6.75-15.08,15.08v22.99c0,3.49-.32,6.23-.92,8.23-.62,1.98-1.73,3.38-3.34,4.17-1.61.79-3.93,1.18-6.96,1.18-3.23,0-5.71-.39-7.51-1.18-1.78-.79-3.01-2.18-3.7-4.17-.69-2-1.02-4.74-1.02-8.23V0h-16.47v45.06c0,6.72.82,12.11,2.47,16.16,1.65,4.05,4.54,6.97,8.69,8.79,4.15,1.81,10,2.72,17.54,2.72s12.9-.91,16.89-2.72c3.97-1.81,6.77-4.74,8.38-8.79.52-1.34.97-2.84,1.31-4.47v15.05h16.47v-20.88h2.17c1.71,0,2.96.07,3.75.2.2.03.39.08.57.15.37.13.71.32,1.02.55.21.15.21.16.02.02.15.12.3.27.45.42.57.62,1.34,1.65,2.3,3.09l6.91,10.22,4.22,6.23h19.12v-.1c-.3-.49-.6-.97-.91-1.48h0ZM276.04,35.48c-1.34,1.38-3.73,2.07-7.16,2.07h-11.93v-17.49h11.93c3.43,0,5.81.69,7.16,2.05,1.33,1.38,2,3.61,2,6.69s-.67,5.33-2,6.69h0Z"/>
    </g>
  </g>
  <g>
    <g class="st1">
      <g class="st1">
        <path class="st0" d="M3.18,85.69v9.94h5.19v1.64H1.21v-11.58h1.97Z"/>
        <path class="st0" d="M14.82,97.27l-.17-1.01c-.26.35-.58.62-.94.81-.36.19-.85.28-1.46.28-.57,0-1.07-.1-1.49-.29-.42-.19-.74-.46-.97-.81-.23-.35-.34-.75-.34-1.21,0-.7.26-1.28.77-1.75s1.27-.76,2.26-.87l2.17-.23v-.64c0-.26-.12-.5-.35-.72s-.6-.32-1.11-.32c-.44,0-.82.11-1.15.32s-.54.54-.65.97l-1.62-.6c.21-.73.63-1.3,1.25-1.7.62-.41,1.38-.61,2.27-.61,1.08,0,1.89.27,2.43.81.54.54.81,1.23.81,2.07v5.51h-1.72ZM14.65,93.63l-1.98.25c-.42.06-.73.17-.94.36-.21.18-.31.41-.31.69,0,.25.1.47.31.65.2.18.48.27.83.27.45,0,.84-.08,1.15-.25.31-.17.55-.4.71-.71.16-.31.24-.69.24-1.14v-.12Z"/>
        <path class="st0" d="M20.26,90.22c.26-.38.64-.69,1.12-.95s1.06-.39,1.72-.39c.73,0,1.37.18,1.92.53.55.35.98.85,1.3,1.49.31.64.47,1.38.47,2.23s-.16,1.59-.47,2.23c-.31.64-.75,1.14-1.31,1.49-.56.35-1.19.53-1.91.53-.63,0-1.16-.11-1.6-.33s-.8-.49-1.07-.81l-.13,1.03h-1.69v-11.91h1.87v4.91l-.21-.05ZM24.79,93.13c0-.76-.2-1.38-.6-1.85-.4-.47-.92-.71-1.55-.71-.4,0-.76.1-1.08.3-.33.2-.59.49-.79.87-.2.38-.3.85-.3,1.4s.1,1.02.3,1.4c.2.38.46.67.79.87s.69.3,1.08.3c.63,0,1.14-.24,1.55-.71.4-.47.6-1.09.6-1.85Z"/>
        <path class="st0" d="M32.14,97.39c-.79,0-1.5-.17-2.13-.52-.63-.35-1.12-.84-1.47-1.47-.35-.63-.53-1.38-.53-2.24s.18-1.63.55-2.27c.36-.64.87-1.13,1.5-1.48.64-.35,1.35-.52,2.13-.52s1.51.17,2.14.52c.63.35,1.14.84,1.51,1.47s.56,1.38.56,2.24-.19,1.63-.57,2.27-.89,1.13-1.54,1.48-1.36.52-2.16.52ZM32.12,95.72c.39,0,.75-.09,1.1-.28.35-.19.63-.47.85-.85.22-.38.33-.87.33-1.46s-.1-1.05-.31-1.43c-.21-.38-.49-.66-.83-.85s-.71-.28-1.11-.28-.74.09-1.07.28-.59.47-.79.85c-.2.38-.3.87-.3,1.46s.1,1.05.29,1.43c.19.38.45.66.77.85.32.19.67.28,1.06.28Z"/>
        <path class="st0" d="M38.16,89h1.69l.15,1.03c.22-.28.48-.5.78-.69.3-.18.62-.31.97-.37.35-.07.7-.06,1.05.03v1.72c-.29-.1-.59-.12-.92-.07s-.63.17-.9.36c-.28.19-.5.46-.68.81-.18.35-.26.78-.26,1.28v4.17h-1.87v-8.27Z"/>
        <path class="st0" d="M49.19,97.27l-.17-1.01c-.26.35-.58.62-.94.81-.36.19-.85.28-1.46.28-.57,0-1.07-.1-1.49-.29-.42-.19-.74-.46-.97-.81-.23-.35-.34-.75-.34-1.21,0-.7.26-1.28.77-1.75s1.27-.76,2.26-.87l2.17-.23v-.64c0-.26-.12-.5-.35-.72s-.6-.32-1.11-.32c-.44,0-.82.11-1.15.32s-.54.54-.65.97l-1.62-.6c.21-.73.63-1.3,1.25-1.7.62-.41,1.38-.61,2.27-.61,1.08,0,1.89.27,2.43.81.54.54.81,1.23.81,2.07v5.51h-1.72ZM49.02,93.63l-1.98.25c-.42.06-.73.17-.94.36-.21.18-.31.41-.31.69,0,.25.1.47.31.65.2.18.48.27.83.27.45,0,.84-.08,1.15-.25.31-.17.55-.4.71-.71.16-.31.24-.69.24-1.14v-.12Z"/>
        <path class="st0" d="M53.51,89v-2.32h1.9v2.32h1.94v1.64h-1.94v3.67c0,.5.09.84.28,1.03s.43.3.74.31.61,0,.92-.04v1.59c-.47.1-.94.13-1.4.09-.46-.04-.87-.17-1.23-.38-.36-.21-.66-.53-.88-.95-.22-.42-.33-.97-.33-1.65v-3.67h-1.16v-1.64h1.16Z"/>
        <path class="st0" d="M62.64,97.39c-.79,0-1.5-.17-2.13-.52-.63-.35-1.12-.84-1.47-1.47-.35-.63-.53-1.38-.53-2.24s.18-1.63.55-2.27c.36-.64.87-1.13,1.5-1.48.64-.35,1.35-.52,2.13-.52s1.51.17,2.14.52c.63.35,1.14.84,1.51,1.47s.56,1.38.56,2.24-.19,1.63-.57,2.27-.89,1.13-1.54,1.48-1.36.52-2.16.52ZM62.62,95.72c.39,0,.75-.09,1.1-.28.35-.19.63-.47.85-.85.22-.38.33-.87.33-1.46s-.1-1.05-.31-1.43c-.21-.38-.49-.66-.83-.85s-.71-.28-1.11-.28-.74.09-1.07.28-.59.47-.79.85c-.2.38-.3.87-.3,1.46s.1,1.05.29,1.43c.19.38.45.66.77.85.32.19.67.28,1.06.28Z"/>
        <path class="st0" d="M68.66,89h1.69l.15,1.03c.22-.28.48-.5.78-.69.3-.18.62-.31.97-.37.35-.07.7-.06,1.05.03v1.72c-.29-.1-.59-.12-.92-.07s-.63.17-.9.36c-.28.19-.5.46-.68.81-.18.35-.26.78-.26,1.28v4.17h-1.87v-8.27Z"/>
        <path class="st0" d="M75.97,87.74c-.34,0-.63-.12-.86-.35s-.35-.51-.35-.83c0-.34.12-.63.35-.86s.52-.35.86-.35.61.12.84.35.35.52.35.86c0,.32-.12.6-.35.83s-.51.35-.84.35ZM75.02,89h1.87v8.27h-1.87v-8.27Z"/>
        <path class="st0" d="M83.05,97.39c-.79,0-1.5-.17-2.13-.52-.63-.35-1.12-.84-1.47-1.47-.35-.63-.53-1.38-.53-2.24s.18-1.63.55-2.27c.36-.64.87-1.13,1.5-1.48.64-.35,1.35-.52,2.13-.52s1.51.17,2.14.52c.63.35,1.14.84,1.51,1.47s.56,1.38.56,2.24-.19,1.63-.57,2.27-.89,1.13-1.54,1.48-1.36.52-2.16.52ZM83.03,95.72c.39,0,.75-.09,1.1-.28.35-.19.63-.47.85-.85.22-.38.33-.87.33-1.46s-.1-1.05-.31-1.43c-.21-.38-.49-.66-.83-.85s-.71-.28-1.11-.28-.74.09-1.07.28-.59.47-.79.85c-.2.38-.3.87-.3,1.46s.1,1.05.29,1.43c.19.38.45.66.77.85.32.19.67.28,1.06.28Z"/>
        <path class="st0" d="M99.78,90.22l-.21.05v-4.91h1.87v11.91h-1.69l-.13-1.03c-.29.32-.65.59-1.09.81-.44.22-.97.33-1.57.33-.74,0-1.39-.18-1.94-.53-.56-.35-.99-.85-1.3-1.49-.31-.64-.46-1.38-.46-2.23s.15-1.59.46-2.23c.31-.64.74-1.14,1.3-1.49.56-.35,1.2-.53,1.94-.53.65,0,1.22.13,1.7.39.48.26.86.58,1.12.95ZM95.25,93.13c0,.76.2,1.38.6,1.85.4.47.92.71,1.55.71.39,0,.74-.1,1.07-.3s.59-.49.79-.87c.2-.38.31-.85.31-1.4s-.1-1.02-.31-1.4c-.2-.38-.47-.67-.79-.87-.33-.2-.68-.3-1.07-.3-.64,0-1.16.24-1.55.71-.4.47-.6,1.09-.6,1.85Z"/>
        <path class="st0" d="M107.34,97.39c-.83,0-1.55-.18-2.17-.55-.62-.36-1.11-.87-1.46-1.52-.35-.65-.52-1.4-.52-2.25,0-.8.17-1.52.51-2.15.34-.63.82-1.12,1.42-1.49.61-.36,1.3-.55,2.07-.55s1.47.17,2.07.51c.6.34,1.06.82,1.4,1.43s.5,1.32.5,2.12c0,.13,0,.27-.02.42-.01.15-.03.31-.05.47h-5.89c.05.39.18.72.37,1,.19.28.44.5.74.65s.64.23,1.03.23c.46,0,.88-.09,1.25-.28.37-.19.63-.44.77-.74l1.64.55c-.33.66-.82,1.18-1.47,1.56-.65.38-1.38.57-2.18.57ZM109.13,92.32c-.01-.34-.1-.65-.28-.93-.18-.28-.41-.49-.69-.65-.29-.16-.61-.24-.96-.24-.31,0-.6.08-.88.23-.28.15-.51.37-.7.64s-.32.59-.37.95h3.89Z"/>
        <path class="st0" d="M119.63,97.27h-1.97v-11.58h2.2l3.9,9,3.9-9h2.18v11.58h-1.95v-7.82l-3.39,7.82h-1.49l-3.39-7.82v7.82Z"/>
        <path class="st0" d="M135.89,97.39c-.83,0-1.55-.18-2.17-.55-.62-.36-1.11-.87-1.46-1.52-.35-.65-.52-1.4-.52-2.25,0-.8.17-1.52.51-2.15.34-.63.82-1.12,1.42-1.49.61-.36,1.3-.55,2.07-.55s1.47.17,2.07.51c.6.34,1.06.82,1.4,1.43s.5,1.32.5,2.12c0,.13,0,.27-.02.42-.01.15-.03.31-.05.47h-5.89c.05.39.18.72.37,1,.19.28.44.5.74.65s.64.23,1.03.23c.46,0,.88-.09,1.25-.28.37-.19.63-.44.77-.74l1.64.55c-.33.66-.82,1.18-1.47,1.56-.65.38-1.38.57-2.18.57ZM137.68,92.32c-.01-.34-.1-.65-.28-.93-.18-.28-.41-.49-.69-.65-.29-.16-.61-.24-.96-.24-.31,0-.6.08-.88.23-.28.15-.51.37-.7.64s-.32.59-.37.95h3.89Z"/>
        <path class="st0" d="M145.05,97.39c-.79,0-1.49-.18-2.1-.54s-1.08-.85-1.41-1.48c-.34-.63-.5-1.36-.5-2.2s.17-1.59.51-2.23.82-1.14,1.43-1.5c.61-.36,1.32-.55,2.13-.55.85,0,1.6.2,2.27.6s1.14.95,1.42,1.63l-1.7.56c-.14-.34-.39-.61-.74-.82-.35-.2-.74-.31-1.18-.31s-.82.11-1.14.32-.56.52-.74.9c-.17.39-.26.84-.26,1.37,0,.79.19,1.42.58,1.88.39.46.92.69,1.59.69.43,0,.82-.1,1.16-.29.34-.19.61-.47.79-.82l1.67.58c-.32.67-.82,1.21-1.5,1.6-.68.4-1.44.6-2.27.6Z"/>
        <path class="st0" d="M155.51,97.27l-.17-1.01c-.27.35-.58.62-.94.81-.36.19-.85.28-1.46.28-.57,0-1.07-.1-1.49-.29-.42-.19-.74-.46-.97-.81-.23-.35-.34-.75-.34-1.21,0-.7.26-1.28.77-1.75s1.26-.76,2.26-.87l2.17-.23v-.64c0-.26-.12-.5-.35-.72s-.6-.32-1.11-.32c-.44,0-.82.11-1.15.32s-.54.54-.65.97l-1.62-.6c.21-.73.63-1.3,1.25-1.7.62-.41,1.38-.61,2.27-.61,1.08,0,1.89.27,2.43.81.54.54.81,1.23.81,2.07v5.51h-1.72ZM155.34,93.63l-1.99.25c-.42.06-.73.17-.94.36-.21.18-.31.41-.31.69,0,.25.1.47.31.65.2.18.48.27.83.27.45,0,.84-.08,1.15-.25.31-.17.55-.4.71-.71s.24-.69.24-1.14v-.12Z"/>
        <path class="st0" d="M159.82,89v-2.32h1.9v2.32h1.93v1.64h-1.93v3.67c0,.5.09.84.28,1.03s.43.3.74.31c.3.02.61,0,.92-.04v1.59c-.47.1-.94.13-1.4.09-.46-.04-.87-.17-1.23-.38-.36-.21-.66-.53-.88-.95s-.33-.97-.33-1.65v-3.67h-1.16v-1.64h1.16Z"/>
      </g>
      <g class="st1">
        <path class="st0" d="M165.31,89h1.69l.15,1.03c.22-.28.48-.5.78-.69.3-.18.62-.31.97-.37.35-.07.7-.06,1.05.03v1.72c-.29-.1-.59-.12-.92-.07s-.63.17-.9.36c-.28.19-.5.46-.68.81-.18.35-.26.78-.26,1.28v4.17h-1.87v-8.27Z"/>
      </g>
      <g class="st1">
        <path class="st0" d="M174.94,97.39c-.79,0-1.5-.17-2.13-.52s-1.12-.84-1.47-1.47c-.35-.63-.53-1.38-.53-2.24s.18-1.63.55-2.27c.36-.64.87-1.13,1.5-1.48.64-.35,1.35-.52,2.13-.52s1.51.17,2.14.52c.63.35,1.14.84,1.51,1.47s.56,1.38.56,2.24-.19,1.63-.57,2.27c-.38.64-.89,1.13-1.54,1.48-.64.35-1.36.52-2.16.52ZM174.92,95.72c.39,0,.75-.09,1.1-.28.35-.19.63-.47.85-.85.22-.38.33-.87.33-1.46s-.1-1.05-.31-1.43c-.21-.38-.49-.66-.83-.85s-.71-.28-1.11-.28-.74.09-1.07.28-.59.47-.79.85c-.2.38-.3.87-.3,1.46s.1,1.05.29,1.43c.19.38.45.66.77.85.32.19.67.28,1.06.28ZM176.57,85.23v1.46l-3.28,1.59v-1.27l3.28-1.77Z"/>
        <path class="st0" d="M180.96,89h1.69l.13.81c.28-.29.6-.51.98-.68.38-.17.79-.25,1.23-.25.65,0,1.21.13,1.68.41s.83.67,1.08,1.19c.25.52.38,1.18.38,1.96v4.83h-1.87v-4.58c0-.69-.14-1.22-.42-1.57-.28-.35-.7-.53-1.27-.53s-1.01.18-1.31.54-.45.88-.45,1.58v4.57h-1.87v-8.27Z"/>
        <path class="st0" d="M191.41,87.74c-.34,0-.63-.12-.86-.35s-.35-.51-.35-.83c0-.34.12-.63.35-.86s.52-.35.86-.35.61.12.84.35.35.52.35.86c0,.32-.12.6-.35.83s-.51.35-.84.35ZM190.47,89h1.87v8.27h-1.87v-8.27Z"/>
        <path class="st0" d="M198.37,97.39c-.79,0-1.49-.18-2.1-.54s-1.08-.85-1.41-1.48c-.34-.63-.5-1.36-.5-2.2s.17-1.59.51-2.23.82-1.14,1.43-1.5c.61-.36,1.32-.55,2.12-.55.85,0,1.6.2,2.27.6.66.4,1.13.95,1.42,1.63l-1.7.56c-.14-.34-.39-.61-.74-.82s-.74-.31-1.18-.31-.82.11-1.14.32c-.32.21-.56.52-.74.9-.17.39-.26.84-.26,1.37,0,.79.19,1.42.58,1.88.39.46.92.69,1.59.69.43,0,.82-.1,1.16-.29.34-.19.61-.47.79-.82l1.67.58c-.32.67-.82,1.21-1.5,1.6-.68.4-1.44.6-2.27.6Z"/>
        <path class="st0" d="M208.83,97.27l-.17-1.01c-.26.35-.58.62-.94.81-.36.19-.85.28-1.46.28-.57,0-1.07-.1-1.49-.29-.42-.19-.74-.46-.97-.81-.23-.35-.34-.75-.34-1.21,0-.7.26-1.28.77-1.75s1.27-.76,2.26-.87l2.17-.23v-.64c0-.26-.12-.5-.35-.72s-.6-.32-1.11-.32c-.44,0-.82.11-1.15.32s-.54.54-.65.97l-1.62-.6c.21-.73.63-1.3,1.25-1.7.62-.41,1.38-.61,2.27-.61,1.08,0,1.89.27,2.43.81.54.54.81,1.23.81,2.07v5.51h-1.72ZM208.66,93.63l-1.99.25c-.42.06-.73.17-.94.36-.21.18-.31.41-.31.69,0,.25.1.47.31.65.2.18.48.27.83.27.45,0,.83-.08,1.15-.25.31-.17.55-.4.71-.71s.24-.69.24-1.14v-.12Z"/>
        <path class="st0" d="M222.9,89h1.97l-4.86,11.58h-1.85l1.49-3.54-3.23-8.04h2.07l2.18,5.85,2.23-5.85Z"/>
        <path class="st0" d="M235.52,85.69c.93,0,1.69.16,2.29.47s1.05.74,1.35,1.27c.3.54.45,1.12.45,1.75,0,.42-.07.83-.21,1.24-.14.41-.38.79-.7,1.13-.32.35-.74.62-1.26.83-.52.2-1.16.31-1.91.31h-2.56v4.58h-1.97v-11.58h4.53ZM237.62,89.18c0-.57-.17-1.03-.51-1.36s-.87-.5-1.59-.5h-2.56v3.72h2.56c.49,0,.88-.08,1.18-.22.3-.15.53-.36.69-.64.15-.28.23-.62.23-1ZM236.7,92.04l3.16,5.23h-2.22l-3.04-5.23h2.1Z"/>
        <path class="st0" d="M245.26,97.39c-.79,0-1.5-.17-2.13-.52s-1.12-.84-1.47-1.47c-.35-.63-.53-1.38-.53-2.24s.18-1.63.55-2.27c.36-.64.87-1.13,1.5-1.48.64-.35,1.35-.52,2.13-.52s1.51.17,2.14.52c.63.35,1.14.84,1.51,1.47s.56,1.38.56,2.24-.19,1.63-.57,2.27c-.38.64-.89,1.13-1.54,1.48-.64.35-1.36.52-2.16.52ZM245.25,95.72c.39,0,.75-.09,1.1-.28.35-.19.63-.47.85-.85.22-.38.33-.87.33-1.46s-.1-1.05-.31-1.43c-.21-.38-.49-.66-.83-.85s-.71-.28-1.11-.28-.74.09-1.07.28-.59.47-.79.85c-.2.38-.3.87-.3,1.46s.1,1.05.29,1.43c.19.38.45.66.77.85.32.19.67.28,1.06.28Z"/>
        <path class="st0" d="M252.94,90.22c.26-.38.64-.69,1.12-.95s1.06-.39,1.72-.39c.73,0,1.37.18,1.92.53.55.35.98.85,1.3,1.49.31.64.47,1.38.47,2.23s-.16,1.59-.47,2.23c-.31.64-.75,1.14-1.31,1.49-.56.35-1.19.53-1.91.53-.63,0-1.16-.11-1.6-.33-.44-.22-.8-.49-1.08-.81l-.13,1.03h-1.69v-11.91h1.87v4.91l-.21-.05ZM257.47,93.13c0-.76-.2-1.38-.6-1.85-.4-.47-.92-.71-1.55-.71-.4,0-.76.1-1.08.3-.33.2-.59.49-.79.87-.2.38-.3.85-.3,1.4s.1,1.02.3,1.4c.2.38.46.67.79.87s.69.3,1.08.3c.63,0,1.14-.24,1.55-.71.4-.47.6-1.09.6-1.85Z"/>
      </g>
      <g class="st1">
        <path class="st0" d="M264.84,97.39c-.79,0-1.5-.17-2.13-.52-.63-.35-1.12-.84-1.47-1.47-.35-.63-.53-1.38-.53-2.24s.18-1.63.55-2.27c.36-.64.87-1.13,1.5-1.48.64-.35,1.35-.52,2.13-.52s1.51.17,2.14.52c.63.35,1.14.84,1.51,1.47s.56,1.38.56,2.24-.19,1.63-.57,2.27c-.38.64-.89,1.13-1.54,1.48-.65.35-1.37.52-2.16.52ZM264.82,95.72c.39,0,.75-.09,1.1-.28s.63-.47.85-.85c.22-.38.33-.87.33-1.46s-.11-1.05-.31-1.43c-.21-.38-.49-.66-.83-.85s-.71-.28-1.11-.28-.74.09-1.07.28-.59.47-.79.85c-.2.38-.3.87-.3,1.46s.1,1.05.29,1.43c.19.38.45.66.77.85.32.19.67.28,1.06.28ZM266.47,85.23v1.46l-3.27,1.59v-1.27l3.27-1.77Z"/>
      </g>
      <g class="st1">
        <path class="st0" d="M271.16,89v-2.32h1.9v2.32h1.93v1.64h-1.93v3.67c0,.5.09.84.28,1.03s.43.3.74.31c.3.02.61,0,.92-.04v1.59c-.47.1-.94.13-1.4.09-.46-.04-.87-.17-1.23-.38-.36-.21-.66-.53-.88-.95-.22-.42-.33-.97-.33-1.65v-3.67h-1.16v-1.64h1.16Z"/>
        <path class="st0" d="M277.81,87.74c-.34,0-.63-.12-.86-.35s-.35-.51-.35-.83c0-.34.12-.63.35-.86s.52-.35.86-.35.61.12.84.35.35.52.35.86c0,.32-.12.6-.35.83s-.51.35-.84.35ZM276.86,89h1.87v8.27h-1.87v-8.27Z"/>
        <path class="st0" d="M284.77,97.39c-.79,0-1.49-.18-2.1-.54s-1.08-.85-1.41-1.48c-.34-.63-.5-1.36-.5-2.2s.17-1.59.51-2.23.82-1.14,1.43-1.5c.61-.36,1.32-.55,2.13-.55.85,0,1.6.2,2.27.6.66.4,1.14.95,1.42,1.63l-1.7.56c-.14-.34-.39-.61-.74-.82-.35-.2-.74-.31-1.18-.31s-.82.11-1.14.32c-.32.21-.57.52-.74.9s-.26.84-.26,1.37c0,.79.19,1.42.58,1.88.39.46.92.69,1.59.69.43,0,.82-.1,1.16-.29.34-.19.61-.47.79-.82l1.67.58c-.32.67-.82,1.21-1.5,1.6-.68.4-1.44.6-2.27.6Z"/>
        <path class="st0" d="M295.22,97.27l-.17-1.01c-.26.35-.58.62-.94.81s-.85.28-1.46.28c-.57,0-1.07-.1-1.49-.29-.42-.19-.74-.46-.97-.81-.23-.35-.34-.75-.34-1.21,0-.7.26-1.28.77-1.75s1.26-.76,2.26-.87l2.17-.23v-.64c0-.26-.12-.5-.35-.72s-.6-.32-1.11-.32c-.44,0-.82.11-1.15.32s-.54.54-.65.97l-1.62-.6c.21-.73.63-1.3,1.25-1.7.62-.41,1.38-.61,2.27-.61,1.08,0,1.89.27,2.43.81s.81,1.23.81,2.07v5.51h-1.72ZM295.06,93.63l-1.98.25c-.42.06-.73.17-.94.36-.21.18-.31.41-.31.69,0,.25.1.47.31.65s.48.27.83.27c.45,0,.84-.08,1.15-.25.31-.17.55-.4.71-.71.16-.31.24-.69.24-1.14v-.12Z"/>
      </g>
    </g>
    <g class="st1">
      <g class="st1">
        <path class="st0" d="M3.18,85.69v9.94h5.19v1.64H1.21v-11.58h1.97Z"/>
        <path class="st0" d="M14.82,97.27l-.17-1.01c-.26.35-.58.62-.94.81-.36.19-.85.28-1.46.28-.57,0-1.07-.1-1.49-.29-.42-.19-.74-.46-.97-.81-.23-.35-.34-.75-.34-1.21,0-.7.26-1.28.77-1.75s1.27-.76,2.26-.87l2.17-.23v-.64c0-.26-.12-.5-.35-.72s-.6-.32-1.11-.32c-.44,0-.82.11-1.15.32s-.54.54-.65.97l-1.62-.6c.21-.73.63-1.3,1.25-1.7.62-.41,1.38-.61,2.27-.61,1.08,0,1.89.27,2.43.81.54.54.81,1.23.81,2.07v5.51h-1.72ZM14.65,93.63l-1.98.25c-.42.06-.73.17-.94.36-.21.18-.31.41-.31.69,0,.25.1.47.31.65.2.18.48.27.83.27.45,0,.84-.08,1.15-.25.31-.17.55-.4.71-.71.16-.31.24-.69.24-1.14v-.12Z"/>
        <path class="st0" d="M20.26,90.22c.26-.38.64-.69,1.12-.95s1.06-.39,1.72-.39c.73,0,1.37.18,1.92.53.55.35.98.85,1.3,1.49.31.64.47,1.38.47,2.23s-.16,1.59-.47,2.23c-.31.64-.75,1.14-1.31,1.49-.56.35-1.19.53-1.91.53-.63,0-1.16-.11-1.6-.33s-.8-.49-1.07-.81l-.13,1.03h-1.69v-11.91h1.87v4.91l-.21-.05ZM24.79,93.13c0-.76-.2-1.38-.6-1.85-.4-.47-.92-.71-1.55-.71-.4,0-.76.1-1.08.3-.33.2-.59.49-.79.87-.2.38-.3.85-.3,1.4s.1,1.02.3,1.4c.2.38.46.67.79.87s.69.3,1.08.3c.63,0,1.14-.24,1.55-.71.4-.47.6-1.09.6-1.85Z"/>
        <path class="st0" d="M32.14,97.39c-.79,0-1.5-.17-2.13-.52-.63-.35-1.12-.84-1.47-1.47-.35-.63-.53-1.38-.53-2.24s.18-1.63.55-2.27c.36-.64.87-1.13,1.5-1.48.64-.35,1.35-.52,2.13-.52s1.51.17,2.14.52c.63.35,1.14.84,1.51,1.47s.56,1.38.56,2.24-.19,1.63-.57,2.27-.89,1.13-1.54,1.48-1.36.52-2.16.52ZM32.12,95.72c.39,0,.75-.09,1.1-.28.35-.19.63-.47.85-.85.22-.38.33-.87.33-1.46s-.1-1.05-.31-1.43c-.21-.38-.49-.66-.83-.85s-.71-.28-1.11-.28-.74.09-1.07.28-.59.47-.79.85c-.2.38-.3.87-.3,1.46s.1,1.05.29,1.43c.19.38.45.66.77.85.32.19.67.28,1.06.28Z"/>
        <path class="st0" d="M38.16,89h1.69l.15,1.03c.22-.28.48-.5.78-.69.3-.18.62-.31.97-.37.35-.07.7-.06,1.05.03v1.72c-.29-.1-.59-.12-.92-.07s-.63.17-.9.36c-.28.19-.5.46-.68.81-.18.35-.26.78-.26,1.28v4.17h-1.87v-8.27Z"/>
        <path class="st0" d="M49.19,97.27l-.17-1.01c-.26.35-.58.62-.94.81-.36.19-.85.28-1.46.28-.57,0-1.07-.1-1.49-.29-.42-.19-.74-.46-.97-.81-.23-.35-.34-.75-.34-1.21,0-.7.26-1.28.77-1.75s1.27-.76,2.26-.87l2.17-.23v-.64c0-.26-.12-.5-.35-.72s-.6-.32-1.11-.32c-.44,0-.82.11-1.15.32s-.54.54-.65.97l-1.62-.6c.21-.73.63-1.3,1.25-1.7.62-.41,1.38-.61,2.27-.61,1.08,0,1.89.27,2.43.81.54.54.81,1.23.81,2.07v5.51h-1.72ZM49.02,93.63l-1.98.25c-.42.06-.73.17-.94.36-.21.18-.31.41-.31.69,0,.25.1.47.31.65.2.18.48.27.83.27.45,0,.84-.08,1.15-.25.31-.17.55-.4.71-.71.16-.31.24-.69.24-1.14v-.12Z"/>
        <path class="st0" d="M53.51,89v-2.32h1.9v2.32h1.94v1.64h-1.94v3.67c0,.5.09.84.28,1.03s.43.3.74.31.61,0,.92-.04v1.59c-.47.1-.94.13-1.4.09-.46-.04-.87-.17-1.23-.38-.36-.21-.66-.53-.88-.95-.22-.42-.33-.97-.33-1.65v-3.67h-1.16v-1.64h1.16Z"/>
        <path class="st0" d="M62.64,97.39c-.79,0-1.5-.17-2.13-.52-.63-.35-1.12-.84-1.47-1.47-.35-.63-.53-1.38-.53-2.24s.18-1.63.55-2.27c.36-.64.87-1.13,1.5-1.48.64-.35,1.35-.52,2.13-.52s1.51.17,2.14.52c.63.35,1.14.84,1.51,1.47s.56,1.38.56,2.24-.19,1.63-.57,2.27-.89,1.13-1.54,1.48-1.36.52-2.16.52ZM62.62,95.72c.39,0,.75-.09,1.1-.28.35-.19.63-.47.85-.85.22-.38.33-.87.33-1.46s-.1-1.05-.31-1.43c-.21-.38-.49-.66-.83-.85s-.71-.28-1.11-.28-.74.09-1.07.28-.59.47-.79.85c-.2.38-.3.87-.3,1.46s.1,1.05.29,1.43c.19.38.45.66.77.85.32.19.67.28,1.06.28Z"/>
        <path class="st0" d="M68.66,89h1.69l.15,1.03c.22-.28.48-.5.78-.69.3-.18.62-.31.97-.37.35-.07.7-.06,1.05.03v1.72c-.29-.1-.59-.12-.92-.07s-.63.17-.9.36c-.28.19-.5.46-.68.81-.18.35-.26.78-.26,1.28v4.17h-1.87v-8.27Z"/>
        <path class="st0" d="M75.97,87.74c-.34,0-.63-.12-.86-.35s-.35-.51-.35-.83c0-.34.12-.63.35-.86s.52-.35.86-.35.61.12.84.35.35.52.35.86c0,.32-.12.6-.35.83s-.51.35-.84.35ZM75.02,89h1.87v8.27h-1.87v-8.27Z"/>
        <path class="st0" d="M83.05,97.39c-.79,0-1.5-.17-2.13-.52-.63-.35-1.12-.84-1.47-1.47-.35-.63-.53-1.38-.53-2.24s.18-1.63.55-2.27c.36-.64.87-1.13,1.5-1.48.64-.35,1.35-.52,2.13-.52s1.51.17,2.14.52c.63.35,1.14.84,1.51,1.47s.56,1.38.56,2.24-.19,1.63-.57,2.27-.89,1.13-1.54,1.48-1.36.52-2.16.52ZM83.03,95.72c.39,0,.75-.09,1.1-.28.35-.19.63-.47.85-.85.22-.38.33-.87.33-1.46s-.1-1.05-.31-1.43c-.21-.38-.49-.66-.83-.85s-.71-.28-1.11-.28-.74.09-1.07.28-.59.47-.79.85c-.2.38-.3.87-.3,1.46s.1,1.05.29,1.43c.19.38.45.66.77.85.32.19.67.28,1.06.28Z"/>
        <path class="st0" d="M99.78,90.22l-.21.05v-4.91h1.87v11.91h-1.69l-.13-1.03c-.29.32-.65.59-1.09.81-.44.22-.97.33-1.57.33-.74,0-1.39-.18-1.94-.53-.56-.35-.99-.85-1.3-1.49-.31-.64-.46-1.38-.46-2.23s.15-1.59.46-2.23c.31-.64.74-1.14,1.3-1.49.56-.35,1.2-.53,1.94-.53.65,0,1.22.13,1.7.39.48.26.86.58,1.12.95ZM95.25,93.13c0,.76.2,1.38.6,1.85.4.47.92.71,1.55.71.39,0,.74-.1,1.07-.3s.59-.49.79-.87c.2-.38.31-.85.31-1.4s-.1-1.02-.31-1.4c-.2-.38-.47-.67-.79-.87-.33-.2-.68-.3-1.07-.3-.64,0-1.16.24-1.55.71-.4.47-.6,1.09-.6,1.85Z"/>
        <path class="st0" d="M107.34,97.39c-.83,0-1.55-.18-2.17-.55-.62-.36-1.11-.87-1.46-1.52-.35-.65-.52-1.4-.52-2.25,0-.8.17-1.52.51-2.15.34-.63.82-1.12,1.42-1.49.61-.36,1.3-.55,2.07-.55s1.47.17,2.07.51c.6.34,1.06.82,1.4,1.43s.5,1.32.5,2.12c0,.13,0,.27-.02.42-.01.15-.03.31-.05.47h-5.89c.05.39.18.72.37,1,.19.28.44.5.74.65s.64.23,1.03.23c.46,0,.88-.09,1.25-.28.37-.19.63-.44.77-.74l1.64.55c-.33.66-.82,1.18-1.47,1.56-.65.38-1.38.57-2.18.57ZM109.13,92.32c-.01-.34-.1-.65-.28-.93-.18-.28-.41-.49-.69-.65-.29-.16-.61-.24-.96-.24-.31,0-.6.08-.88.23-.28.15-.51.37-.7.64s-.32.59-.37.95h3.89Z"/>
        <path class="st0" d="M119.63,97.27h-1.97v-11.58h2.2l3.9,9,3.9-9h2.18v11.58h-1.95v-7.82l-3.39,7.82h-1.49l-3.39-7.82v7.82Z"/>
        <path class="st0" d="M135.89,97.39c-.83,0-1.55-.18-2.17-.55-.62-.36-1.11-.87-1.46-1.52-.35-.65-.52-1.4-.52-2.25,0-.8.17-1.52.51-2.15.34-.63.82-1.12,1.42-1.49.61-.36,1.3-.55,2.07-.55s1.47.17,2.07.51c.6.34,1.06.82,1.4,1.43s.5,1.32.5,2.12c0,.13,0,.27-.02.42-.01.15-.03.31-.05.47h-5.89c.05.39.18.72.37,1,.19.28.44.5.74.65s.64.23,1.03.23c.46,0,.88-.09,1.25-.28.37-.19.63-.44.77-.74l1.64.55c-.33.66-.82,1.18-1.47,1.56-.65.38-1.38.57-2.18.57ZM137.68,92.32c-.01-.34-.1-.65-.28-.93-.18-.28-.41-.49-.69-.65-.29-.16-.61-.24-.96-.24-.31,0-.6.08-.88.23-.28.15-.51.37-.7.64s-.32.59-.37.95h3.89Z"/>
        <path class="st0" d="M145.05,97.39c-.79,0-1.49-.18-2.1-.54s-1.08-.85-1.41-1.48c-.34-.63-.5-1.36-.5-2.2s.17-1.59.51-2.23.82-1.14,1.43-1.5c.61-.36,1.32-.55,2.13-.55.85,0,1.6.2,2.27.6s1.14.95,1.42,1.63l-1.7.56c-.14-.34-.39-.61-.74-.82-.35-.2-.74-.31-1.18-.31s-.82.11-1.14.32-.56.52-.74.9c-.17.39-.26.84-.26,1.37,0,.79.19,1.42.58,1.88.39.46.92.69,1.59.69.43,0,.82-.1,1.16-.29.34-.19.61-.47.79-.82l1.67.58c-.32.67-.82,1.21-1.5,1.6-.68.4-1.44.6-2.27.6Z"/>
        <path class="st0" d="M155.51,97.27l-.17-1.01c-.27.35-.58.62-.94.81-.36.19-.85.28-1.46.28-.57,0-1.07-.1-1.49-.29-.42-.19-.74-.46-.97-.81-.23-.35-.34-.75-.34-1.21,0-.7.26-1.28.77-1.75s1.26-.76,2.26-.87l2.17-.23v-.64c0-.26-.12-.5-.35-.72s-.6-.32-1.11-.32c-.44,0-.82.11-1.15.32s-.54.54-.65.97l-1.62-.6c.21-.73.63-1.3,1.25-1.7.62-.41,1.38-.61,2.27-.61,1.08,0,1.89.27,2.43.81.54.54.81,1.23.81,2.07v5.51h-1.72ZM155.34,93.63l-1.99.25c-.42.06-.73.17-.94.36-.21.18-.31.41-.31.69,0,.25.1.47.31.65.2.18.48.27.83.27.45,0,.84-.08,1.15-.25.31-.17.55-.4.71-.71s.24-.69.24-1.14v-.12Z"/>
        <path class="st0" d="M159.82,89v-2.32h1.9v2.32h1.93v1.64h-1.93v3.67c0,.5.09.84.28,1.03s.43.3.74.31c.3.02.61,0,.92-.04v1.59c-.47.1-.94.13-1.4.09-.46-.04-.87-.17-1.23-.38-.36-.21-.66-.53-.88-.95s-.33-.97-.33-1.65v-3.67h-1.16v-1.64h1.16Z"/>
      </g>
      <g class="st1">
        <path class="st0" d="M165.31,89h1.69l.15,1.03c.22-.28.48-.5.78-.69.3-.18.62-.31.97-.37.35-.07.7-.06,1.05.03v1.72c-.29-.1-.59-.12-.92-.07s-.63.17-.9.36c-.28.19-.5.46-.68.81-.18.35-.26.78-.26,1.28v4.17h-1.87v-8.27Z"/>
      </g>
      <g class="st1">
        <path class="st0" d="M174.94,97.39c-.79,0-1.5-.17-2.13-.52s-1.12-.84-1.47-1.47c-.35-.63-.53-1.38-.53-2.24s.18-1.63.55-2.27c.36-.64.87-1.13,1.5-1.48.64-.35,1.35-.52,2.13-.52s1.51.17,2.14.52c.63.35,1.14.84,1.51,1.47s.56,1.38.56,2.24-.19,1.63-.57,2.27c-.38.64-.89,1.13-1.54,1.48-.64.35-1.36.52-2.16.52ZM174.92,95.72c.39,0,.75-.09,1.1-.28.35-.19.63-.47.85-.85.22-.38.33-.87.33-1.46s-.1-1.05-.31-1.43c-.21-.38-.49-.66-.83-.85s-.71-.28-1.11-.28-.74.09-1.07.28-.59.47-.79.85c-.2.38-.3.87-.3,1.46s.1,1.05.29,1.43c.19.38.45.66.77.85.32.19.67.28,1.06.28ZM176.57,85.23v1.46l-3.28,1.59v-1.27l3.28-1.77Z"/>
        <path class="st0" d="M180.96,89h1.69l.13.81c.28-.29.6-.51.98-.68.38-.17.79-.25,1.23-.25.65,0,1.21.13,1.68.41s.83.67,1.08,1.19c.25.52.38,1.18.38,1.96v4.83h-1.87v-4.58c0-.69-.14-1.22-.42-1.57-.28-.35-.7-.53-1.27-.53s-1.01.18-1.31.54-.45.88-.45,1.58v4.57h-1.87v-8.27Z"/>
        <path class="st0" d="M191.41,87.74c-.34,0-.63-.12-.86-.35s-.35-.51-.35-.83c0-.34.12-.63.35-.86s.52-.35.86-.35.61.12.84.35.35.52.35.86c0,.32-.12.6-.35.83s-.51.35-.84.35ZM190.47,89h1.87v8.27h-1.87v-8.27Z"/>
        <path class="st0" d="M198.37,97.39c-.79,0-1.49-.18-2.1-.54s-1.08-.85-1.41-1.48c-.34-.63-.5-1.36-.5-2.2s.17-1.59.51-2.23.82-1.14,1.43-1.5c.61-.36,1.32-.55,2.12-.55.85,0,1.6.2,2.27.6.66.4,1.13.95,1.42,1.63l-1.7.56c-.14-.34-.39-.61-.74-.82s-.74-.31-1.18-.31-.82.11-1.14.32c-.32.21-.56.52-.74.9-.17.39-.26.84-.26,1.37,0,.79.19,1.42.58,1.88.39.46.92.69,1.59.69.43,0,.82-.1,1.16-.29.34-.19.61-.47.79-.82l1.67.58c-.32.67-.82,1.21-1.5,1.6-.68.4-1.44.6-2.27.6Z"/>
        <path class="st0" d="M208.83,97.27l-.17-1.01c-.26.35-.58.62-.94.81-.36.19-.85.28-1.46.28-.57,0-1.07-.1-1.49-.29-.42-.19-.74-.46-.97-.81-.23-.35-.34-.75-.34-1.21,0-.7.26-1.28.77-1.75s1.27-.76,2.26-.87l2.17-.23v-.64c0-.26-.12-.5-.35-.72s-.6-.32-1.11-.32c-.44,0-.82.11-1.15.32s-.54.54-.65.97l-1.62-.6c.21-.73.63-1.3,1.25-1.7.62-.41,1.38-.61,2.27-.61,1.08,0,1.89.27,2.43.81.54.54.81,1.23.81,2.07v5.51h-1.72ZM208.66,93.63l-1.99.25c-.42.06-.73.17-.94.36-.21.18-.31.41-.31.69,0,.25.1.47.31.65.2.18.48.27.83.27.45,0,.83-.08,1.15-.25.31-.17.55-.4.71-.71s.24-.69.24-1.14v-.12Z"/>
        <path class="st0" d="M222.9,89h1.97l-4.86,11.58h-1.85l1.49-3.54-3.23-8.04h2.07l2.18,5.85,2.23-5.85Z"/>
        <path class="st0" d="M235.52,85.69c.93,0,1.69.16,2.29.47s1.05.74,1.35,1.27c.3.54.45,1.12.45,1.75,0,.42-.07.83-.21,1.24-.14.41-.38.79-.7,1.13-.32.35-.74.62-1.26.83-.52.2-1.16.31-1.91.31h-2.56v4.58h-1.97v-11.58h4.53ZM237.62,89.18c0-.57-.17-1.03-.51-1.36s-.87-.5-1.59-.5h-2.56v3.72h2.56c.49,0,.88-.08,1.18-.22.3-.15.53-.36.69-.64.15-.28.23-.62.23-1ZM236.7,92.04l3.16,5.23h-2.22l-3.04-5.23h2.1Z"/>
        <path class="st0" d="M245.26,97.39c-.79,0-1.5-.17-2.13-.52s-1.12-.84-1.47-1.47c-.35-.63-.53-1.38-.53-2.24s.18-1.63.55-2.27c.36-.64.87-1.13,1.5-1.48.64-.35,1.35-.52,2.13-.52s1.51.17,2.14.52c.63.35,1.14.84,1.51,1.47s.56,1.38.56,2.24-.19,1.63-.57,2.27c-.38.64-.89,1.13-1.54,1.48-.64.35-1.36.52-2.16.52ZM245.25,95.72c.39,0,.75-.09,1.1-.28.35-.19.63-.47.85-.85.22-.38.33-.87.33-1.46s-.1-1.05-.31-1.43c-.21-.38-.49-.66-.83-.85s-.71-.28-1.11-.28-.74.09-1.07.28-.59.47-.79.85c-.2.38-.3.87-.3,1.46s.1,1.05.29,1.43c.19.38.45.66.77.85.32.19.67.28,1.06.28Z"/>
        <path class="st0" d="M252.94,90.22c.26-.38.64-.69,1.12-.95s1.06-.39,1.72-.39c.73,0,1.37.18,1.92.53.55.35.98.85,1.3,1.49.31.64.47,1.38.47,2.23s-.16,1.59-.47,2.23c-.31.64-.75,1.14-1.31,1.49-.56.35-1.19.53-1.91.53-.63,0-1.16-.11-1.6-.33-.44-.22-.8-.49-1.08-.81l-.13,1.03h-1.69v-11.91h1.87v4.91l-.21-.05ZM257.47,93.13c0-.76-.2-1.38-.6-1.85-.4-.47-.92-.71-1.55-.71-.4,0-.76.1-1.08.3-.33.2-.59.49-.79.87-.2.38-.3.85-.3,1.4s.1,1.02.3,1.4c.2.38.46.67.79.87s.69.3,1.08.3c.63,0,1.14-.24,1.55-.71.4-.47.6-1.09.6-1.85Z"/>
      </g>
      <g class="st1">
        <path class="st0" d="M264.84,97.39c-.79,0-1.5-.17-2.13-.52-.63-.35-1.12-.84-1.47-1.47-.35-.63-.53-1.38-.53-2.24s.18-1.63.55-2.27c.36-.64.87-1.13,1.5-1.48.64-.35,1.35-.52,2.13-.52s1.51.17,2.14.52c.63.35,1.14.84,1.51,1.47s.56,1.38.56,2.24-.19,1.63-.57,2.27c-.38.64-.89,1.13-1.54,1.48-.65.35-1.37.52-2.16.52ZM264.82,95.72c.39,0,.75-.09,1.1-.28s.63-.47.85-.85c.22-.38.33-.87.33-1.46s-.11-1.05-.31-1.43c-.21-.38-.49-.66-.83-.85s-.71-.28-1.11-.28-.74.09-1.07.28-.59.47-.79.85c-.2.38-.3.87-.3,1.46s.1,1.05.29,1.43c.19.38.45.66.77.85.32.19.67.28,1.06.28ZM266.47,85.23v1.46l-3.27,1.59v-1.27l3.27-1.77Z"/>
      </g>
      <g class="st1">
        <path class="st0" d="M271.16,89v-2.32h1.9v2.32h1.93v1.64h-1.93v3.67c0,.5.09.84.28,1.03s.43.3.74.31c.3.02.61,0,.92-.04v1.59c-.47.1-.94.13-1.4.09-.46-.04-.87-.17-1.23-.38-.36-.21-.66-.53-.88-.95-.22-.42-.33-.97-.33-1.65v-3.67h-1.16v-1.64h1.16Z"/>
        <path class="st0" d="M277.81,87.74c-.34,0-.63-.12-.86-.35s-.35-.51-.35-.83c0-.34.12-.63.35-.86s.52-.35.86-.35.61.12.84.35.35.52.35.86c0,.32-.12.6-.35.83s-.51.35-.84.35ZM276.86,89h1.87v8.27h-1.87v-8.27Z"/>
        <path class="st0" d="M284.77,97.39c-.79,0-1.49-.18-2.1-.54s-1.08-.85-1.41-1.48c-.34-.63-.5-1.36-.5-2.2s.17-1.59.51-2.23.82-1.14,1.43-1.5c.61-.36,1.32-.55,2.13-.55.85,0,1.6.2,2.27.6.66.4,1.14.95,1.42,1.63l-1.7.56c-.14-.34-.39-.61-.74-.82-.35-.2-.74-.31-1.18-.31s-.82.11-1.14.32c-.32.21-.57.52-.74.9s-.26.84-.26,1.37c0,.79.19,1.42.58,1.88.39.46.92.69,1.59.69.43,0,.82-.1,1.16-.29.34-.19.61-.47.79-.82l1.67.58c-.32.67-.82,1.21-1.5,1.6-.68.4-1.44.6-2.27.6Z"/>
        <path class="st0" d="M295.22,97.27l-.17-1.01c-.26.35-.58.62-.94.81s-.85.28-1.46.28c-.57,0-1.07-.1-1.49-.29-.42-.19-.74-.46-.97-.81-.23-.35-.34-.75-.34-1.21,0-.7.26-1.28.77-1.75s1.26-.76,2.26-.87l2.17-.23v-.64c0-.26-.12-.5-.35-.72s-.6-.32-1.11-.32c-.44,0-.82.11-1.15.32s-.54.54-.65.97l-1.62-.6c.21-.73.63-1.3,1.25-1.7.62-.41,1.38-.61,2.27-.61,1.08,0,1.89.27,2.43.81s.81,1.23.81,2.07v5.51h-1.72ZM295.06,93.63l-1.98.25c-.42.06-.73.17-.94.36-.21.18-.31.41-.31.69,0,.25.1.47.31.65s.48.27.83.27c.45,0,.84-.08,1.15-.25.31-.17.55-.4.71-.71.16-.31.24-.69.24-1.14v-.12Z"/>
      </g>
    </g>
    <g class="st1">
      <g class="st1">
        <path class="st0" d="M3.18,85.69v9.94h5.19v1.64H1.21v-11.58h1.97Z"/>
        <path class="st0" d="M14.82,97.27l-.17-1.01c-.26.35-.58.62-.94.81-.36.19-.85.28-1.46.28-.57,0-1.07-.1-1.49-.29-.42-.19-.74-.46-.97-.81-.23-.35-.34-.75-.34-1.21,0-.7.26-1.28.77-1.75s1.27-.76,2.26-.87l2.17-.23v-.64c0-.26-.12-.5-.35-.72s-.6-.32-1.11-.32c-.44,0-.82.11-1.15.32s-.54.54-.65.97l-1.62-.6c.21-.73.63-1.3,1.25-1.7.62-.41,1.38-.61,2.27-.61,1.08,0,1.89.27,2.43.81.54.54.81,1.23.81,2.07v5.51h-1.72ZM14.65,93.63l-1.98.25c-.42.06-.73.17-.94.36-.21.18-.31.41-.31.69,0,.25.1.47.31.65.2.18.48.27.83.27.45,0,.84-.08,1.15-.25.31-.17.55-.4.71-.71.16-.31.24-.69.24-1.14v-.12Z"/>
        <path class="st0" d="M20.26,90.22c.26-.38.64-.69,1.12-.95s1.06-.39,1.72-.39c.73,0,1.37.18,1.92.53.55.35.98.85,1.3,1.49.31.64.47,1.38.47,2.23s-.16,1.59-.47,2.23c-.31.64-.75,1.14-1.31,1.49-.56.35-1.19.53-1.91.53-.63,0-1.16-.11-1.6-.33s-.8-.49-1.07-.81l-.13,1.03h-1.69v-11.91h1.87v4.91l-.21-.05ZM24.79,93.13c0-.76-.2-1.38-.6-1.85-.4-.47-.92-.71-1.55-.71-.4,0-.76.1-1.08.3-.33.2-.59.49-.79.87-.2.38-.3.85-.3,1.4s.1,1.02.3,1.4c.2.38.46.67.79.87s.69.3,1.08.3c.63,0,1.14-.24,1.55-.71.4-.47.6-1.09.6-1.85Z"/>
        <path class="st0" d="M32.14,97.39c-.79,0-1.5-.17-2.13-.52-.63-.35-1.12-.84-1.47-1.47-.35-.63-.53-1.38-.53-2.24s.18-1.63.55-2.27c.36-.64.87-1.13,1.5-1.48.64-.35,1.35-.52,2.13-.52s1.51.17,2.14.52c.63.35,1.14.84,1.51,1.47s.56,1.38.56,2.24-.19,1.63-.57,2.27-.89,1.13-1.54,1.48-1.36.52-2.16.52ZM32.12,95.72c.39,0,.75-.09,1.1-.28.35-.19.63-.47.85-.85.22-.38.33-.87.33-1.46s-.1-1.05-.31-1.43c-.21-.38-.49-.66-.83-.85s-.71-.28-1.11-.28-.74.09-1.07.28-.59.47-.79.85c-.2.38-.3.87-.3,1.46s.1,1.05.29,1.43c.19.38.45.66.77.85.32.19.67.28,1.06.28Z"/>
        <path class="st0" d="M38.16,89h1.69l.15,1.03c.22-.28.48-.5.78-.69.3-.18.62-.31.97-.37.35-.07.7-.06,1.05.03v1.72c-.29-.1-.59-.12-.92-.07s-.63.17-.9.36c-.28.19-.5.46-.68.81-.18.35-.26.78-.26,1.28v4.17h-1.87v-8.27Z"/>
        <path class="st0" d="M49.19,97.27l-.17-1.01c-.26.35-.58.62-.94.81-.36.19-.85.28-1.46.28-.57,0-1.07-.1-1.49-.29-.42-.19-.74-.46-.97-.81-.23-.35-.34-.75-.34-1.21,0-.7.26-1.28.77-1.75s1.27-.76,2.26-.87l2.17-.23v-.64c0-.26-.12-.5-.35-.72s-.6-.32-1.11-.32c-.44,0-.82.11-1.15.32s-.54.54-.65.97l-1.62-.6c.21-.73.63-1.3,1.25-1.7.62-.41,1.38-.61,2.27-.61,1.08,0,1.89.27,2.43.81.54.54.81,1.23.81,2.07v5.51h-1.72ZM49.02,93.63l-1.98.25c-.42.06-.73.17-.94.36-.21.18-.31.41-.31.69,0,.25.1.47.31.65.2.18.48.27.83.27.45,0,.84-.08,1.15-.25.31-.17.55-.4.71-.71.16-.31.24-.69.24-1.14v-.12Z"/>
        <path class="st0" d="M53.51,89v-2.32h1.9v2.32h1.94v1.64h-1.94v3.67c0,.5.09.84.28,1.03s.43.3.74.31.61,0,.92-.04v1.59c-.47.1-.94.13-1.4.09-.46-.04-.87-.17-1.23-.38-.36-.21-.66-.53-.88-.95-.22-.42-.33-.97-.33-1.65v-3.67h-1.16v-1.64h1.16Z"/>
        <path class="st0" d="M62.64,97.39c-.79,0-1.5-.17-2.13-.52-.63-.35-1.12-.84-1.47-1.47-.35-.63-.53-1.38-.53-2.24s.18-1.63.55-2.27c.36-.64.87-1.13,1.5-1.48.64-.35,1.35-.52,2.13-.52s1.51.17,2.14.52c.63.35,1.14.84,1.51,1.47s.56,1.38.56,2.24-.19,1.63-.57,2.27-.89,1.13-1.54,1.48-1.36.52-2.16.52ZM62.62,95.72c.39,0,.75-.09,1.1-.28.35-.19.63-.47.85-.85.22-.38.33-.87.33-1.46s-.1-1.05-.31-1.43c-.21-.38-.49-.66-.83-.85s-.71-.28-1.11-.28-.74.09-1.07.28-.59.47-.79.85c-.2.38-.3.87-.3,1.46s.1,1.05.29,1.43c.19.38.45.66.77.85.32.19.67.28,1.06.28Z"/>
        <path class="st0" d="M68.66,89h1.69l.15,1.03c.22-.28.48-.5.78-.69.3-.18.62-.31.97-.37.35-.07.7-.06,1.05.03v1.72c-.29-.1-.59-.12-.92-.07s-.63.17-.9.36c-.28.19-.5.46-.68.81-.18.35-.26.78-.26,1.28v4.17h-1.87v-8.27Z"/>
        <path class="st0" d="M75.97,87.74c-.34,0-.63-.12-.86-.35s-.35-.51-.35-.83c0-.34.12-.63.35-.86s.52-.35.86-.35.61.12.84.35.35.52.35.86c0,.32-.12.6-.35.83s-.51.35-.84.35ZM75.02,89h1.87v8.27h-1.87v-8.27Z"/>
        <path class="st0" d="M83.05,97.39c-.79,0-1.5-.17-2.13-.52-.63-.35-1.12-.84-1.47-1.47-.35-.63-.53-1.38-.53-2.24s.18-1.63.55-2.27c.36-.64.87-1.13,1.5-1.48.64-.35,1.35-.52,2.13-.52s1.51.17,2.14.52c.63.35,1.14.84,1.51,1.47s.56,1.38.56,2.24-.19,1.63-.57,2.27-.89,1.13-1.54,1.48-1.36.52-2.16.52ZM83.03,95.72c.39,0,.75-.09,1.1-.28.35-.19.63-.47.85-.85.22-.38.33-.87.33-1.46s-.1-1.05-.31-1.43c-.21-.38-.49-.66-.83-.85s-.71-.28-1.11-.28-.74.09-1.07.28-.59.47-.79.85c-.2.38-.3.87-.3,1.46s.1,1.05.29,1.43c.19.38.45.66.77.85.32.19.67.28,1.06.28Z"/>
        <path class="st0" d="M99.78,90.22l-.21.05v-4.91h1.87v11.91h-1.69l-.13-1.03c-.29.32-.65.59-1.09.81-.44.22-.97.33-1.57.33-.74,0-1.39-.18-1.94-.53-.56-.35-.99-.85-1.3-1.49-.31-.64-.46-1.38-.46-2.23s.15-1.59.46-2.23c.31-.64.74-1.14,1.3-1.49.56-.35,1.2-.53,1.94-.53.65,0,1.22.13,1.7.39.48.26.86.58,1.12.95ZM95.25,93.13c0,.76.2,1.38.6,1.85.4.47.92.71,1.55.71.39,0,.74-.1,1.07-.3s.59-.49.79-.87c.2-.38.31-.85.31-1.4s-.1-1.02-.31-1.4c-.2-.38-.47-.67-.79-.87-.33-.2-.68-.3-1.07-.3-.64,0-1.16.24-1.55.71-.4.47-.6,1.09-.6,1.85Z"/>
        <path class="st0" d="M107.34,97.39c-.83,0-1.55-.18-2.17-.55-.62-.36-1.11-.87-1.46-1.52-.35-.65-.52-1.4-.52-2.25,0-.8.17-1.52.51-2.15.34-.63.82-1.12,1.42-1.49.61-.36,1.3-.55,2.07-.55s1.47.17,2.07.51c.6.34,1.06.82,1.4,1.43s.5,1.32.5,2.12c0,.13,0,.27-.02.42-.01.15-.03.31-.05.47h-5.89c.05.39.18.72.37,1,.19.28.44.5.74.65s.64.23,1.03.23c.46,0,.88-.09,1.25-.28.37-.19.63-.44.77-.74l1.64.55c-.33.66-.82,1.18-1.47,1.56-.65.38-1.38.57-2.18.57ZM109.13,92.32c-.01-.34-.1-.65-.28-.93-.18-.28-.41-.49-.69-.65-.29-.16-.61-.24-.96-.24-.31,0-.6.08-.88.23-.28.15-.51.37-.7.64s-.32.59-.37.95h3.89Z"/>
        <path class="st0" d="M119.63,97.27h-1.97v-11.58h2.2l3.9,9,3.9-9h2.18v11.58h-1.95v-7.82l-3.39,7.82h-1.49l-3.39-7.82v7.82Z"/>
        <path class="st0" d="M135.89,97.39c-.83,0-1.55-.18-2.17-.55-.62-.36-1.11-.87-1.46-1.52-.35-.65-.52-1.4-.52-2.25,0-.8.17-1.52.51-2.15.34-.63.82-1.12,1.42-1.49.61-.36,1.3-.55,2.07-.55s1.47.17,2.07.51c.6.34,1.06.82,1.4,1.43s.5,1.32.5,2.12c0,.13,0,.27-.02.42-.01.15-.03.31-.05.47h-5.89c.05.39.18.72.37,1,.19.28.44.5.74.65s.64.23,1.03.23c.46,0,.88-.09,1.25-.28.37-.19.63-.44.77-.74l1.64.55c-.33.66-.82,1.18-1.47,1.56-.65.38-1.38.57-2.18.57ZM137.68,92.32c-.01-.34-.1-.65-.28-.93-.18-.28-.41-.49-.69-.65-.29-.16-.61-.24-.96-.24-.31,0-.6.08-.88.23-.28.15-.51.37-.7.64s-.32.59-.37.95h3.89Z"/>
        <path class="st0" d="M145.05,97.39c-.79,0-1.49-.18-2.1-.54s-1.08-.85-1.41-1.48c-.34-.63-.5-1.36-.5-2.2s.17-1.59.51-2.23.82-1.14,1.43-1.5c.61-.36,1.32-.55,2.13-.55.85,0,1.6.2,2.27.6s1.14.95,1.42,1.63l-1.7.56c-.14-.34-.39-.61-.74-.82-.35-.2-.74-.31-1.18-.31s-.82.11-1.14.32-.56.52-.74.9c-.17.39-.26.84-.26,1.37,0,.79.19,1.42.58,1.88.39.46.92.69,1.59.69.43,0,.82-.1,1.16-.29.34-.19.61-.47.79-.82l1.67.58c-.32.67-.82,1.21-1.5,1.6-.68.4-1.44.6-2.27.6Z"/>
        <path class="st0" d="M155.51,97.27l-.17-1.01c-.27.35-.58.62-.94.81-.36.19-.85.28-1.46.28-.57,0-1.07-.1-1.49-.29-.42-.19-.74-.46-.97-.81-.23-.35-.34-.75-.34-1.21,0-.7.26-1.28.77-1.75s1.26-.76,2.26-.87l2.17-.23v-.64c0-.26-.12-.5-.35-.72s-.6-.32-1.11-.32c-.44,0-.82.11-1.15.32s-.54.54-.65.97l-1.62-.6c.21-.73.63-1.3,1.25-1.7.62-.41,1.38-.61,2.27-.61,1.08,0,1.89.27,2.43.81.54.54.81,1.23.81,2.07v5.51h-1.72ZM155.34,93.63l-1.99.25c-.42.06-.73.17-.94.36-.21.18-.31.41-.31.69,0,.25.1.47.31.65.2.18.48.27.83.27.45,0,.84-.08,1.15-.25.31-.17.55-.4.71-.71s.24-.69.24-1.14v-.12Z"/>
        <path class="st0" d="M159.82,89v-2.32h1.9v2.32h1.93v1.64h-1.93v3.67c0,.5.09.84.28,1.03s.43.3.74.31c.3.02.61,0,.92-.04v1.59c-.47.1-.94.13-1.4.09-.46-.04-.87-.17-1.23-.38-.36-.21-.66-.53-.88-.95s-.33-.97-.33-1.65v-3.67h-1.16v-1.64h1.16Z"/>
      </g>
      <g class="st1">
        <path class="st0" d="M165.31,89h1.69l.15,1.03c.22-.28.48-.5.78-.69.3-.18.62-.31.97-.37.35-.07.7-.06,1.05.03v1.72c-.29-.1-.59-.12-.92-.07s-.63.17-.9.36c-.28.19-.5.46-.68.81-.18.35-.26.78-.26,1.28v4.17h-1.87v-8.27Z"/>
      </g>
      <g class="st1">
        <path class="st0" d="M174.94,97.39c-.79,0-1.5-.17-2.13-.52s-1.12-.84-1.47-1.47c-.35-.63-.53-1.38-.53-2.24s.18-1.63.55-2.27c.36-.64.87-1.13,1.5-1.48.64-.35,1.35-.52,2.13-.52s1.51.17,2.14.52c.63.35,1.14.84,1.51,1.47s.56,1.38.56,2.24-.19,1.63-.57,2.27c-.38.64-.89,1.13-1.54,1.48-.64.35-1.36.52-2.16.52ZM174.92,95.72c.39,0,.75-.09,1.1-.28.35-.19.63-.47.85-.85.22-.38.33-.87.33-1.46s-.1-1.05-.31-1.43c-.21-.38-.49-.66-.83-.85s-.71-.28-1.11-.28-.74.09-1.07.28-.59.47-.79.85c-.2.38-.3.87-.3,1.46s.1,1.05.29,1.43c.19.38.45.66.77.85.32.19.67.28,1.06.28ZM176.57,85.23v1.46l-3.28,1.59v-1.27l3.28-1.77Z"/>
        <path class="st0" d="M180.96,89h1.69l.13.81c.28-.29.6-.51.98-.68.38-.17.79-.25,1.23-.25.65,0,1.21.13,1.68.41s.83.67,1.08,1.19c.25.52.38,1.18.38,1.96v4.83h-1.87v-4.58c0-.69-.14-1.22-.42-1.57-.28-.35-.7-.53-1.27-.53s-1.01.18-1.31.54-.45.88-.45,1.58v4.57h-1.87v-8.27Z"/>
        <path class="st0" d="M191.41,87.74c-.34,0-.63-.12-.86-.35s-.35-.51-.35-.83c0-.34.12-.63.35-.86s.52-.35.86-.35.61.12.84.35.35.52.35.86c0,.32-.12.6-.35.83s-.51.35-.84.35ZM190.47,89h1.87v8.27h-1.87v-8.27Z"/>
        <path class="st0" d="M198.37,97.39c-.79,0-1.49-.18-2.1-.54s-1.08-.85-1.41-1.48c-.34-.63-.5-1.36-.5-2.2s.17-1.59.51-2.23.82-1.14,1.43-1.5c.61-.36,1.32-.55,2.12-.55.85,0,1.6.2,2.27.6.66.4,1.13.95,1.42,1.63l-1.7.56c-.14-.34-.39-.61-.74-.82s-.74-.31-1.18-.31-.82.11-1.14.32c-.32.21-.56.52-.74.9-.17.39-.26.84-.26,1.37,0,.79.19,1.42.58,1.88.39.46.92.69,1.59.69.43,0,.82-.1,1.16-.29.34-.19.61-.47.79-.82l1.67.58c-.32.67-.82,1.21-1.5,1.6-.68.4-1.44.6-2.27.6Z"/>
        <path class="st0" d="M208.83,97.27l-.17-1.01c-.26.35-.58.62-.94.81-.36.19-.85.28-1.46.28-.57,0-1.07-.1-1.49-.29-.42-.19-.74-.46-.97-.81-.23-.35-.34-.75-.34-1.21,0-.7.26-1.28.77-1.75s1.27-.76,2.26-.87l2.17-.23v-.64c0-.26-.12-.5-.35-.72s-.6-.32-1.11-.32c-.44,0-.82.11-1.15.32s-.54.54-.65.97l-1.62-.6c.21-.73.63-1.3,1.25-1.7.62-.41,1.38-.61,2.27-.61,1.08,0,1.89.27,2.43.81.54.54.81,1.23.81,2.07v5.51h-1.72ZM208.66,93.63l-1.99.25c-.42.06-.73.17-.94.36-.21.18-.31.41-.31.69,0,.25.1.47.31.65.2.18.48.27.83.27.45,0,.83-.08,1.15-.25.31-.17.55-.4.71-.71s.24-.69.24-1.14v-.12Z"/>
        <path class="st0" d="M222.9,89h1.97l-4.86,11.58h-1.85l1.49-3.54-3.23-8.04h2.07l2.18,5.85,2.23-5.85Z"/>
        <path class="st0" d="M235.52,85.69c.93,0,1.69.16,2.29.47s1.05.74,1.35,1.27c.3.54.45,1.12.45,1.75,0,.42-.07.83-.21,1.24-.14.41-.38.79-.7,1.13-.32.35-.74.62-1.26.83-.52.2-1.16.31-1.91.31h-2.56v4.58h-1.97v-11.58h4.53ZM237.62,89.18c0-.57-.17-1.03-.51-1.36s-.87-.5-1.59-.5h-2.56v3.72h2.56c.49,0,.88-.08,1.18-.22.3-.15.53-.36.69-.64.15-.28.23-.62.23-1ZM236.7,92.04l3.16,5.23h-2.22l-3.04-5.23h2.1Z"/>
        <path class="st0" d="M245.26,97.39c-.79,0-1.5-.17-2.13-.52s-1.12-.84-1.47-1.47c-.35-.63-.53-1.38-.53-2.24s.18-1.63.55-2.27c.36-.64.87-1.13,1.5-1.48.64-.35,1.35-.52,2.13-.52s1.51.17,2.14.52c.63.35,1.14.84,1.51,1.47s.56,1.38.56,2.24-.19,1.63-.57,2.27c-.38.64-.89,1.13-1.54,1.48-.64.35-1.36.52-2.16.52ZM245.25,95.72c.39,0,.75-.09,1.1-.28.35-.19.63-.47.85-.85.22-.38.33-.87.33-1.46s-.1-1.05-.31-1.43c-.21-.38-.49-.66-.83-.85s-.71-.28-1.11-.28-.74.09-1.07.28-.59.47-.79.85c-.2.38-.3.87-.3,1.46s.1,1.05.29,1.43c.19.38.45.66.77.85.32.19.67.28,1.06.28Z"/>
        <path class="st0" d="M252.94,90.22c.26-.38.64-.69,1.12-.95s1.06-.39,1.72-.39c.73,0,1.37.18,1.92.53.55.35.98.85,1.3,1.49.31.64.47,1.38.47,2.23s-.16,1.59-.47,2.23c-.31.64-.75,1.14-1.31,1.49-.56.35-1.19.53-1.91.53-.63,0-1.16-.11-1.6-.33-.44-.22-.8-.49-1.08-.81l-.13,1.03h-1.69v-11.91h1.87v4.91l-.21-.05ZM257.47,93.13c0-.76-.2-1.38-.6-1.85-.4-.47-.92-.71-1.55-.71-.4,0-.76.1-1.08.3-.33.2-.59.49-.79.87-.2.38-.3.85-.3,1.4s.1,1.02.3,1.4c.2.38.46.67.79.87s.69.3,1.08.3c.63,0,1.14-.24,1.55-.71.4-.47.6-1.09.6-1.85Z"/>
      </g>
      <g class="st1">
        <path class="st0" d="M264.84,97.39c-.79,0-1.5-.17-2.13-.52-.63-.35-1.12-.84-1.47-1.47-.35-.63-.53-1.38-.53-2.24s.18-1.63.55-2.27c.36-.64.87-1.13,1.5-1.48.64-.35,1.35-.52,2.13-.52s1.51.17,2.14.52c.63.35,1.14.84,1.51,1.47s.56,1.38.56,2.24-.19,1.63-.57,2.27c-.38.64-.89,1.13-1.54,1.48-.65.35-1.37.52-2.16.52ZM264.82,95.72c.39,0,.75-.09,1.1-.28s.63-.47.85-.85c.22-.38.33-.87.33-1.46s-.11-1.05-.31-1.43c-.21-.38-.49-.66-.83-.85s-.71-.28-1.11-.28-.74.09-1.07.28-.59.47-.79.85c-.2.38-.3.87-.3,1.46s.1,1.05.29,1.43c.19.38.45.66.77.85.32.19.67.28,1.06.28ZM266.47,85.23v1.46l-3.27,1.59v-1.27l3.27-1.77Z"/>
      </g>
      <g class="st1">
        <path class="st0" d="M271.16,89v-2.32h1.9v2.32h1.93v1.64h-1.93v3.67c0,.5.09.84.28,1.03s.43.3.74.31c.3.02.61,0,.92-.04v1.59c-.47.1-.94.13-1.4.09-.46-.04-.87-.17-1.23-.38-.36-.21-.66-.53-.88-.95-.22-.42-.33-.97-.33-1.65v-3.67h-1.16v-1.64h1.16Z"/>
        <path class="st0" d="M277.81,87.74c-.34,0-.63-.12-.86-.35s-.35-.51-.35-.83c0-.34.12-.63.35-.86s.52-.35.86-.35.61.12.84.35.35.52.35.86c0,.32-.12.6-.35.83s-.51.35-.84.35ZM276.86,89h1.87v8.27h-1.87v-8.27Z"/>
        <path class="st0" d="M284.77,97.39c-.79,0-1.49-.18-2.1-.54s-1.08-.85-1.41-1.48c-.34-.63-.5-1.36-.5-2.2s.17-1.59.51-2.23.82-1.14,1.43-1.5c.61-.36,1.32-.55,2.13-.55.85,0,1.6.2,2.27.6.66.4,1.14.95,1.42,1.63l-1.7.56c-.14-.34-.39-.61-.74-.82-.35-.2-.74-.31-1.18-.31s-.82.11-1.14.32c-.32.21-.57.52-.74.9s-.26.84-.26,1.37c0,.79.19,1.42.58,1.88.39.46.92.69,1.59.69.43,0,.82-.1,1.16-.29.34-.19.61-.47.79-.82l1.67.58c-.32.67-.82,1.21-1.5,1.6-.68.4-1.44.6-2.27.6Z"/>
        <path class="st0" d="M295.22,97.27l-.17-1.01c-.26.35-.58.62-.94.81s-.85.28-1.46.28c-.57,0-1.07-.1-1.49-.29-.42-.19-.74-.46-.97-.81-.23-.35-.34-.75-.34-1.21,0-.7.26-1.28.77-1.75s1.26-.76,2.26-.87l2.17-.23v-.64c0-.26-.12-.5-.35-.72s-.6-.32-1.11-.32c-.44,0-.82.11-1.15.32s-.54.54-.65.97l-1.62-.6c.21-.73.63-1.3,1.25-1.7.62-.41,1.38-.61,2.27-.61,1.08,0,1.89.27,2.43.81s.81,1.23.81,2.07v5.51h-1.72ZM295.06,93.63l-1.98.25c-.42.06-.73.17-.94.36-.21.18-.31.41-.31.69,0,.25.1.47.31.65s.48.27.83.27c.45,0,.84-.08,1.15-.25.31-.17.55-.4.71-.71.16-.31.24-.69.24-1.14v-.12Z"/>
      </g>
    </g>
  </g>
</svg>